<svg xmlns="http://www.w3.org/2000/svg" width="96" height="96.001" viewBox="0 0 96 96.001">
  <g id="industry_icon" transform="translate(-356 -789)">
    <rect id="mask_frame" width="96" height="96" transform="translate(356 789)" fill="none"/>
    <g id="business-and-finance" transform="translate(356.001 789)">
      <path id="Path_668" data-name="Path 668" d="M79.077,257.472a1.874,1.874,0,1,0,1.326-.549A1.889,1.889,0,0,0,79.077,257.472Zm0,0" transform="translate(-63.804 -208.749)" fill="#e97f17"/>
      <path id="Path_669" data-name="Path 669" d="M96,151.2a1.875,1.875,0,0,0-3.75,0,5.19,5.19,0,0,1-.985,3.048,5.82,5.82,0,0,0-11.639.012A28.244,28.244,0,0,0,56.934,142.83H52.381a9.851,9.851,0,0,0-14.887,0h-3.42a28.257,28.257,0,0,0-8.762,1.393,15.018,15.018,0,0,0-11.344-5.192H10.88a1.874,1.874,0,0,0-1.725,2.61l4.306,10.111a28.266,28.266,0,0,0-5.337,8.12,5.667,5.667,0,0,1-5.2,3.419H2.578A2.582,2.582,0,0,0,0,165.87v10.456a2.582,2.582,0,0,0,2.579,2.579H5.459a1.984,1.984,0,0,1,1.866,1.356,28.369,28.369,0,0,0,11.106,14.384v7.339l-.633,1.456a3.949,3.949,0,0,0,3.623,5.522H37.74a1.875,1.875,0,0,0,1.875-1.875v-7.723h9.746v2.618l-.633,1.457a3.949,3.949,0,0,0,3.623,5.522H68.669a1.875,1.875,0,0,0,1.875-1.875V195.873a28.327,28.327,0,0,0,7.438-5.907,1.875,1.875,0,1,0-2.791-2.5,24.511,24.511,0,0,1-14.933,7.929,1.875,1.875,0,0,0-1.623,1.858v7.964H52.351a.2.2,0,0,1-.183-.278l.788-1.813a1.873,1.873,0,0,0,.155-.747v-4.883a1.875,1.875,0,0,0-1.875-1.875H34.074a24.775,24.775,0,0,1-4.176-.358,1.875,1.875,0,0,0-2.192,1.848v8.107H21.421a.2.2,0,0,1-.183-.278l.788-1.813a1.886,1.886,0,0,0,.155-.747v-8.755a1.876,1.876,0,0,0-.9-1.6,24.61,24.61,0,0,1-10.413-12.973,5.734,5.734,0,0,0-5.414-3.891H3.749v-8.15a9.414,9.414,0,0,0,7.816-5.643,24.5,24.5,0,0,1,5.374-7.8c.04-.037.079-.075.116-.115a24.508,24.508,0,0,1,17.019-6.865H35.45a9.882,9.882,0,0,0,.119,5.848H32.541a1.875,1.875,0,1,0,0,3.75H58.534a1.875,1.875,0,1,0,0-3.75H54.306a9.882,9.882,0,0,0,.119-5.848h2.509A24.546,24.546,0,0,1,81.452,171.1c0,.724-.032,1.455-.1,2.172a1.875,1.875,0,0,0,1.7,2.032c.056.005.111.007.166.007a1.875,1.875,0,0,0,1.865-1.711c.073-.825.109-1.666.109-2.5a28.221,28.221,0,0,0-.812-6.732,8.639,8.639,0,0,0,6.113-4.9A8.984,8.984,0,0,0,96,151.2Zm-29.2,46.395v7.62H62.385v-6.375A28.117,28.117,0,0,0,66.794,197.593Zm-32.72,1.772h1.791v5.848H31.456v-5.97C32.329,199.325,33.2,199.366,34.074,199.366ZM13.968,142.782a11.255,11.255,0,0,1,7.6,2.966,28.3,28.3,0,0,0-5.183,3.3l-2.668-6.266Zm25.7,9.646a6.123,6.123,0,1,1,10.532,0Zm45.773-.152a2.072,2.072,0,1,1-2.072,2.072A2.074,2.074,0,0,1,85.445,152.276Zm-2.74,7.207a5.772,5.772,0,0,0,2.352.672,4.827,4.827,0,0,1-1.813.6q-.254-.645-.538-1.273Zm0,0" transform="translate(0 -112.963)" fill="#e97f17"/>
      <path id="Path_670" data-name="Path 670" d="M239.544,19.746a9.873,9.873,0,1,0-9.872-9.872A9.884,9.884,0,0,0,239.544,19.746Zm0-16a6.123,6.123,0,1,1-6.122,6.123A6.13,6.13,0,0,1,239.544,3.75Zm0,0" transform="translate(-186.609)" fill="#e97f17"/>
      <path id="Path_671" data-name="Path 671" d="M161.924,281.414a17.525,17.525,0,0,0-17.6,4.066,16.365,16.365,0,0,0-3.022,4.173,16.385,16.385,0,0,0-3.023-4.173,17.527,17.527,0,0,0-17.6-4.066,1.875,1.875,0,0,0-1.247,1.246,17.527,17.527,0,0,0,4.066,17.6,17.027,17.027,0,0,0,12.108,4.894,18.837,18.837,0,0,0,5.468-.82l.025-.007h0l.01,0a1.938,1.938,0,0,0,.188-.07h.009a1.765,1.765,0,0,0,.188.07l.01,0h0l.025.007a18.839,18.839,0,0,0,5.469.82,17.025,17.025,0,0,0,12.107-4.894,17.527,17.527,0,0,0,4.066-17.6,1.873,1.873,0,0,0-1.246-1.246Zm-35.783,16.2a13.675,13.675,0,0,1-3.4-12.877,13.676,13.676,0,0,1,12.877,3.395,13.41,13.41,0,0,1,3.751,10.581l-4.8-4.8a1.875,1.875,0,0,0-2.652,2.651l4.8,4.8A13.411,13.411,0,0,1,126.141,297.613Zm30.311,0a13.408,13.408,0,0,1-10.581,3.751l4.805-4.8a1.875,1.875,0,0,0-2.652-2.651l-4.8,4.8a13.414,13.414,0,0,1,3.751-10.581,13.676,13.676,0,0,1,12.877-3.4,13.675,13.675,0,0,1-3.4,12.878Zm0,0" transform="translate(-96.359 -227.975)" fill="#e97f17"/>
      <path id="Path_672" data-name="Path 672" d="M424.664,356.16a1.877,1.877,0,1,0,1.325.549A1.879,1.879,0,0,0,424.664,356.16Zm0,0" transform="translate(-343.516 -289.38)" fill="#e97f17"/>
    </g>
  </g>
</svg>
