<svg xmlns="http://www.w3.org/2000/svg" width="96" height="96" viewBox="0 0 96 96">
  <g id="industry_icon" transform="translate(-356 -789)">
    <rect id="mask_frame" width="96" height="96" transform="translate(356 789)" fill="none"/>
    <g id="buildings" transform="translate(356 789)">
      <g id="Group_728" data-name="Group 728" transform="translate(11.53 63.378)">
        <g id="Group_727" data-name="Group 727">
          <path id="Path_673" data-name="Path 673" d="M70.259,338.019h-6.89a1.875,1.875,0,0,0-1.875,1.875v6.89a1.875,1.875,0,0,0,1.875,1.875h6.89a1.875,1.875,0,0,0,1.875-1.875v-6.89A1.875,1.875,0,0,0,70.259,338.019Zm-1.875,6.89h-3.14v-3.14h3.14Z" transform="translate(-61.494 -338.019)" fill="#e97f17"/>
        </g>
      </g>
      <g id="Group_730" data-name="Group 730" transform="translate(26.803 63.378)">
        <g id="Group_729" data-name="Group 729">
          <path id="Path_674" data-name="Path 674" d="M151.717,338.019h-6.89a1.875,1.875,0,0,0-1.875,1.875v6.89a1.875,1.875,0,0,0,1.875,1.875h6.89a1.875,1.875,0,0,0,1.875-1.875v-6.89A1.875,1.875,0,0,0,151.717,338.019Zm-1.875,6.89H146.7v-3.14h3.14Z" transform="translate(-142.952 -338.019)" fill="#e97f17"/>
        </g>
      </g>
      <g id="Group_732" data-name="Group 732" transform="translate(11.53 77.848)">
        <g id="Group_731" data-name="Group 731">
          <path id="Path_675" data-name="Path 675" d="M70.259,415.19h-6.89a1.875,1.875,0,0,0-1.875,1.875v6.89a1.875,1.875,0,0,0,1.875,1.875h6.89a1.875,1.875,0,0,0,1.875-1.875v-6.89A1.875,1.875,0,0,0,70.259,415.19Zm-1.875,6.89h-3.14v-3.14h3.14Z" transform="translate(-61.494 -415.19)" fill="#e97f17"/>
        </g>
      </g>
      <g id="Group_734" data-name="Group 734" transform="translate(26.803 77.848)">
        <g id="Group_733" data-name="Group 733">
          <path id="Path_676" data-name="Path 676" d="M151.717,415.19h-6.89a1.875,1.875,0,0,0-1.875,1.875v6.89a1.875,1.875,0,0,0,1.875,1.875h6.89a1.875,1.875,0,0,0,1.875-1.875v-6.89A1.875,1.875,0,0,0,151.717,415.19Zm-1.875,6.89H146.7v-3.14h3.14Z" transform="translate(-142.952 -415.19)" fill="#e97f17"/>
        </g>
      </g>
      <g id="Group_736" data-name="Group 736" transform="translate(25.299 47.906)">
        <g id="Group_735" data-name="Group 735">
          <path id="Path_677" data-name="Path 677" d="M138.131,256.049a1.874,1.874,0,1,0,.549,1.326A1.892,1.892,0,0,0,138.131,256.049Z" transform="translate(-134.93 -255.5)" fill="#e97f17"/>
        </g>
      </g>
      <g id="Group_738" data-name="Group 738" transform="translate(0 0)">
        <g id="Group_737" data-name="Group 737">
          <path id="Path_678" data-name="Path 678" d="M94.125,92.25H92.25V44.613a1.875,1.875,0,0,0-1.875-1.875H81.4V18.584a1.875,1.875,0,0,0-1-1.656L48.9.218a1.875,1.875,0,0,0-2.754,1.656V21H27.174A1.875,1.875,0,0,0,25.3,22.875V42.323a1.875,1.875,0,0,0,3.75,0V24.75h25.5v7.488H48.024a1.875,1.875,0,0,0,0,3.75h6.525v6.75H48.024a1.875,1.875,0,0,0,0,3.75h6.525v6.75H48.024a1.875,1.875,0,0,0,0,3.75h6.525v6.75H48.024a1.875,1.875,0,0,0,0,3.75h6.525v6.75H48.024a1.875,1.875,0,0,0,0,3.75h6.525v6.75H48.024a1.875,1.875,0,0,0,0,3.75h6.525V92.25H45V57.75a1.875,1.875,0,0,0-1.875-1.875H5.625A1.875,1.875,0,0,0,3.75,57.75v34.5H1.875a1.875,1.875,0,0,0,0,3.75h92.25a1.875,1.875,0,1,0,0-3.75Zm-52.875,0H7.5V59.625H41.25ZM64.5,44.613V92.25H58.3V22.875A1.875,1.875,0,0,0,56.424,21H49.9V4.992l27.75,14.72V42.738H66.375A1.875,1.875,0,0,0,64.5,44.613Zm24,8.625H78.375a1.875,1.875,0,0,0,0,3.75H88.5v6.75H78.375a1.875,1.875,0,0,0,0,3.75H88.5v6.75H78.375a1.875,1.875,0,0,0,0,3.75H88.5v6.75H82.813a1.875,1.875,0,0,0,0,3.75H88.5V92.25H68.25V46.488H88.5Z" transform="translate(0 0)" fill="#e97f17"/>
        </g>
      </g>
      <g id="Group_740" data-name="Group 740" transform="translate(72.437 84.738)">
        <g id="Group_739" data-name="Group 739">
          <path id="Path_679" data-name="Path 679" d="M389.53,452.49a1.873,1.873,0,1,0,.55,1.325A1.884,1.884,0,0,0,389.53,452.49Z" transform="translate(-386.33 -451.94)" fill="#e97f17"/>
        </g>
      </g>
      <g id="Group_742" data-name="Group 742" transform="translate(62.625 21.187)">
        <g id="Group_741" data-name="Group 741">
          <path id="Path_680" data-name="Path 680" d="M335.875,113A1.875,1.875,0,0,0,334,114.875v3.5a1.875,1.875,0,0,0,3.75,0v-3.5A1.875,1.875,0,0,0,335.875,113Z" transform="translate(-334 -113)" fill="#e97f17"/>
        </g>
      </g>
      <g id="Group_744" data-name="Group 744" transform="translate(62.625 32.238)">
        <g id="Group_743" data-name="Group 743">
          <path id="Path_681" data-name="Path 681" d="M335.875,171.937A1.875,1.875,0,0,0,334,173.812v3.861a1.875,1.875,0,0,0,3.75,0v-3.861A1.875,1.875,0,0,0,335.875,171.937Z" transform="translate(-334 -171.937)" fill="#e97f17"/>
        </g>
      </g>
      <g id="Group_746" data-name="Group 746" transform="translate(70.125 21.187)">
        <g id="Group_745" data-name="Group 745">
          <path id="Path_682" data-name="Path 682" d="M375.875,113A1.875,1.875,0,0,0,374,114.875v3.5a1.875,1.875,0,0,0,3.75,0v-3.5A1.875,1.875,0,0,0,375.875,113Z" transform="translate(-374 -113)" fill="#e97f17"/>
        </g>
      </g>
      <g id="Group_748" data-name="Group 748" transform="translate(70.125 32.238)">
        <g id="Group_747" data-name="Group 747">
          <path id="Path_683" data-name="Path 683" d="M375.875,171.937A1.875,1.875,0,0,0,374,173.812v3.861a1.875,1.875,0,0,0,3.75,0v-3.861A1.875,1.875,0,0,0,375.875,171.937Z" transform="translate(-374 -171.937)" fill="#e97f17"/>
        </g>
      </g>
    </g>
  </g>
</svg>
