<svg xmlns="http://www.w3.org/2000/svg" width="96.001" height="96" viewBox="0 0 96.001 96">
  <g id="industry_icon" transform="translate(-356 -789)">
    <rect id="mask_frame" width="96" height="96" transform="translate(356 789)" fill="none"/>
    <g id="worldwide" transform="translate(356 789)">
      <g id="XMLID_164_" transform="translate(0)">
        <path id="XMLID_196_" d="M86.992,20A7.869,7.869,0,0,0,76,9.009a48.014,48.014,0,0,0-55.646-.251,1.875,1.875,0,1,0,2.163,3.064,43.887,43.887,0,0,1,18-7.443,24.078,24.078,0,0,0-2.252,3.489,60.654,60.654,0,0,0-5.461,16.9,7.89,7.89,0,0,0-7.078,5.977H7.239a44.1,44.1,0,0,1,4.005-7.4,1.875,1.875,0,0,0-3.113-2.091A48.018,48.018,0,0,0,9.009,76,7.869,7.869,0,0,0,20,86.991,48,48,0,0,0,96,48a47.53,47.53,0,0,0-9.008-28Zm3.15,41.5H70.147a7.9,7.9,0,0,0-5.124-5.583c.148-2.6.227-5.259.227-7.917,0-4.636-.225-9.173-.658-13.5H90.165a44.5,44.5,0,0,1-.023,27ZM48,92.25c-3.142,0-6.541-4.571-9.093-12.228A82.726,82.726,0,0,1,35.623,65.25H54.851a7.907,7.907,0,0,0,4.637,5.4c-2.852,14.9-7.771,21.6-11.488,21.6ZM15.375,72.75a7.825,7.825,0,0,0-3.493.82,44.1,44.1,0,0,1-4.654-8.32H31.842a87.267,87.267,0,0,0,3.507,15.958A35.07,35.07,0,0,0,40.493,91.62a43.693,43.693,0,0,1-18.062-7.5A7.871,7.871,0,0,0,15.375,72.75ZM34.5,48c0-2.558.075-5.111.216-7.617A7.9,7.9,0,0,0,41.022,34.5h19.8A132.165,132.165,0,0,1,61.5,48c0,2.55-.075,5.1-.215,7.594A7.9,7.9,0,0,0,54.851,61.5H35.175A132.269,132.269,0,0,1,34.5,48Zm28,19.5a4.125,4.125,0,1,1,4.125-4.125A4.13,4.13,0,0,1,62.5,67.5ZM60.651,14.792A35.069,35.069,0,0,0,55.507,4.379a43.684,43.684,0,0,1,18.064,7.5A7.871,7.871,0,0,0,84.118,22.431a44.079,44.079,0,0,1,4.654,8.32H64.158a87.281,87.281,0,0,0-3.507-15.958Zm24.1.583a4.125,4.125,0,1,1-4.125-4.125A4.13,4.13,0,0,1,84.751,15.375ZM48,3.75c3.142,0,6.541,4.571,9.093,12.228A82.729,82.729,0,0,1,60.377,30.75H41.022A7.906,7.906,0,0,0,36.5,25.4C39.352,10.462,44.275,3.75,48,3.75ZM33.374,28.5a4.125,4.125,0,1,1-4.125,4.125A4.13,4.13,0,0,1,33.374,28.5Zm-7.648,6a7.9,7.9,0,0,0,5.248,5.625c-.146,2.591-.225,5.231-.225,7.875,0,4.636.225,9.173.658,13.5H5.836a44.605,44.605,0,0,1,.011-27ZM11.25,80.625a4.125,4.125,0,1,1,4.125,4.125A4.13,4.13,0,0,1,11.25,80.625ZM55.488,91.613a24.057,24.057,0,0,0,2.233-3.456A60.6,60.6,0,0,0,63.2,71.217a7.891,7.891,0,0,0,6.95-5.967h18.6a44.4,44.4,0,0,1-33.26,26.363Z" transform="translate(0)" fill="#e97f17"/>
        <path id="XMLID_1702_" d="M71.935,77.81a1.876,1.876,0,1,0-1.325-.549A1.885,1.885,0,0,0,71.935,77.81Z" transform="translate(-56.924 -60.174)" fill="#e97f17"/>
      </g>
    </g>
  </g>
</svg>
