<svg xmlns="http://www.w3.org/2000/svg" width="96" height="96" viewBox="0 0 96 96">
  <g id="industry_icon" transform="translate(-356 -789)">
    <rect id="mask_frame" width="96" height="96" transform="translate(356 789)" fill="none"/>
    <g id="oil-platform" transform="translate(356 789)">
      <path id="Path_686" data-name="Path 686" d="M89.826,17.424a1.875,1.875,0,0,0-2-.423L65.247,25.732,62.236,1.643A1.875,1.875,0,0,0,60.375,0H49.125a1.875,1.875,0,0,0-1.861,1.643l-3.31,26.483H38.625V18.75a1.875,1.875,0,1,0-3.75,0v9.375H26.25V18.75a1.875,1.875,0,0,0-2.33-1.819l-3.3.824V7.5A1.875,1.875,0,0,0,18.75,5.625H7.5A1.875,1.875,0,0,0,5.625,7.5v14l-4.2,1.051A1.875,1.875,0,0,0,0,24.375v33.75A1.875,1.875,0,0,0,1.875,60h9.938V78.294a14.893,14.893,0,0,0-4.807,1.468A10.743,10.743,0,0,1,1.875,81a1.875,1.875,0,1,0,0,3.75,14.375,14.375,0,0,0,6.682-1.574,10.743,10.743,0,0,1,5.13-1.238,9.123,9.123,0,0,1,4.786,1.208,12.689,12.689,0,0,0,6.463,1.6,14.375,14.375,0,0,0,6.682-1.574,10.743,10.743,0,0,1,5.13-1.238,9.123,9.123,0,0,1,4.786,1.208A12.689,12.689,0,0,0,48,84.75a12.689,12.689,0,0,0,6.463-1.6,10.085,10.085,0,0,1,9.573,0,12.689,12.689,0,0,0,6.464,1.6,14.375,14.375,0,0,0,6.682-1.574,11.247,11.247,0,0,1,10.261,0,14.375,14.375,0,0,0,6.682,1.574,1.875,1.875,0,0,0,0-3.75,10.743,10.743,0,0,1-5.13-1.238,14.969,14.969,0,0,0-13.364,0A10.743,10.743,0,0,1,70.5,81a8.739,8.739,0,0,1-3.75-.714V60h10.5a1.875,1.875,0,0,0,1.875-1.875V46.875A1.875,1.875,0,0,0,77.25,45h-5.9l20.9-16.724V63.75a1.875,1.875,0,0,0,3.75,0V24.375a1.907,1.907,0,0,0-.549-1.326ZM50.78,3.75H58.72l.938,7.5H49.843ZM49.374,15H60.126l.938,7.5H48.437ZM47.968,26.25H61.533l.938,7.5H47.03ZM46.562,37.5H62.939l.937,7.5H45.624ZM26.25,31.875H43.485L41.845,45H26.25ZM9.375,9.375h7.5v9.317l-7.5,1.875ZM23.063,80.854a9.73,9.73,0,0,1-2.911-1.062,12.765,12.765,0,0,0-4.589-1.5V60h7.5ZM63,78.669a14.849,14.849,0,0,0-7.5,0V60H63ZM75.375,48.75v7.5H48A1.875,1.875,0,0,0,48,60h3.75V80.286A8.739,8.739,0,0,1,48,81a9.123,9.123,0,0,1-4.786-1.208,12.689,12.689,0,0,0-6.464-1.6,14.375,14.375,0,0,0-6.682,1.574,11.963,11.963,0,0,1-3.255,1.1V60h4.313a1.875,1.875,0,1,0,0-3.75H3.75v-7.5h9.375a1.875,1.875,0,0,0,0-3.75H3.75V37.5h9.375a1.875,1.875,0,0,0,0-3.75H3.75V25.839L22.5,21.152V46.875a1.875,1.875,0,0,0,1.875,1.875Zm-7.93-5.432L65.726,29.567l22.311-8.628,3.28,3.281Z" transform="translate(0)" fill="#e97f17"/>
      <path id="Path_687" data-name="Path 687" d="M94.125,479.813a10.742,10.742,0,0,1-5.13-1.238,14.969,14.969,0,0,0-13.364,0,10.742,10.742,0,0,1-5.13,1.238,9.123,9.123,0,0,1-4.786-1.208,13.823,13.823,0,0,0-12.927,0A9.123,9.123,0,0,1,48,479.813a9.123,9.123,0,0,1-4.786-1.208A12.689,12.689,0,0,0,36.75,477a14.375,14.375,0,0,0-6.682,1.574,10.742,10.742,0,0,1-5.13,1.238,9.123,9.123,0,0,1-4.786-1.208,12.689,12.689,0,0,0-6.464-1.6,14.375,14.375,0,0,0-6.682,1.574,10.742,10.742,0,0,1-5.13,1.238,1.875,1.875,0,0,0,0,3.75,14.375,14.375,0,0,0,6.682-1.574,10.742,10.742,0,0,1,5.13-1.238,9.123,9.123,0,0,1,4.786,1.208,12.689,12.689,0,0,0,6.464,1.6,14.375,14.375,0,0,0,6.682-1.574,10.742,10.742,0,0,1,5.13-1.238,9.123,9.123,0,0,1,4.786,1.208,12.689,12.689,0,0,0,6.464,1.6,12.689,12.689,0,0,0,6.463-1.6,10.085,10.085,0,0,1,9.573,0,12.689,12.689,0,0,0,6.464,1.6,14.375,14.375,0,0,0,6.682-1.574,11.247,11.247,0,0,1,10.261,0,14.375,14.375,0,0,0,6.682,1.574,1.875,1.875,0,0,0,0-3.75Z" transform="translate(0 -387.563)" fill="#e97f17"/>
      <ellipse id="Ellipse_118" data-name="Ellipse 118" cx="1.5" cy="2" rx="1.5" ry="2" transform="translate(38 56)" fill="#e97f17"/>
    </g>
  </g>
</svg>
