<svg xmlns="http://www.w3.org/2000/svg" width="96" height="96" viewBox="0 0 96 96">
  <g id="industry_icon" transform="translate(-356 -789)">
    <rect id="mask_frame" width="96" height="96" transform="translate(356 789)" fill="none"/>
    <g id="pharmacy" transform="translate(355.999 789)">
      <g id="Group_750" data-name="Group 750" transform="translate(0.001)">
        <g id="Group_749" data-name="Group 749" transform="translate(0)">
          <path id="Path_688" data-name="Path 688" d="M95.277,10.645a1.875,1.875,0,0,0-1.613-.337l-8.921,2.268a17.824,17.824,0,0,1-4.385.549H67.267a8.484,8.484,0,0,0-8.435,7.246,4.755,4.755,0,0,1-4.727,4.061h-.479V20.515a11.031,11.031,0,1,0-11.25,0v3.917H41.9a4.755,4.755,0,0,1-4.727-4.061,8.484,8.484,0,0,0-8.434-7.246H15.644a17.812,17.812,0,0,1-4.385-.549L2.338,10.309A1.875,1.875,0,0,0,0,12.126a15.1,15.1,0,0,0,4.02,10.267A14.512,14.512,0,0,0,9.563,33.625l1.764,2.357a21.512,21.512,0,0,0,17.145,8.584,21.267,21.267,0,0,0,13.9-5.128v6.687H40.694A12.128,12.128,0,0,0,30.068,64.094a1.875,1.875,0,1,0,3.285-1.809,8.378,8.378,0,0,1,7.342-12.409h1.682v16.75H37.97a8.969,8.969,0,0,0,0,17.938h5.213a48.494,48.494,0,0,0,3.118,10.3A1.875,1.875,0,0,0,48.025,96h0a1.875,1.875,0,0,0,1.723-1.143l.037-.087a48.5,48.5,0,0,0,3.051-10.207H54.97a3.844,3.844,0,1,1,0,7.688h-.127a1.875,1.875,0,0,0,0,3.75h.127a7.594,7.594,0,0,0,0-15.187h-1.6a48.957,48.957,0,0,0,.253-4.975V70.375h1.25a12.125,12.125,0,0,0,0-24.25h-1.25V39.439a21.267,21.267,0,0,0,13.9,5.128,21.512,21.512,0,0,0,17.145-8.584l1.764-2.357a14.512,14.512,0,0,0,5.541-11.232A15.1,15.1,0,0,0,96,12.126,1.876,1.876,0,0,0,95.277,10.645ZM40.892,35.711a17.556,17.556,0,0,1-12.42,5.105,17.75,17.75,0,0,1-11.35-4.137c.471.046.947.071,1.43.071h3.14a1.875,1.875,0,1,0,0-3.75h-3.14a10.8,10.8,0,0,1-10.22-7.35,15.057,15.057,0,0,0,6.823,1.631h3.878a1.875,1.875,0,0,0,0-3.75H15.155A11.426,11.426,0,0,1,4.023,14.606l6.312,1.6a21.555,21.555,0,0,0,5.309.664H28.735a4.755,4.755,0,0,1,4.727,4.061A8.484,8.484,0,0,0,41.9,28.182h.479v6.061Zm-2.922,45.1a5.219,5.219,0,0,1,0-10.438h4.406v5.351a48.985,48.985,0,0,0,.265,5.086H37.97Zm11.906-4.975a44.629,44.629,0,0,1-1.858,12.79,44.613,44.613,0,0,1-1.892-12.9V70.375h3.75v5.463Zm0-9.213h-3.75V21.9a10.882,10.882,0,0,0,3.75,0Zm5-16.75a8.375,8.375,0,0,1,0,16.75h-1.25V49.875h1.25ZM48,18.312a7.281,7.281,0,1,1,7.281-7.281A7.289,7.289,0,0,1,48,18.312Zm32.846,5.219H76.97a1.875,1.875,0,0,0,0,3.75h3.878a15.055,15.055,0,0,0,6.823-1.63A10.8,10.8,0,0,1,77.451,33h-3.14a1.875,1.875,0,0,0,0,3.75h3.14c.483,0,.959-.025,1.43-.071a17.75,17.75,0,0,1-11.35,4.137,17.556,17.556,0,0,1-12.42-5.1l-1.485-1.468V28.182h.479a8.484,8.484,0,0,0,8.434-7.246,4.755,4.755,0,0,1,4.727-4.061H80.358a21.558,21.558,0,0,0,5.309-.664l6.312-1.6A11.426,11.426,0,0,1,80.847,23.531Z" transform="translate(-0.001)" fill="#e97f17"/>
        </g>
      </g>
      <g id="Group_752" data-name="Group 752" transform="translate(38.626 92.25)">
        <g id="Group_751" data-name="Group 751">
          <path id="Path_689" data-name="Path 689" d="M209.2,492.55a1.873,1.873,0,1,0,.55,1.326A1.888,1.888,0,0,0,209.2,492.55Z" transform="translate(-206.001 -492.001)" fill="#e97f17"/>
        </g>
      </g>
    </g>
  </g>
</svg>
