<svg xmlns="http://www.w3.org/2000/svg" width="96" height="96" viewBox="0 0 96 96">
  <g id="industry_icon" transform="translate(-356 -789)">
    <rect id="mask_frame" width="96" height="96" transform="translate(356 789)" fill="none"/>
    <g id="renewable-energy" transform="translate(356 789)">
      <path id="Path_684" data-name="Path 684" d="M90.225,16.333a1.869,1.869,0,0,0-.958-3.155L79.63,11.256C71.349,4.2,59.57,0,48,0A50.687,50.687,0,0,0,19.461,8.829L16.38,5.758a1.877,1.877,0,0,0-3.164.956l-1.927,9.609C4.214,24.58,0,36.326,0,47.862A50.336,50.336,0,0,0,8.855,76.319l-3.08,3.073a1.868,1.868,0,0,0,.958,3.155l9.634,1.921a48.788,48.788,0,0,0,22.9,10.479,1.87,1.87,0,1,0,.657-3.681A47.252,47.252,0,0,1,25.7,86.329l.922.184a1.872,1.872,0,0,0,2.206-2.2l-1.083-5.4A38.5,38.5,0,0,0,46.5,84.461a37.769,37.769,0,0,0,23.264-6.522,1.867,1.867,0,0,0,.238-2.846l-1.168-1.164L82.532,71.2,79.794,84.854,78.045,83.11a1.879,1.879,0,0,0-2.476-.154A44.98,44.98,0,0,1,56.079,91.27a1.87,1.87,0,1,0,.651,3.682A49.47,49.47,0,0,0,76.539,86.9l3.081,3.071a1.878,1.878,0,0,0,3.164-.956L84.712,79.4C91.786,71.144,96,59.4,96,47.862a50.336,50.336,0,0,0-8.855-28.457ZM16.206,10.872l1.749,1.743a1.879,1.879,0,0,0,2.476.154c7.295-5.654,17.6-9.03,27.569-9.03A47.389,47.389,0,0,1,70.306,9.4l-.925-.185a1.872,1.872,0,0,0-2.206,2.2l1.083,5.4A38.5,38.5,0,0,0,49.5,11.264a37.777,37.777,0,0,0-23.264,6.52,1.867,1.867,0,0,0-.239,2.845L27.162,21.8,13.468,24.526Zm-3.4,64.48C7.135,68.078,3.75,57.8,3.75,47.862A47.039,47.039,0,0,1,9.424,25.62l-.185.923a1.873,1.873,0,0,0,2.206,2.2l5.416-1.08A38.23,38.23,0,0,0,11.3,46.371a37.5,37.5,0,0,0,6.541,23.2,1.879,1.879,0,0,0,2.854.238l1.167-1.165L24.6,82.3,10.9,79.565l1.748-1.744a1.866,1.866,0,0,0,.154-2.469Zm50.9-1.249,2.015,2.008c-11.677,6.977-28.585,5.967-39.053-2.543l-1.822-9.087a1.877,1.877,0,0,0-3.165-.955L19.67,65.535c-7-11.643-5.984-28.5,2.55-38.941l9.113-1.817a1.868,1.868,0,0,0,.958-3.155l-2.016-2.01c11.677-6.977,28.586-5.966,39.053,2.544l1.822,9.087a1.878,1.878,0,0,0,3.165.955L76.33,30.19c7,11.643,5.984,28.5-2.55,38.941l-9.113,1.817a1.868,1.868,0,0,0-.958,3.156ZM92.25,47.862A47.039,47.039,0,0,1,86.576,70.1l.185-.923a1.873,1.873,0,0,0-2.206-2.2l-5.416,1.08A38.232,38.232,0,0,0,84.7,49.354a37.5,37.5,0,0,0-6.541-23.2,1.879,1.879,0,0,0-2.854-.238l-1.167,1.165L71.4,13.429,85.1,16.16,83.348,17.9a1.866,1.866,0,0,0-.154,2.469c5.671,7.273,9.056,17.55,9.056,27.489Z" fill="#e97f17"/>
      <path id="Path_685" data-name="Path 685" d="M211.14,173.023l-10.184-5.092V157.868a1.87,1.87,0,0,0-3.425-1.037l-11.218,16.827a1.869,1.869,0,0,0,.719,2.709l10.184,5.092v10.062a1.87,1.87,0,0,0,3.425,1.037l11.218-16.827a1.869,1.869,0,0,0-.72-2.709Zm-10.184,12.324V180.3a1.869,1.869,0,0,0-1.034-1.672L190.6,173.97l6.618-9.927v5.043a1.869,1.869,0,0,0,1.034,1.672l9.323,4.662Z" transform="translate(-151.087 -126.832)" fill="#e97f17"/>
      <circle id="Ellipse_117" data-name="Ellipse 117" cx="1.87" cy="1.87" r="1.87" transform="matrix(0.987, -0.16, 0.16, 0.987, 45.834, 92.309)" fill="#e97f17"/>
    </g>
  </g>
</svg>
