<svg xmlns="http://www.w3.org/2000/svg" width="32" height="32" viewBox="0 0 32 32">
  <g id="audit_dual_tone-32px" transform="translate(16263 7068)">
    <rect id="Rectangle_1037" data-name="Rectangle 1037" width="32" height="32" transform="translate(-16263 -7068)" fill="none"/>
    <g id="investigation" transform="translate(-16263 -7067)">
      <ellipse id="Ellipse_125" data-name="Ellipse 125" cx="0.625" cy="0.625" rx="0.625" ry="0.625" transform="translate(8.606 28.855)" fill="#e97f17"/>
      <path id="Path_856" data-name="Path 856" d="M31.572,35.594,25.5,25.742a.641.641,0,0,0-.882-.209l-.308.19-1.4-2.263a8.342,8.342,0,1,0-12.7-10.754H.641A.641.641,0,0,0,0,13.347V38.789a.641.641,0,0,0,.641.641H6.363a.641.641,0,0,0,0-1.282H1.282V13.988H9.449a8.337,8.337,0,0,0,7.523,11.968c.239,0,.479-.011.719-.032V38.148H12.116a.641.641,0,0,0,0,1.282h6.215a.641.641,0,0,0,.641-.641V25.711q.268-.067.534-.151l1.4,2.263-.308.19a.641.641,0,0,0-.209.882l6.075,9.852a2.887,2.887,0,0,0,3.969.941l.2-.125h0a2.888,2.888,0,0,0,.941-3.969ZM10.948,21.321a7.06,7.06,0,1,1,9.715,2.3,7.068,7.068,0,0,1-9.715-2.3Zm9.76,3.745c.212-.107.422-.223.628-.35s.4-.262.595-.4L23.215,26.4l-1.222.754Zm4.034,1.895,4.381,7.1-2.93,1.807-4.381-7.1Zm5.215,11.511-.2.124a1.6,1.6,0,0,1-2.205-.523l-.685-1.11,2.93-1.807.685,1.11A1.6,1.6,0,0,1,29.957,38.472Z" transform="translate(0 -9.276)" fill="#222"/>
      <path id="Path_858" data-name="Path 858" d="M42.021,152.5h3.461a.641.641,0,0,0,0-1.282H42.021a.641.641,0,0,0,0,1.282Z" transform="translate(-38.794 -142.349)" fill="#e97f17"/>
      <path id="Path_934" data-name="Path 934" d="M42.021,152.5h3.461a.641.641,0,0,0,0-1.282H42.021a.641.641,0,0,0,0,1.282Z" transform="translate(-29.46 -144.81)" fill="#e97f17"/>
      <path id="Path_859" data-name="Path 859" d="M42.021,193.528h3.461a.641.641,0,1,0,0-1.282H42.021a.641.641,0,1,0,0,1.282Z" transform="translate(-38.794 -180.81)" fill="#e97f17"/>
      <path id="Path_935" data-name="Path 935" d="M42.021,193.528h3.461a.641.641,0,1,0,0-1.282H42.021a.641.641,0,1,0,0,1.282Z" transform="translate(-29.46 -183.272)" fill="#e97f17"/>
      <path id="Path_860" data-name="Path 860" d="M42.021,234.553h5.491a.641.641,0,1,0,0-1.282H42.021a.641.641,0,1,0,0,1.282Z" transform="translate(-38.794 -219.271)" fill="#e97f17"/>
      <path id="Path_861" data-name="Path 861" d="M42.021,275.579h9.017a.641.641,0,0,0,0-1.282H42.021a.641.641,0,0,0,0,1.282Z" transform="translate(-38.794 -257.733)" fill="#e97f17"/>
      <path id="Path_862" data-name="Path 862" d="M42.021,316.6H54.564a.641.641,0,1,0,0-1.282H42.021a.641.641,0,1,0,0,1.282Z" transform="translate(-38.794 -296.194)" fill="#e97f17"/>
      <path id="Path_863" data-name="Path 863" d="M42.021,357.63H54.564a.641.641,0,0,0,0-1.282H42.021a.641.641,0,0,0,0,1.282Z" transform="translate(-38.794 -334.656)" fill="#e97f17"/>
      <path id="Ellipse_128" data-name="Ellipse 128" d="M5.667,1.333A4.333,4.333,0,1,0,10,5.667,4.338,4.338,0,0,0,5.667,1.333M5.667,0A5.667,5.667,0,1,1,0,5.667,5.667,5.667,0,0,1,5.667,0Z" transform="translate(11.333 2.667)" fill="#222"/>
    </g>
  </g>
</svg>
