<svg xmlns="http://www.w3.org/2000/svg" width="48" height="48" viewBox="0 0 48 48">
  <g id="audit_dual_tone-48px" transform="translate(16372 7106)">
    <rect id="Rectangle_1038" data-name="Rectangle 1038" width="48" height="48" transform="translate(-16372 -7106)" fill="none"/>
    <g id="investigation" transform="translate(-16372 -7105)">
      <ellipse id="Ellipse_125" data-name="Ellipse 125" cx="0.938" cy="0.938" rx="0.938" ry="0.938" transform="translate(12.91 43.283)" fill="#e97f17"/>
      <path id="Path_856" data-name="Path 856" d="M47.357,48.753,38.245,33.976a.961.961,0,0,0-1.323-.314l-.462.285-2.093-3.395A12.513,12.513,0,1,0,15.322,14.421H.961A.962.962,0,0,0,0,15.382V53.545a.961.961,0,0,0,.962.962H9.544a.962.962,0,1,0,0-1.923H1.923V16.344h12.25A12.506,12.506,0,0,0,25.457,34.3c.359,0,.719-.017,1.078-.048V52.583H18.174a.962.962,0,0,0,0,1.923H27.5a.962.962,0,0,0,.962-.962V33.929q.4-.1.8-.227L31.352,37.1l-.462.285a.962.962,0,0,0-.314,1.323l9.112,14.778a4.33,4.33,0,0,0,5.954,1.412l.3-.187h0a4.332,4.332,0,0,0,1.412-5.954ZM16.423,27.344A10.59,10.59,0,1,1,30.995,30.8a10.6,10.6,0,0,1-14.572-3.456Zm14.64,5.617c.318-.16.633-.334.942-.525s.606-.393.892-.605l1.927,3.125-1.834,1.131ZM37.113,35.8,43.684,46.46l-4.4,2.71L32.718,38.513ZM44.936,53.07l-.3.187a2.407,2.407,0,0,1-3.308-.785L40.3,50.807l4.4-2.71,1.027,1.665A2.407,2.407,0,0,1,44.936,53.07Z" transform="translate(0 -9.276)" fill="#222"/>
      <path id="Path_858" data-name="Path 858" d="M42.342,153.143h5.192a.962.962,0,0,0,0-1.923H42.342a.962.962,0,0,0,0,1.923Z" transform="translate(-37.501 -137.913)" fill="#e97f17"/>
      <path id="Path_934" data-name="Path 934" d="M42.342,153.143h5.192a.962.962,0,0,0,0-1.923H42.342a.962.962,0,0,0,0,1.923Z" transform="translate(-23.501 -141.605)" fill="#e97f17"/>
      <path id="Path_859" data-name="Path 859" d="M42.342,194.169h5.192a.962.962,0,1,0,0-1.923H42.342a.962.962,0,1,0,0,1.923Z" transform="translate(-37.501 -175.093)" fill="#e97f17"/>
      <path id="Path_935" data-name="Path 935" d="M42.342,194.169h5.192a.962.962,0,1,0,0-1.923H42.342a.962.962,0,1,0,0,1.923Z" transform="translate(-23.501 -178.785)" fill="#e97f17"/>
      <path id="Path_860" data-name="Path 860" d="M42.342,235.194h8.237a.961.961,0,1,0,0-1.923H42.342a.961.961,0,1,0,0,1.923Z" transform="translate(-37.501 -212.272)" fill="#e97f17"/>
      <path id="Path_861" data-name="Path 861" d="M42.342,276.22H55.867a.962.962,0,0,0,0-1.923H42.342a.962.962,0,0,0,0,1.923Z" transform="translate(-37.501 -249.451)" fill="#e97f17"/>
      <path id="Path_862" data-name="Path 862" d="M42.342,317.245H61.156a.961.961,0,1,0,0-1.923H42.342a.961.961,0,1,0,0,1.923Z" transform="translate(-37.501 -286.63)" fill="#e97f17"/>
      <path id="Path_863" data-name="Path 863" d="M42.342,358.271H61.156a.962.962,0,0,0,0-1.923H42.342a.962.962,0,0,0,0,1.923Z" transform="translate(-37.501 -323.81)" fill="#e97f17"/>
      <path id="Ellipse_128" data-name="Ellipse 128" d="M8.5,2A6.5,6.5,0,1,0,15,8.5,6.507,6.507,0,0,0,8.5,2m0-2A8.5,8.5,0,1,1,0,8.5,8.5,8.5,0,0,1,8.5,0Z" transform="translate(17 4)" fill="#222"/>
    </g>
  </g>
</svg>
