<svg id="business_india_orange-48px" xmlns="http://www.w3.org/2000/svg" width="48" height="48" viewBox="0 0 48 48">
  <g id="Layer_1" data-name="Layer 1">
    <rect id="Rectangle_1036" data-name="Rectangle 1036" width="48" height="48" fill="none"/>
    <g id="Group_892" data-name="Group 892">
      <path id="Path_936" data-name="Path 936" d="M10,13.19a1.62,1.62,0,0,0,0,.22,9.7,9.7,0,0,0,.45,2.4M10,13.19a1.62,1.62,0,0,0,0,.22,9.7,9.7,0,0,0,.45,2.4m2.36-8.15-.11-.1c-.49-.47-.73-.7-.81-.94s-.06-.18.27-.54a3.93,3.93,0,0,0,.44-.55,1.61,1.61,0,0,0,.09-1.42A3,3,0,0,0,11.2,2.52h-.09a.79.79,0,0,1,.24-.35A2.28,2.28,0,0,1,13.05,2a7.47,7.47,0,0,1,1.44.85,4.16,4.16,0,0,0,1.92,1.92,2.4,2.4,0,0,0,1.82-.19,1.66,1.66,0,0,1,.73-.2.39.39,0,0,1,.33.15.74.74,0,0,1,0,.6c-.09.3-.25.4-.55.56a1.4,1.4,0,0,0-.82.94m2.49,1a6.37,6.37,0,0,0-2.49-1m-6.4,30a120.418,120.418,0,1,1,.02.02ZM10.31,25.18a2.19,2.19,0,0,0-2.53.42l-.15.17c-.66.8-1,1-1.24.87A.64.64,0,0,1,6,26.23a.78.78,0,0,1,.06-.58,1.27,1.27,0,0,0,.12-1.18,2.08,2.08,0,0,0-1.66-1H4.33a.61.61,0,0,1-.48-.55.87.87,0,0,1,.3-.8,2.3,2.3,0,0,1,.69.1,2.17,2.17,0,0,0,2.53-.66c1.12-1.64-.06-3-.7-3.65-.2-.23-.58-.65-.58-.79a.09.09,0,0,1,0-.07c.58-1,1.08-.91,2-.62a2.88,2.88,0,0,0,.82.19,2,2,0,0,0,1.54-.76,9.7,9.7,0,0,1-.45-2.4,1.62,1.62,0,0,1,0-.22l-.08.14a7.22,7.22,0,0,1-1,1.36l-.26-.08a3.13,3.13,0,0,0-4.18,1.47c-.76,1.31.21,2.39.79,3,.78.87.76,1,.55,1.33a3.78,3.78,0,0,1-.57-.1,2.67,2.67,0,0,0-2,.1A2.65,2.65,0,0,0,2,23.1a2.44,2.44,0,0,0,1.85,2.13l.28.07h.06a2.85,2.85,0,0,0,0,1.42A2.54,2.54,0,0,0,5.51,28.3a2.19,2.19,0,0,0,1,.26A3.58,3.58,0,0,0,9.08,27l.1-.11a.7.7,0,0,1,.53.12.62.62,0,0,1,.24.65,2.8,2.8,0,0,1-.59,1.05,3.13,3.13,0,0,0-.8,1.79A18.72,18.72,0,0,0,8.8,34a.94.94,0,1,0,1.83-.39,17.16,17.16,0,0,1-.2-3.12,4.23,4.23,0,0,1,.44-.69,4.11,4.11,0,0,0,.93-2,2.48,2.48,0,0,0-1.49-2.62ZM20.82,3.42A2.29,2.29,0,0,0,19,2.48a3.46,3.46,0,0,0-1.55.36A1.7,1.7,0,0,1,17,3c-.06,0-.37-.18-1-1.19A6.64,6.64,0,0,0,13.52.17,4.24,4.24,0,0,0,12.67,0h-.43a3.94,3.94,0,0,0-2,.61,2.47,2.47,0,0,0-1,2.22,1.88,1.88,0,0,0,1.32,1.45,1.57,1.57,0,0,1,.37.4l-.12.13a2.25,2.25,0,0,0-.66,2.39,4.17,4.17,0,0,0,1.29,1.7h0a6.41,6.41,0,0,1,1.37-1.28l-.11-.1c-.49-.47-.73-.7-.81-.94s-.06-.18.27-.54a3.93,3.93,0,0,0,.44-.55,1.61,1.61,0,0,0,.09-1.42A3,3,0,0,0,11.2,2.52h-.09a.79.79,0,0,1,.24-.35A2.28,2.28,0,0,1,13.05,2a7.47,7.47,0,0,1,1.44.85,4.16,4.16,0,0,0,1.92,1.92,2.4,2.4,0,0,0,1.82-.19,1.66,1.66,0,0,1,.73-.2.39.39,0,0,1,.33.15.74.74,0,0,1,0,.6c-.09.3-.25.4-.55.56a1.4,1.4,0,0,0-.82.94,6.37,6.37,0,0,1,2.49,1,3.55,3.55,0,0,0-.3-.63,2.57,2.57,0,0,0,1-1.39A2.52,2.52,0,0,0,20.82,3.42ZM46,15.19h0a1.46,1.46,0,0,0-1.12-.86l-.22-.08A2.85,2.85,0,0,0,44,13.2a1.59,1.59,0,0,0-1.22-.57,1.23,1.23,0,0,0-.93.4,6,6,0,0,1-1,0,5.11,5.11,0,0,0-2.52.89l-.84.44a2.08,2.08,0,0,0-1,2.1A10.42,10.42,0,0,1,34.55,16v-.07a2.61,2.61,0,0,0-3.17-1.88c-1.5.24-1.57,1.72-1.6,2.35v.29a1.86,1.86,0,0,1-1.49-.39,3,3,0,0,0-1.77-.3,5.08,5.08,0,0,1-.78,0,.92.92,0,0,0-.67-.44l-.7-.08a6.89,6.89,0,0,1-1.42-.23A10,10,0,0,1,22.32,17a10.08,10.08,0,0,0,1.81.31h.24a2.88,2.88,0,0,0,2.16.53,3.47,3.47,0,0,1,.72,0c1.68,1.08,3.28.81,4,0a2.18,2.18,0,0,0,.39-1.38,3,3,0,0,1,.06-.59c.77-.11.86.11,1.08.7a1.61,1.61,0,0,0,.93,1.1,8.66,8.66,0,0,0,3.73.62,1.14,1.14,0,0,0,.94-1,3.53,3.53,0,0,0,0-.65,2.08,2.08,0,0,1,0-.61l.88-.46a4.61,4.61,0,0,1,1.56-.67,3.87,3.87,0,0,0,2-.25l.08.1a1.55,1.55,0,0,0,.66,1,2.06,2.06,0,0,0,.42.21l-.06.28a2.71,2.71,0,0,0-1.15.32,3,3,0,0,0-1.53,1.86,3.32,3.32,0,0,0,.17,2,2.64,2.64,0,0,1,.12.4c0,.29-.08.39-.35.7a2.66,2.66,0,0,0-.8,2,1.29,1.29,0,0,1-.46,1.25.62.62,0,0,1-.38.07A1.83,1.83,0,0,0,39,23.56a1.92,1.92,0,0,0-1.52-.5h-.15a4.94,4.94,0,0,1,.16-1,1.52,1.52,0,0,0-.24-1.38,1.94,1.94,0,0,0-1.66-.57h-.1a1.29,1.29,0,0,1-.4-.06,5.05,5.05,0,0,0-1.54-.16,2,2,0,0,0-2,1.08c-.55,1.22.43,2.72.82,3.15a2.25,2.25,0,0,1,.41.8,2,2,0,0,0-1.08.45A2.16,2.16,0,0,0,30,26a1.73,1.73,0,0,0-.16,1.65A8.14,8.14,0,0,0,25.3,31.2a2.9,2.9,0,0,1-1.24.86c-.53.25-1.13.54-1.19,1.22v.13A2,2,0,0,0,21.7,34.8a1.26,1.26,0,0,0-1.11.24c-.55.47-.63,1.27-.36,3.55.05.33.08.59.1.8a1.061,1.061,0,0,1,0,.27,4.34,4.34,0,0,0-.65,1,7.66,7.66,0,0,0-.42,2.76v.9a4,4,0,0,0-1.62,1.21l-.23.24c-.63.4-.92.37-1,.36-.24-.07-.5-.55-.71-.94a4.84,4.84,0,0,0-.58-.91,7.8,7.8,0,0,1-1.17-3,.94.94,0,0,0-1.82.45,9,9,0,0,0,1.6,3.77,3.3,3.3,0,0,1,.32.55,3.21,3.21,0,0,0,1.89,1.86,2.22,2.22,0,0,0,.57.07,3.62,3.62,0,0,0,1.92-.67,3.41,3.41,0,0,0,.59-.55c.24-.26.64-.7.92-.71s1-.2,1.14-1.31a11.31,11.31,0,0,0,.09-1.28,7.11,7.11,0,0,1,.23-2,1.51,1.51,0,0,1,.4-.6c.56-.45.5-.91.39-1.74,0-.2-.06-.45-.1-.78-.1-.79-.13-1.3-.14-1.61h0a1.61,1.61,0,0,0,1.49-1.29,1.15,1.15,0,0,1,.14-.32h.07a1.56,1.56,0,0,0,1-1.26l.18-.09a4.38,4.38,0,0,0,2-1.59c1-1.71,2.16-2.18,4-3a1.32,1.32,0,0,0,.83-1.2,2.59,2.59,0,0,0-.12-.78h.22a1.39,1.39,0,0,0,1-.4h.05a1.16,1.16,0,0,1,.42-.05,1.32,1.32,0,0,0,1.23-.8,3.33,3.33,0,0,0-.79-3.09,2.49,2.49,0,0,1-.5-1.08,1.36,1.36,0,0,1,.29,0h0a3.25,3.25,0,0,1,1,.1,3.2,3.2,0,0,0,.87.12h.13a2.72,2.72,0,0,0,.24,2.34,1.9,1.9,0,0,0,1.65.63h.07a1.68,1.68,0,0,0,.82,1.55,2.35,2.35,0,0,0,2.4,0,3.07,3.07,0,0,0,1.37-2.94c0-.32.08-.42.34-.71a2.71,2.71,0,0,0,.81-1.93,3,3,0,0,0-.21-1,1.52,1.52,0,0,1-.14-1,1.16,1.16,0,0,1,.59-.68.73.73,0,0,1,.46-.1,1.26,1.26,0,0,0,1.4-.16,1.23,1.23,0,0,0,.45-1.16.94.94,0,0,1,.12-.63A1.13,1.13,0,0,0,46,15.19ZM12.85,7.66a6.41,6.41,0,0,0-1.37,1.28m1.37-1.28-.11-.1c-.49-.47-.73-.7-.81-.94s-.06-.18.27-.54a3.93,3.93,0,0,0,.44-.55,1.61,1.61,0,0,0,.09-1.42A3,3,0,0,0,11.2,2.52h-.09a.79.79,0,0,1,.24-.35A2.28,2.28,0,0,1,13.05,2a7.47,7.47,0,0,1,1.44.85,4.16,4.16,0,0,0,1.92,1.92,2.4,2.4,0,0,0,1.82-.19,1.66,1.66,0,0,1,.73-.2.39.39,0,0,1,.33.15.74.74,0,0,1,0,.6c-.09.3-.25.4-.55.56a1.4,1.4,0,0,0-.82.94m-5.09,1-.11-.1c-.49-.47-.73-.7-.81-.94s-.06-.18.27-.54a3.93,3.93,0,0,0,.44-.55,1.61,1.61,0,0,0,.09-1.42A3,3,0,0,0,11.2,2.52h-.09a.79.79,0,0,1,.24-.35A2.28,2.28,0,0,1,13.05,2a7.47,7.47,0,0,1,1.44.85,4.16,4.16,0,0,0,1.92,1.92,2.4,2.4,0,0,0,1.82-.19,1.66,1.66,0,0,1,.73-.2.39.39,0,0,1,.33.15.74.74,0,0,1,0,.6c-.09.3-.25.4-.55.56a1.4,1.4,0,0,0-.82.94m-5.09,1-.11-.1c-.49-.47-.73-.7-.81-.94s-.06-.18.27-.54a3.93,3.93,0,0,0,.44-.55,1.61,1.61,0,0,0,.09-1.42A3,3,0,0,0,11.2,2.52h-.09a.79.79,0,0,1,.24-.35A2.28,2.28,0,0,1,13.05,2a7.47,7.47,0,0,1,1.44.85,4.16,4.16,0,0,0,1.92,1.92,2.4,2.4,0,0,0,1.82-.19,1.66,1.66,0,0,1,.73-.2.39.39,0,0,1,.33.15.74.74,0,0,1,0,.6c-.09.3-.25.4-.55.56a1.4,1.4,0,0,0-.82.94m-5.09,1-.11-.1c-.49-.47-.73-.7-.81-.94s-.06-.18.27-.54a3.93,3.93,0,0,0,.44-.55,1.61,1.61,0,0,0,.09-1.42A3,3,0,0,0,11.2,2.52h-.09a.79.79,0,0,1,.24-.35A2.28,2.28,0,0,1,13.05,2a7.47,7.47,0,0,1,1.44.85,4.16,4.16,0,0,0,1.92,1.92,2.4,2.4,0,0,0,1.82-.19,1.66,1.66,0,0,1,.73-.2.39.39,0,0,1,.33.15.74.74,0,0,1,0,.6c-.09.3-.25.4-.55.56a1.4,1.4,0,0,0-.82.94" fill="none"/>
      <g id="india">
        <g id="Group_838" data-name="Group 838">
          <path id="Path_846" data-name="Path 846" d="M20.82,3.42A2.29,2.29,0,0,0,19,2.48a3.46,3.46,0,0,0-1.55.36A1.7,1.7,0,0,1,17,3c-.06,0-.37-.18-1-1.19A6.64,6.64,0,0,0,13.52.17,4.24,4.24,0,0,0,12.67,0h-.43a3.94,3.94,0,0,0-2,.61,2.47,2.47,0,0,0-1,2.22,1.88,1.88,0,0,0,1.32,1.45,1.57,1.57,0,0,1,.37.4l-.12.13a2.25,2.25,0,0,0-.66,2.39,4.17,4.17,0,0,0,1.29,1.7h0a6.41,6.41,0,0,1,1.37-1.28l-.11-.1c-.49-.47-.73-.7-.81-.94s-.06-.18.27-.54a3.93,3.93,0,0,0,.44-.55,1.61,1.61,0,0,0,.09-1.42A3,3,0,0,0,11.2,2.52h-.09a.79.79,0,0,1,.24-.35A2.28,2.28,0,0,1,13.05,2a7.47,7.47,0,0,1,1.44.85,4.16,4.16,0,0,0,1.92,1.92,2.4,2.4,0,0,0,1.82-.19,1.66,1.66,0,0,1,.73-.2.39.39,0,0,1,.33.15.74.74,0,0,1,0,.6c-.09.3-.25.4-.55.56a1.4,1.4,0,0,0-.82.94,6.37,6.37,0,0,1,2.49,1,3.55,3.55,0,0,0-.3-.63,2.57,2.57,0,0,0,1-1.39A2.52,2.52,0,0,0,20.82,3.42ZM10.31,25.18a2.19,2.19,0,0,0-2.53.42l-.15.17c-.66.8-1,1-1.24.87A.64.64,0,0,1,6,26.23a.78.78,0,0,1,.06-.58,1.27,1.27,0,0,0,.12-1.18,2.08,2.08,0,0,0-1.66-1H4.33a.61.61,0,0,1-.48-.55.87.87,0,0,1,.3-.8,2.3,2.3,0,0,1,.69.1,2.17,2.17,0,0,0,2.53-.66c1.12-1.64-.06-3-.7-3.65-.2-.23-.58-.65-.58-.79a.09.09,0,0,1,0-.07c.58-1,1.08-.91,2-.62a2.88,2.88,0,0,0,.82.19,2,2,0,0,0,1.54-.76,9.7,9.7,0,0,1-.45-2.4,1.62,1.62,0,0,1,0-.22l-.08.14a7.22,7.22,0,0,1-1,1.36l-.26-.08a3.13,3.13,0,0,0-4.18,1.47c-.76,1.31.21,2.39.79,3,.78.87.76,1,.55,1.33a3.78,3.78,0,0,1-.57-.1,2.67,2.67,0,0,0-2,.1A2.65,2.65,0,0,0,2,23.1a2.44,2.44,0,0,0,1.85,2.13l.28.07h.06a2.85,2.85,0,0,0,0,1.42A2.54,2.54,0,0,0,5.51,28.3a2.19,2.19,0,0,0,1,.26A3.58,3.58,0,0,0,9.08,27l.1-.11a.7.7,0,0,1,.53.12.62.62,0,0,1,.24.65,2.8,2.8,0,0,1-.59,1.05,3.13,3.13,0,0,0-.8,1.79A18.72,18.72,0,0,0,8.8,34a.94.94,0,1,0,1.83-.39,17.16,17.16,0,0,1-.2-3.12,4.23,4.23,0,0,1,.44-.69,4.11,4.11,0,0,0,.93-2,2.48,2.48,0,0,0-1.49-2.62ZM46,15.19h0a1.46,1.46,0,0,0-1.12-.86l-.22-.08A2.85,2.85,0,0,0,44,13.2a1.59,1.59,0,0,0-1.22-.57,1.23,1.23,0,0,0-.93.4,6,6,0,0,1-1,0,5.11,5.11,0,0,0-2.52.89l-.84.44a2.08,2.08,0,0,0-1,2.1A10.42,10.42,0,0,1,34.55,16v-.07a2.61,2.61,0,0,0-3.17-1.88c-1.5.24-1.57,1.72-1.6,2.35v.29a1.86,1.86,0,0,1-1.49-.39,3,3,0,0,0-1.77-.3,5.08,5.08,0,0,1-.78,0,.92.92,0,0,0-.67-.44l-.7-.08a6.89,6.89,0,0,1-1.42-.23A10,10,0,0,1,22.32,17a10.08,10.08,0,0,0,1.81.31h.24a2.88,2.88,0,0,0,2.16.53,3.47,3.47,0,0,1,.72,0c1.68,1.08,3.28.81,4,0a2.18,2.18,0,0,0,.39-1.38,3,3,0,0,1,.06-.59c.77-.11.86.11,1.08.7a1.61,1.61,0,0,0,.93,1.1,8.66,8.66,0,0,0,3.73.62,1.14,1.14,0,0,0,.94-1,3.53,3.53,0,0,0,0-.65,2.08,2.08,0,0,1,0-.61l.88-.46a4.61,4.61,0,0,1,1.56-.67,3.87,3.87,0,0,0,2-.25l.08.1a1.55,1.55,0,0,0,.66,1,2.06,2.06,0,0,0,.42.21l-.06.28a2.71,2.71,0,0,0-1.15.32,3,3,0,0,0-1.53,1.86,3.32,3.32,0,0,0,.17,2,2.64,2.64,0,0,1,.12.4c0,.29-.08.39-.35.7a2.66,2.66,0,0,0-.8,2,1.29,1.29,0,0,1-.46,1.25.62.62,0,0,1-.38.07A1.83,1.83,0,0,0,39,23.56a1.92,1.92,0,0,0-1.52-.5h-.15a4.94,4.94,0,0,1,.16-1,1.52,1.52,0,0,0-.24-1.38,1.94,1.94,0,0,0-1.66-.57h-.1a1.29,1.29,0,0,1-.4-.06,5.05,5.05,0,0,0-1.54-.16,2,2,0,0,0-2,1.08c-.55,1.22.43,2.72.82,3.15a2.25,2.25,0,0,1,.41.8,2,2,0,0,0-1.08.45A2.16,2.16,0,0,0,30,26a1.73,1.73,0,0,0-.16,1.65A8.14,8.14,0,0,0,25.3,31.2a2.9,2.9,0,0,1-1.24.86c-.53.25-1.13.54-1.19,1.22v.13A2,2,0,0,0,21.7,34.8a1.26,1.26,0,0,0-1.11.24c-.55.47-.63,1.27-.36,3.55.05.33.08.59.1.8a1.061,1.061,0,0,1,0,.27,4.34,4.34,0,0,0-.65,1,7.66,7.66,0,0,0-.42,2.76v.9a4,4,0,0,0-1.62,1.21l-.23.24c-.63.4-.92.37-1,.36-.24-.07-.5-.55-.71-.94a4.84,4.84,0,0,0-.58-.91,7.8,7.8,0,0,1-1.17-3,.94.94,0,0,0-1.82.45,9,9,0,0,0,1.6,3.77,3.3,3.3,0,0,1,.32.55,3.21,3.21,0,0,0,1.89,1.86,2.22,2.22,0,0,0,.57.07,3.62,3.62,0,0,0,1.92-.67,3.41,3.41,0,0,0,.59-.55c.24-.26.64-.7.92-.71s1-.2,1.14-1.31a11.31,11.31,0,0,0,.09-1.28,7.11,7.11,0,0,1,.23-2,1.51,1.51,0,0,1,.4-.6c.56-.45.5-.91.39-1.74,0-.2-.06-.45-.1-.78-.1-.79-.13-1.3-.14-1.61h0a1.61,1.61,0,0,0,1.49-1.29,1.15,1.15,0,0,1,.14-.32h.07a1.56,1.56,0,0,0,1-1.26l.18-.09a4.38,4.38,0,0,0,2-1.59c1-1.71,2.16-2.18,4-3a1.32,1.32,0,0,0,.83-1.2,2.59,2.59,0,0,0-.12-.78h.22a1.39,1.39,0,0,0,1-.4h.05a1.16,1.16,0,0,1,.42-.05,1.32,1.32,0,0,0,1.23-.8,3.33,3.33,0,0,0-.79-3.09,2.49,2.49,0,0,1-.5-1.08,1.36,1.36,0,0,1,.29,0h0a3.25,3.25,0,0,1,1,.1,3.2,3.2,0,0,0,.87.12h.13a2.72,2.72,0,0,0,.24,2.34,1.9,1.9,0,0,0,1.65.63h.07a1.68,1.68,0,0,0,.82,1.55,2.35,2.35,0,0,0,2.4,0,3.07,3.07,0,0,0,1.37-2.94c0-.32.08-.42.34-.71a2.71,2.71,0,0,0,.81-1.93,3,3,0,0,0-.21-1,1.52,1.52,0,0,1-.14-1,1.16,1.16,0,0,1,.59-.68.73.73,0,0,1,.46-.1,1.26,1.26,0,0,0,1.4-.16,1.23,1.23,0,0,0,.45-1.16.94.94,0,0,1,.12-.63A1.13,1.13,0,0,0,46,15.19Z" fill="#e97f17"/>
          <path id="Path_937" data-name="Path 937" d="M12.48,37.58a.94.94,0,1,1-.94-.93.94.94,0,0,1,.94.93Z" fill="#e97f17"/>
        </g>
      </g>
    </g>
    <g id="Group_892-2" data-name="Group 892">
      <g id="india-2" data-name="india">
        <g id="Group_838-2" data-name="Group 838">
          <path id="Path_847" data-name="Path 847" d="M18.6,11.14a2.85,2.85,0,0,0-2-.83,2.82,2.82,0,1,0,2.82,2.82,2.85,2.85,0,0,0-.82-1.99Zm-2,2.92a.94.94,0,1,1,.94-.93.93.93,0,0,1-.93.93Z" fill="#e97f17"/>
        </g>
      </g>
    </g>
    <path id="Path_927" data-name="Path 927" d="M16.73,22.63c-1.35,0-3.07-1.6-4.22-3.09A10.59,10.59,0,0,1,10,13.41a6.61,6.61,0,0,1,3.63-6.24,7,7,0,0,1,3.06-.64A6.28,6.28,0,0,1,21.4,8.37a7.05,7.05,0,0,1,1.78,5,10.85,10.85,0,0,1-2.33,6.12C20.31,20.25,18.43,22.63,16.73,22.63Zm0-14.11a5,5,0,0,0-2.1.4h0a4.6,4.6,0,0,0-2.56,4.48,8.71,8.71,0,0,0,2,4.83,6.84,6.84,0,0,0,2.69,2.4,6.61,6.61,0,0,0,2.56-2.39,8.84,8.84,0,0,0,1.87-4.84c0-3.11-1.62-4.89-4.43-4.89Z" fill="#e97f17"/>
  </g>
</svg>
