<svg id="business_structuring_grey-48px" xmlns="http://www.w3.org/2000/svg" width="47.998" height="48" viewBox="0 0 47.998 48">
  <g id="Group_829" data-name="Group 829" transform="translate(27.826 1.969)">
    <g id="Group_828" data-name="Group 828">
      <path id="Path_841" data-name="Path 841" d="M298.472,21.326l-.053-.053A.938.938,0,0,0,297.1,22.6l.041.041a.937.937,0,0,0,1.333-1.318Z" transform="translate(-296.821 -21)" fill="#a1a1a1"/>
    </g>
  </g>
  <g id="Group_831" data-name="Group 831" transform="translate(0)">
    <g id="Group_830" data-name="Group 830">
      <path id="Path_842" data-name="Path 842" d="M42.382,20.317V18.06a.938.938,0,0,0-.938-.938h-16.5V15.315A7.692,7.692,0,0,0,31.45,5.757a.938.938,0,0,0-1.815.47,5.82,5.82,0,0,1-.412,4.023,3.032,3.032,0,0,0-1.951-1.274l-.111-.021a3.225,3.225,0,0,0,.073-.682V6.784a3.227,3.227,0,1,0-6.453,0v1.49a3.226,3.226,0,0,0,.073.682l-.111.021a3.032,3.032,0,0,0-1.951,1.273,5.815,5.815,0,0,1,6.691-8.186A.938.938,0,0,0,25.957.25,7.687,7.687,0,1,0,23.07,15.315v1.807H18.382a.938.938,0,0,0,0,1.875H40.507v1.32a6.576,6.576,0,0,0-5.557,5.557H30.5a6.561,6.561,0,0,0-12.988,0H13.065a6.576,6.576,0,0,0-5.557-5.557V19H11.1a.938.938,0,0,0,0-1.875H6.57a.938.938,0,0,0-.937.938v2.258a6.562,6.562,0,1,0,7.432,7.432h4.448a6.561,6.561,0,0,0,12.988,0H34.95a6.562,6.562,0,1,0,7.432-7.432ZM22.655,6.784a1.352,1.352,0,1,1,2.7,0v1.49a1.352,1.352,0,0,1-2.7,0V6.784Zm-2.518,5.235v-.058a1.162,1.162,0,0,1,.949-1.142l.77-.144a3.219,3.219,0,0,0,4.3,0l.77.144a1.162,1.162,0,0,1,.949,1.142v.059a5.8,5.8,0,0,1-7.739,0ZM6.57,31.5A4.666,4.666,0,0,1,3.5,30.351a.812.812,0,0,1,.662-.776l.568-.106a2.837,2.837,0,0,0,3.675,0l.568.106a.811.811,0,0,1,.662.776A4.666,4.666,0,0,1,6.57,31.5ZM5.6,27.3V26.059a.97.97,0,0,1,1.94,0V27.3a.97.97,0,0,1-1.94,0Zm5.283,1.346a2.681,2.681,0,0,0-1.5-.9,2.853,2.853,0,0,0,.035-.445V26.059a2.845,2.845,0,1,0-5.69,0V27.3a2.852,2.852,0,0,0,.035.445,2.68,2.68,0,0,0-1.5.9,4.687,4.687,0,1,1,8.627,0ZM24.007,31.5a4.666,4.666,0,0,1-3.068-1.148.812.812,0,0,1,.662-.776l.568-.106a2.837,2.837,0,0,0,3.675,0l.568.106a.811.811,0,0,1,.662.776A4.665,4.665,0,0,1,24.007,31.5Zm-.97-4.2V26.059a.97.97,0,0,1,1.94,0V27.3a.97.97,0,1,1-1.94,0Zm5.283,1.346a2.681,2.681,0,0,0-1.5-.9,2.853,2.853,0,0,0,.035-.445V26.059a2.845,2.845,0,1,0-5.69,0V27.3a2.852,2.852,0,0,0,.035.445,2.68,2.68,0,0,0-1.5.9,4.659,4.659,0,0,1-.374-1.831v0a4.687,4.687,0,1,1,9,1.836ZM41.444,31.5a4.666,4.666,0,0,1-3.067-1.148.812.812,0,0,1,.662-.776l.568-.106a2.837,2.837,0,0,0,3.675,0l.568.106a.812.812,0,0,1,.662.776A4.666,4.666,0,0,1,41.444,31.5Zm-.97-4.2V26.059a.97.97,0,1,1,1.94,0V27.3a.97.97,0,1,1-1.94,0Zm5.283,1.346a2.681,2.681,0,0,0-1.5-.9,2.853,2.853,0,0,0,.035-.445V26.059a2.845,2.845,0,1,0-5.69,0V27.3a2.853,2.853,0,0,0,.035.445,2.68,2.68,0,0,0-1.5.9,4.687,4.687,0,1,1,8.627,0Z" transform="translate(-0.008)" fill="#a1a1a1"/>
    </g>
  </g>
  <g id="Group_833" data-name="Group 833" transform="translate(8.718 30.28)">
    <g id="Group_832" data-name="Group 832">
      <path id="Path_843" data-name="Path 843" d="M100.5,327.651v-3.726a.937.937,0,1,0-1.875,0v3.726a6.562,6.562,0,1,0,1.875,0Zm-.937,11.182a4.665,4.665,0,0,1-3.068-1.148.812.812,0,0,1,.662-.776l.568-.106a2.837,2.837,0,0,0,3.675,0l.568.106a.811.811,0,0,1,.662.776A4.666,4.666,0,0,1,99.566,338.833Zm-.97-4.2v-1.241a.97.97,0,0,1,1.94,0v1.241a.97.97,0,1,1-1.94,0Zm5.284,1.346a2.681,2.681,0,0,0-1.5-.9,2.851,2.851,0,0,0,.035-.445v-1.241a2.845,2.845,0,0,0-5.69,0v1.241a2.849,2.849,0,0,0,.035.445,2.681,2.681,0,0,0-1.5.9,4.687,4.687,0,1,1,8.627,0Z" transform="translate(-93.004 -322.988)" fill="#a1a1a1"/>
    </g>
  </g>
  <g id="Group_835" data-name="Group 835" transform="translate(26.155 30.28)">
    <g id="Group_834" data-name="Group 834">
      <path id="Path_844" data-name="Path 844" d="M286.5,327.651v-3.726a.938.938,0,0,0-1.875,0v3.726a6.562,6.562,0,1,0,1.875,0Zm-.937,11.182a4.665,4.665,0,0,1-3.068-1.148.811.811,0,0,1,.662-.776l.568-.106a2.837,2.837,0,0,0,3.675,0l.568.106a.811.811,0,0,1,.662.776A4.666,4.666,0,0,1,285.56,338.833Zm-.97-4.2v-1.241a.97.97,0,0,1,1.94,0v1.241a.97.97,0,1,1-1.94,0Zm5.284,1.346a2.68,2.68,0,0,0-1.5-.9,2.856,2.856,0,0,0,.035-.445v-1.241a2.845,2.845,0,0,0-5.69,0v1.241a2.852,2.852,0,0,0,.035.445,2.679,2.679,0,0,0-1.5.9,4.687,4.687,0,1,1,8.627,0Z" transform="translate(-278.997 -322.988)" fill="#a1a1a1"/>
    </g>
  </g>
  <g id="Group_837" data-name="Group 837" transform="translate(14.031 17.122)">
    <g id="Group_836" data-name="Group 836">
      <path id="Path_845" data-name="Path 845" d="M151.272,182.907a.938.938,0,1,0,.275.664A.945.945,0,0,0,151.272,182.907Z" transform="translate(-149.672 -182.632)" fill="#a1a1a1"/>
    </g>
  </g>
</svg>
