<svg id="business_structuring_white-32px" xmlns="http://www.w3.org/2000/svg" width="31.999" height="32" viewBox="0 0 31.999 32">
  <g id="Group_829" data-name="Group 829" transform="translate(18.551 1.313)">
    <g id="Group_828" data-name="Group 828">
      <path id="Path_841" data-name="Path 841" d="M297.922,21.217l-.035-.035a.625.625,0,0,0-.881.886l.027.028a.625.625,0,0,0,.889-.879Z" transform="translate(-296.821 -21)" fill="#fff"/>
    </g>
  </g>
  <g id="Group_831" data-name="Group 831" transform="translate(0)">
    <g id="Group_830" data-name="Group 830">
      <path id="Path_842" data-name="Path 842" d="M28.257,13.545V12.04a.625.625,0,0,0-.625-.625h-11v-1.2a5.128,5.128,0,0,0,4.337-6.372.625.625,0,0,0-1.21.313,3.88,3.88,0,0,1-.275,2.682,2.021,2.021,0,0,0-1.3-.849l-.074-.014a2.15,2.15,0,0,0,.049-.455V4.523a2.151,2.151,0,1,0-4.3,0v.993a2.151,2.151,0,0,0,.049.455l-.074.014a2.022,2.022,0,0,0-1.3.849,3.877,3.877,0,0,1,4.461-5.457A.625.625,0,0,0,17.307.166,5.125,5.125,0,1,0,15.382,10.21v1.2H12.257a.625.625,0,0,0,0,1.25h14.75v.88a4.384,4.384,0,0,0-3.7,3.7H20.337a4.374,4.374,0,0,0-8.659,0H8.712a4.384,4.384,0,0,0-3.7-3.7v-.88H7.4a.625.625,0,0,0,0-1.25H4.383a.625.625,0,0,0-.625.625v1.505A4.375,4.375,0,1,0,8.712,18.5h2.965a4.374,4.374,0,0,0,8.659,0H23.3a4.375,4.375,0,1,0,4.955-4.954ZM15.106,4.523a.9.9,0,1,1,1.8,0v.993a.9.9,0,0,1-1.8,0V4.523Zm-1.679,3.49V7.974a.775.775,0,0,1,.632-.761l.513-.1a2.146,2.146,0,0,0,2.868,0l.513.1a.775.775,0,0,1,.632.761v.039a3.865,3.865,0,0,1-5.159,0ZM4.383,21a3.11,3.11,0,0,1-2.045-.765.541.541,0,0,1,.441-.517l.378-.071a1.891,1.891,0,0,0,2.45,0l.378.071a.541.541,0,0,1,.441.518A3.11,3.11,0,0,1,4.383,21Zm-.647-2.8v-.827a.647.647,0,0,1,1.294,0V18.2a.647.647,0,0,1-1.294,0Zm3.522.9a1.787,1.787,0,0,0-1-.6,1.9,1.9,0,0,0,.023-.3v-.827a1.9,1.9,0,1,0-3.793,0V18.2a1.9,1.9,0,0,0,.023.3,1.787,1.787,0,0,0-1,.6,3.125,3.125,0,1,1,5.751,0ZM16.007,21a3.11,3.11,0,0,1-2.045-.765.541.541,0,0,1,.441-.517l.378-.071a1.891,1.891,0,0,0,2.45,0l.378.071a.541.541,0,0,1,.441.518A3.11,3.11,0,0,1,16.007,21Zm-.647-2.8v-.827a.647.647,0,1,1,1.293,0V18.2a.647.647,0,1,1-1.293,0Zm3.522.9a1.787,1.787,0,0,0-1-.6,1.9,1.9,0,0,0,.023-.3v-.827a1.9,1.9,0,1,0-3.793,0V18.2a1.9,1.9,0,0,0,.023.3,1.787,1.787,0,0,0-1,.6,3.106,3.106,0,0,1-.249-1.221v0a3.125,3.125,0,1,1,6,1.224ZM27.632,21a3.11,3.11,0,0,1-2.045-.765.541.541,0,0,1,.441-.517l.378-.071a1.891,1.891,0,0,0,2.45,0l.378.071a.541.541,0,0,1,.441.518A3.11,3.11,0,0,1,27.632,21Zm-.647-2.8v-.827a.647.647,0,1,1,1.293,0V18.2a.647.647,0,1,1-1.293,0Zm3.522.9a1.787,1.787,0,0,0-1-.6,1.9,1.9,0,0,0,.023-.3v-.827a1.9,1.9,0,1,0-3.793,0V18.2a1.9,1.9,0,0,0,.023.3,1.787,1.787,0,0,0-1,.6,3.125,3.125,0,1,1,5.751,0Z" transform="translate(-0.008)" fill="#fff"/>
    </g>
  </g>
  <g id="Group_833" data-name="Group 833" transform="translate(5.812 20.187)">
    <g id="Group_832" data-name="Group 832">
      <path id="Path_843" data-name="Path 843" d="M98,326.1v-2.484a.625.625,0,1,0-1.25,0V326.1a4.375,4.375,0,1,0,1.25,0Zm-.625,7.454a3.11,3.11,0,0,1-2.045-.765.541.541,0,0,1,.441-.517l.378-.071a1.891,1.891,0,0,0,2.45,0l.378.071a.541.541,0,0,1,.441.518A3.111,3.111,0,0,1,97.379,333.551Zm-.647-2.8v-.827a.647.647,0,0,1,1.294,0v.828a.647.647,0,1,1-1.294,0Zm3.522.9a1.787,1.787,0,0,0-1-.6,1.9,1.9,0,0,0,.023-.3v-.828a1.9,1.9,0,0,0-3.793,0v.828a1.9,1.9,0,0,0,.023.3,1.787,1.787,0,0,0-1,.6,3.125,3.125,0,1,1,5.751,0Z" transform="translate(-93.004 -322.988)" fill="#fff"/>
    </g>
  </g>
  <g id="Group_835" data-name="Group 835" transform="translate(17.437 20.187)">
    <g id="Group_834" data-name="Group 834">
      <path id="Path_844" data-name="Path 844" d="M284,326.1v-2.484a.625.625,0,0,0-1.25,0V326.1a4.374,4.374,0,1,0,1.25,0Zm-.625,7.454a3.11,3.11,0,0,1-2.045-.765.541.541,0,0,1,.441-.517l.378-.071a1.891,1.891,0,0,0,2.45,0l.378.071a.541.541,0,0,1,.441.518A3.111,3.111,0,0,1,283.372,333.551Zm-.647-2.8v-.827a.647.647,0,0,1,1.293,0v.828a.647.647,0,1,1-1.293,0Zm3.522.9a1.787,1.787,0,0,0-1-.6,1.9,1.9,0,0,0,.023-.3v-.828a1.9,1.9,0,0,0-3.793,0v.828a1.9,1.9,0,0,0,.023.3,1.786,1.786,0,0,0-1,.6,3.125,3.125,0,1,1,5.751,0Z" transform="translate(-278.997 -322.988)" fill="#fff"/>
    </g>
  </g>
  <g id="Group_837" data-name="Group 837" transform="translate(9.354 11.415)">
    <g id="Group_836" data-name="Group 836">
      <path id="Path_845" data-name="Path 845" d="M150.739,182.815a.625.625,0,1,0,.183.442A.63.63,0,0,0,150.739,182.815Z" transform="translate(-149.672 -182.632)" fill="#fff"/>
    </g>
  </g>
</svg>
