<svg id="business_india_grey-32px" xmlns="http://www.w3.org/2000/svg" width="32" height="32" viewBox="0 0 32 32">
  <g id="Layer_1" data-name="Layer 1">
    <rect id="Rectangle_1036" data-name="Rectangle 1036" width="32" height="32" fill="none"/>
    <g id="Group_892" data-name="Group 892" transform="translate(1.316)">
      <path id="Path_936" data-name="Path 936" d="M7.324,8.793a1.08,1.08,0,0,0,0,.147,6.467,6.467,0,0,0,.3,1.6m-.3-1.747a1.08,1.08,0,0,0,0,.147,6.467,6.467,0,0,0,.3,1.6M9.2,5.107,9.124,5.04c-.327-.313-.487-.467-.54-.627s-.04-.12.18-.36a2.62,2.62,0,0,0,.293-.367,1.073,1.073,0,0,0,.06-.947,2,2,0,0,0-.993-1.06h-.06a.527.527,0,0,1,.16-.233,1.52,1.52,0,0,1,1.133-.113,4.98,4.98,0,0,1,.96.567A2.773,2.773,0,0,0,11.6,3.18a1.6,1.6,0,0,0,1.213-.127A1.107,1.107,0,0,1,13.3,2.92a.26.26,0,0,1,.22.1.493.493,0,0,1,0,.4c-.06.2-.167.267-.367.373a.933.933,0,0,0-.547.627m1.66.667A4.247,4.247,0,0,0,12.6,4.42m-4.267,20a81.164,81.164,0,1,1,.013.013Zm-.807-7.633a1.46,1.46,0,0,0-1.687.28l-.1.113c-.44.533-.667.667-.827.58a.427.427,0,0,1-.26-.273A.52.52,0,0,1,4.7,17.1a.847.847,0,0,0,.08-.787,1.387,1.387,0,0,0-1.107-.667H3.544a.407.407,0,0,1-.32-.367.58.58,0,0,1,.2-.533,1.533,1.533,0,0,1,.46.067,1.447,1.447,0,0,0,1.687-.44A1.822,1.822,0,0,0,5.1,11.94c-.133-.153-.387-.433-.387-.527a.06.06,0,0,1,0-.047c.387-.667.72-.607,1.333-.413a1.92,1.92,0,0,0,.547.127,1.333,1.333,0,0,0,1.027-.507,6.467,6.467,0,0,1-.3-1.6,1.08,1.08,0,0,1,0-.147l-.053.093a4.813,4.813,0,0,1-.667.907l-.173-.053a2.087,2.087,0,0,0-2.787.98,1.628,1.628,0,0,0,.527,2c.52.58.507.667.367.887a2.52,2.52,0,0,1-.38-.067,1.78,1.78,0,0,0-1.333.067,1.767,1.767,0,0,0-.833,1.76,1.627,1.627,0,0,0,1.233,1.42l.187.047h.04a1.9,1.9,0,0,0,0,.947,1.693,1.693,0,0,0,.88,1.053A1.46,1.46,0,0,0,5,19.04,2.387,2.387,0,0,0,6.711,18l.067-.073a.467.467,0,0,1,.353.08.413.413,0,0,1,.16.433,1.867,1.867,0,0,1-.393.7,2.087,2.087,0,0,0-.533,1.193,12.48,12.48,0,0,0,.16,2.333.627.627,0,1,0,1.22-.26,11.44,11.44,0,0,1-.133-2.08,2.82,2.82,0,0,1,.293-.46,2.74,2.74,0,0,0,.62-1.333A1.653,1.653,0,0,0,7.531,16.787ZM14.538,2.28a1.527,1.527,0,0,0-1.213-.627,2.307,2.307,0,0,0-1.033.24,1.133,1.133,0,0,1-.3.107c-.04,0-.247-.12-.667-.793A4.427,4.427,0,0,0,9.671.113,2.827,2.827,0,0,0,9.1,0H8.818A2.627,2.627,0,0,0,7.484.407a1.647,1.647,0,0,0-.667,1.48,1.253,1.253,0,0,0,.88.967,1.047,1.047,0,0,1,.247.267l-.08.087A1.5,1.5,0,0,0,7.424,4.8a2.78,2.78,0,0,0,.86,1.133h0A4.273,4.273,0,0,1,9.2,5.08l-.073-.067c-.327-.313-.487-.467-.54-.627s-.04-.12.18-.36a2.62,2.62,0,0,0,.293-.367,1.073,1.073,0,0,0,.06-.947A2,2,0,0,0,8.124,1.68h-.06a.527.527,0,0,1,.16-.233,1.52,1.52,0,0,1,1.133-.113,4.98,4.98,0,0,1,.96.567A2.773,2.773,0,0,0,11.6,3.18a1.6,1.6,0,0,0,1.213-.127A1.107,1.107,0,0,1,13.3,2.92a.26.26,0,0,1,.22.1.493.493,0,0,1,0,.4c-.06.2-.167.267-.367.373a.933.933,0,0,0-.547.627,4.247,4.247,0,0,1,1.66.667,2.367,2.367,0,0,0-.2-.42,1.713,1.713,0,0,0,.667-.927A1.68,1.68,0,0,0,14.538,2.28Zm16.787,7.847h0a.973.973,0,0,0-.747-.573L30.431,9.5a1.9,1.9,0,0,0-.44-.7,1.06,1.06,0,0,0-.813-.38.82.82,0,0,0-.62.267,4,4,0,0,1-.667,0,3.407,3.407,0,0,0-1.68.593l-.56.293a1.387,1.387,0,0,0-.667,1.4,6.947,6.947,0,0,1-1.293-.307V10.62a1.74,1.74,0,0,0-2.113-1.253c-1,.16-1.047,1.147-1.067,1.567v.193a1.24,1.24,0,0,1-.993-.26,2,2,0,0,0-1.18-.2,3.386,3.386,0,0,1-.52,0,.613.613,0,0,0-.447-.293L16.9,10.32a4.593,4.593,0,0,1-.947-.153,6.667,6.667,0,0,1-.42,1.167,6.72,6.72,0,0,0,1.207.207h.16a1.92,1.92,0,0,0,1.44.353,2.313,2.313,0,0,1,.48,0,2.07,2.07,0,0,0,2.667,0,1.453,1.453,0,0,0,.26-.92,2,2,0,0,1,.04-.393c.513-.073.573.073.72.467a1.073,1.073,0,0,0,.62.733,5.773,5.773,0,0,0,2.487.413.76.76,0,0,0,.627-.667,2.354,2.354,0,0,0,0-.433,1.387,1.387,0,0,1,0-.407l.587-.307a3.073,3.073,0,0,1,1.04-.447A2.58,2.58,0,0,0,29.2,9.767l.053.067a1.033,1.033,0,0,0,.44.667,1.373,1.373,0,0,0,.28.14l-.04.187a1.807,1.807,0,0,0-.767.213,2,2,0,0,0-1.02,1.24,2.213,2.213,0,0,0,.113,1.333,1.76,1.76,0,0,1,.08.267c0,.193-.053.26-.233.467a1.773,1.773,0,0,0-.533,1.333.86.86,0,0,1-.307.833.413.413,0,0,1-.253.047,1.22,1.22,0,0,0-.36-.853,1.28,1.28,0,0,0-1.013-.333h-.1a3.293,3.293,0,0,1,.107-.667,1.013,1.013,0,0,0-.16-.92,1.293,1.293,0,0,0-1.107-.38h-.067a.86.86,0,0,1-.267-.04,3.367,3.367,0,0,0-1.027-.107,1.333,1.333,0,0,0-1.333.72,2.235,2.235,0,0,0,.547,2.1,1.5,1.5,0,0,1,.273.533,1.333,1.333,0,0,0-.72.3,1.44,1.44,0,0,0-1.133.42,1.153,1.153,0,0,0-.107,1.1A5.427,5.427,0,0,0,17.524,20.8a1.933,1.933,0,0,1-.827.573c-.353.167-.753.36-.793.813v.087a1.333,1.333,0,0,0-.78.927.84.84,0,0,0-.74.16c-.367.313-.42.847-.24,2.367.033.22.053.393.067.533a.708.708,0,0,1,0,.18,2.893,2.893,0,0,0-.433.667,5.107,5.107,0,0,0-.28,1.84v.6a2.667,2.667,0,0,0-1.08.807l-.153.16c-.42.267-.613.247-.667.24-.16-.047-.333-.367-.473-.627a3.227,3.227,0,0,0-.387-.607,5.2,5.2,0,0,1-.78-2,.627.627,0,0,0-1.213.3,6,6,0,0,0,1.067,2.513,2.2,2.2,0,0,1,.213.367,2.14,2.14,0,0,0,1.26,1.24,1.48,1.48,0,0,0,.38.047,2.413,2.413,0,0,0,1.28-.447,2.274,2.274,0,0,0,.393-.367c.16-.173.427-.467.613-.473s.667-.133.76-.873a7.54,7.54,0,0,0,.06-.853,4.74,4.74,0,0,1,.153-1.333,1.007,1.007,0,0,1,.267-.4c.373-.3.333-.607.26-1.16,0-.133-.04-.3-.067-.52-.067-.527-.087-.867-.093-1.073h0a1.073,1.073,0,0,0,.993-.86.767.767,0,0,1,.093-.213h.047a1.04,1.04,0,0,0,.667-.84l.12-.06a2.92,2.92,0,0,0,1.333-1.06,4.719,4.719,0,0,1,2.667-2,.88.88,0,0,0,.553-.8,1.727,1.727,0,0,0-.08-.52h.147a.927.927,0,0,0,.667-.267h.033a.773.773,0,0,1,.28-.033.88.88,0,0,0,.82-.533,2.22,2.22,0,0,0-.527-2.06,1.66,1.66,0,0,1-.333-.72.907.907,0,0,1,.193,0h0a2.167,2.167,0,0,1,.667.067,2.133,2.133,0,0,0,.58.08H24.3a1.813,1.813,0,0,0,.16,1.56,1.267,1.267,0,0,0,1.1.42H25.6a1.12,1.12,0,0,0,.547,1.033,1.567,1.567,0,0,0,1.6,0,2.047,2.047,0,0,0,.913-1.96c0-.213.053-.28.227-.473a1.807,1.807,0,0,0,.54-1.287,2,2,0,0,0-.14-.667,1.013,1.013,0,0,1-.093-.667.773.773,0,0,1,.393-.453.487.487,0,0,1,.307-.067A.84.84,0,0,0,30.831,12a.82.82,0,0,0,.3-.773.627.627,0,0,1,.08-.42A.753.753,0,0,0,31.324,10.127Zm-22.1-5.02a4.273,4.273,0,0,0-.913.853m.913-.853L9.151,5.04c-.327-.313-.487-.467-.54-.627s-.04-.12.18-.36a2.62,2.62,0,0,0,.293-.367,1.073,1.073,0,0,0,.06-.947,2,2,0,0,0-1.02-1.06h-.06a.527.527,0,0,1,.16-.233,1.52,1.52,0,0,1,1.133-.113,4.98,4.98,0,0,1,.96.567A2.773,2.773,0,0,0,11.6,3.18a1.6,1.6,0,0,0,1.213-.127A1.107,1.107,0,0,1,13.3,2.92a.26.26,0,0,1,.22.1.493.493,0,0,1,0,.4c-.06.2-.167.267-.367.373a.933.933,0,0,0-.547.627m-3.393.667L9.138,5.02c-.327-.313-.487-.467-.54-.627s-.04-.12.18-.36a2.62,2.62,0,0,0,.293-.367,1.073,1.073,0,0,0,.06-.947A2,2,0,0,0,8.124,1.68h-.06a.527.527,0,0,1,.16-.233,1.52,1.52,0,0,1,1.133-.113,4.98,4.98,0,0,1,.96.567A2.773,2.773,0,0,0,11.6,3.18a1.6,1.6,0,0,0,1.213-.127A1.107,1.107,0,0,1,13.3,2.92a.26.26,0,0,1,.22.1.493.493,0,0,1,0,.4c-.06.2-.167.267-.367.373a.933.933,0,0,0-.547.627m-3.393.667L9.138,5.02c-.327-.313-.487-.467-.54-.627s-.04-.12.18-.36a2.62,2.62,0,0,0,.293-.367,1.073,1.073,0,0,0,.06-.947A2,2,0,0,0,8.124,1.68h-.06a.527.527,0,0,1,.16-.233,1.52,1.52,0,0,1,1.133-.113,4.98,4.98,0,0,1,.96.567A2.773,2.773,0,0,0,11.6,3.18a1.6,1.6,0,0,0,1.213-.127A1.107,1.107,0,0,1,13.3,2.92a.26.26,0,0,1,.22.1.493.493,0,0,1,0,.4c-.06.2-.167.267-.367.373a.933.933,0,0,0-.547.627m-3.393.667L9.138,5.02c-.327-.313-.487-.467-.54-.627s-.04-.12.18-.36a2.62,2.62,0,0,0,.293-.367,1.073,1.073,0,0,0,.06-.947A2,2,0,0,0,8.124,1.68h-.06a.527.527,0,0,1,.16-.233,1.52,1.52,0,0,1,1.133-.113,4.98,4.98,0,0,1,.96.567A2.773,2.773,0,0,0,11.6,3.18a1.6,1.6,0,0,0,1.213-.127A1.107,1.107,0,0,1,13.3,2.92a.26.26,0,0,1,.22.1.493.493,0,0,1,0,.4c-.06.2-.167.267-.367.373a.933.933,0,0,0-.547.627" transform="translate(-1.973)" fill="none"/>
      <g id="india">
        <g id="Group_838" data-name="Group 838">
          <path id="Path_846" data-name="Path 846" d="M14.538,2.28a1.527,1.527,0,0,0-1.213-.627,2.307,2.307,0,0,0-1.033.24,1.133,1.133,0,0,1-.3.107c-.04,0-.247-.12-.667-.793A4.427,4.427,0,0,0,9.671.113,2.827,2.827,0,0,0,9.1,0H8.818A2.627,2.627,0,0,0,7.484.407a1.647,1.647,0,0,0-.667,1.48,1.253,1.253,0,0,0,.88.967,1.047,1.047,0,0,1,.247.267l-.08.087A1.5,1.5,0,0,0,7.424,4.8a2.78,2.78,0,0,0,.86,1.133h0A4.273,4.273,0,0,1,9.2,5.08l-.073-.067c-.327-.313-.487-.467-.54-.627s-.04-.12.18-.36a2.62,2.62,0,0,0,.293-.367,1.073,1.073,0,0,0,.06-.947A2,2,0,0,0,8.124,1.68h-.06a.527.527,0,0,1,.16-.233,1.52,1.52,0,0,1,1.133-.113,4.98,4.98,0,0,1,.96.567A2.773,2.773,0,0,0,11.6,3.18a1.6,1.6,0,0,0,1.213-.127A1.107,1.107,0,0,1,13.3,2.92a.26.26,0,0,1,.22.1.493.493,0,0,1,0,.4c-.06.2-.167.267-.367.373a.933.933,0,0,0-.547.627,4.247,4.247,0,0,1,1.66.667,2.367,2.367,0,0,0-.2-.42,1.713,1.713,0,0,0,.667-.927A1.68,1.68,0,0,0,14.538,2.28ZM7.531,16.787a1.46,1.46,0,0,0-1.687.28l-.1.113c-.44.533-.667.667-.827.58a.427.427,0,0,1-.26-.273A.52.52,0,0,1,4.7,17.1a.847.847,0,0,0,.08-.787,1.387,1.387,0,0,0-1.107-.667H3.544a.407.407,0,0,1-.32-.367.58.58,0,0,1,.2-.533,1.533,1.533,0,0,1,.46.067,1.447,1.447,0,0,0,1.687-.44A1.822,1.822,0,0,0,5.1,11.94c-.133-.153-.387-.433-.387-.527a.06.06,0,0,1,0-.047c.387-.667.72-.607,1.333-.413a1.92,1.92,0,0,0,.547.127,1.333,1.333,0,0,0,1.027-.507,6.467,6.467,0,0,1-.3-1.6,1.08,1.08,0,0,1,0-.147l-.053.093a4.813,4.813,0,0,1-.667.907l-.173-.053a2.087,2.087,0,0,0-2.787.98,1.628,1.628,0,0,0,.527,2c.52.58.507.667.367.887a2.52,2.52,0,0,1-.38-.067,1.78,1.78,0,0,0-1.333.067,1.767,1.767,0,0,0-.833,1.76,1.627,1.627,0,0,0,1.233,1.42l.187.047h.04a1.9,1.9,0,0,0,0,.947,1.693,1.693,0,0,0,.88,1.053A1.46,1.46,0,0,0,5,19.04,2.387,2.387,0,0,0,6.711,18l.067-.073a.467.467,0,0,1,.353.08.413.413,0,0,1,.16.433,1.867,1.867,0,0,1-.393.7,2.087,2.087,0,0,0-.533,1.193,12.48,12.48,0,0,0,.16,2.333.627.627,0,1,0,1.22-.26,11.44,11.44,0,0,1-.133-2.08,2.82,2.82,0,0,1,.293-.46,2.74,2.74,0,0,0,.62-1.333A1.653,1.653,0,0,0,7.531,16.787Zm23.793-6.66h0a.973.973,0,0,0-.747-.573L30.431,9.5a1.9,1.9,0,0,0-.44-.7,1.06,1.06,0,0,0-.813-.38.82.82,0,0,0-.62.267,4,4,0,0,1-.667,0,3.407,3.407,0,0,0-1.68.593l-.56.293a1.387,1.387,0,0,0-.667,1.4,6.947,6.947,0,0,1-1.293-.307V10.62a1.74,1.74,0,0,0-2.113-1.253c-1,.16-1.047,1.147-1.067,1.567v.193a1.24,1.24,0,0,1-.993-.26,2,2,0,0,0-1.18-.2,3.386,3.386,0,0,1-.52,0,.613.613,0,0,0-.447-.293L16.9,10.32a4.593,4.593,0,0,1-.947-.153,6.667,6.667,0,0,1-.42,1.167,6.72,6.72,0,0,0,1.207.207h.16a1.92,1.92,0,0,0,1.44.353,2.313,2.313,0,0,1,.48,0,2.07,2.07,0,0,0,2.667,0,1.453,1.453,0,0,0,.26-.92,2,2,0,0,1,.04-.393c.513-.073.573.073.72.467a1.073,1.073,0,0,0,.62.733,5.773,5.773,0,0,0,2.487.413.76.76,0,0,0,.627-.667,2.354,2.354,0,0,0,0-.433,1.387,1.387,0,0,1,0-.407l.587-.307a3.073,3.073,0,0,1,1.04-.447A2.58,2.58,0,0,0,29.2,9.767l.053.067a1.033,1.033,0,0,0,.44.667,1.373,1.373,0,0,0,.28.14l-.04.187a1.807,1.807,0,0,0-.767.213,2,2,0,0,0-1.02,1.24,2.213,2.213,0,0,0,.113,1.333,1.76,1.76,0,0,1,.08.267c0,.193-.053.26-.233.467a1.773,1.773,0,0,0-.533,1.333.86.86,0,0,1-.307.833.413.413,0,0,1-.253.047,1.22,1.22,0,0,0-.36-.853,1.28,1.28,0,0,0-1.013-.333h-.1a3.293,3.293,0,0,1,.107-.667,1.013,1.013,0,0,0-.16-.92,1.293,1.293,0,0,0-1.107-.38h-.067a.86.86,0,0,1-.267-.04,3.367,3.367,0,0,0-1.027-.107,1.333,1.333,0,0,0-1.333.72,2.235,2.235,0,0,0,.547,2.1,1.5,1.5,0,0,1,.273.533,1.333,1.333,0,0,0-.72.3,1.44,1.44,0,0,0-1.133.42,1.153,1.153,0,0,0-.107,1.1A5.427,5.427,0,0,0,17.524,20.8a1.933,1.933,0,0,1-.827.573c-.353.167-.753.36-.793.813v.087a1.333,1.333,0,0,0-.78.927.84.84,0,0,0-.74.16c-.367.313-.42.847-.24,2.367.033.22.053.393.067.533a.708.708,0,0,1,0,.18,2.893,2.893,0,0,0-.433.667,5.107,5.107,0,0,0-.28,1.84v.6a2.667,2.667,0,0,0-1.08.807l-.153.16c-.42.267-.613.247-.667.24-.16-.047-.333-.367-.473-.627a3.227,3.227,0,0,0-.387-.607,5.2,5.2,0,0,1-.78-2,.627.627,0,0,0-1.213.3,6,6,0,0,0,1.067,2.513,2.2,2.2,0,0,1,.213.367,2.14,2.14,0,0,0,1.26,1.24,1.48,1.48,0,0,0,.38.047,2.413,2.413,0,0,0,1.28-.447,2.274,2.274,0,0,0,.393-.367c.16-.173.427-.467.613-.473s.667-.133.76-.873a7.54,7.54,0,0,0,.06-.853,4.74,4.74,0,0,1,.153-1.333,1.007,1.007,0,0,1,.267-.4c.373-.3.333-.607.26-1.16,0-.133-.04-.3-.067-.52-.067-.527-.087-.867-.093-1.073h0a1.073,1.073,0,0,0,.993-.86.767.767,0,0,1,.093-.213h.047a1.04,1.04,0,0,0,.667-.84l.12-.06a2.92,2.92,0,0,0,1.333-1.06,4.719,4.719,0,0,1,2.667-2,.88.88,0,0,0,.553-.8,1.727,1.727,0,0,0-.08-.52h.147a.927.927,0,0,0,.667-.267h.033a.773.773,0,0,1,.28-.033.88.88,0,0,0,.82-.533,2.22,2.22,0,0,0-.527-2.06,1.66,1.66,0,0,1-.333-.72.907.907,0,0,1,.193,0h0a2.167,2.167,0,0,1,.667.067,2.133,2.133,0,0,0,.58.08H24.3a1.813,1.813,0,0,0,.16,1.56,1.267,1.267,0,0,0,1.1.42H25.6a1.12,1.12,0,0,0,.547,1.033,1.567,1.567,0,0,0,1.6,0,2.047,2.047,0,0,0,.913-1.96c0-.213.053-.28.227-.473a1.807,1.807,0,0,0,.54-1.287,2,2,0,0,0-.14-.667,1.013,1.013,0,0,1-.093-.667.773.773,0,0,1,.393-.453.487.487,0,0,1,.307-.067A.84.84,0,0,0,30.831,12a.82.82,0,0,0,.3-.773.627.627,0,0,1,.08-.42A.753.753,0,0,0,31.324,10.127Z" transform="translate(-1.973)" fill="#a1a1a1"/>
          <path id="Path_937" data-name="Path 937" d="M11.853,37.27a.627.627,0,1,1-.627-.62.627.627,0,0,1,.627.62Z" transform="translate(-4.849 -12.217)" fill="#a1a1a1"/>
        </g>
      </g>
    </g>
    <g id="Group_892-2" data-name="Group 892" transform="translate(9.187 6.873)">
      <g id="india-2" data-name="india">
        <g id="Group_838-2" data-name="Group 838">
          <path id="Path_847" data-name="Path 847" d="M16.993,10.863a1.9,1.9,0,0,0-1.333-.553,1.88,1.88,0,1,0,1.88,1.88,1.9,1.9,0,0,0-.547-1.327ZM15.66,12.81a.627.627,0,1,1,.627-.62.62.62,0,0,1-.62.62Z" transform="translate(-13.78 -10.31)" fill="#a1a1a1"/>
        </g>
      </g>
    </g>
    <path id="Path_927" data-name="Path 927" d="M14.484,17.261c-.9,0-2.047-1.067-2.813-2.06A7.06,7.06,0,0,1,10,11.115a4.407,4.407,0,0,1,2.42-4.16,4.667,4.667,0,0,1,2.04-.427A4.187,4.187,0,0,1,17.6,7.755a4.7,4.7,0,0,1,1.187,3.333,7.233,7.233,0,0,1-1.553,4.08C16.87,15.675,15.617,17.261,14.484,17.261Zm0-9.407a3.333,3.333,0,0,0-1.4.267h0a3.067,3.067,0,0,0-1.707,2.987,5.807,5.807,0,0,0,1.333,3.22,4.56,4.56,0,0,0,1.793,1.6,4.407,4.407,0,0,0,1.707-1.593,5.893,5.893,0,0,0,1.247-3.227c0-2.073-1.08-3.26-2.953-3.26Z" transform="translate(-3.33 -2.175)" fill="#a1a1a1"/>
  </g>
</svg>
