<svg xmlns="http://www.w3.org/2000/svg" width="48" height="48" viewBox="0 0 48 48">
  <g id="direct_tax_dual_tone-48px" transform="translate(15831 7193)">
    <rect id="Rectangle_1048" data-name="Rectangle 1048" width="48" height="48" transform="translate(-15831 -7193)" fill="none"/>
    <g id="tax" transform="translate(-15828 -7193)">
      <g id="Group_857" data-name="Group 857" transform="translate(0 0)">
        <path id="Path_888" data-name="Path 888" d="M72.276,20.822l-2.087-4.179a.938.938,0,0,0-1.677.838L70.5,21.462v3.666H31.875V21.462L37.35,10.5H65.605a.937.937,0,0,0,0-1.875h-7.2V7.219a7.219,7.219,0,1,0-14.437,0V8.626h-7.2a.938.938,0,0,0-.839.519L30.1,20.822a.939.939,0,0,0-.1.419v4.825a.938.938,0,0,0,.938.938h4.929a3.609,3.609,0,0,0-.455,1.757v6.486a7.75,7.75,0,0,0,1.369,4.407c.084.122.162.229.236.325l3.519,4.59v2.495a.938.938,0,0,0,1.875,0V44.25a.938.938,0,0,0-.194-.57L38.9,39.352l3.97-2.629,1.228,1.65a6.13,6.13,0,0,0,4.915,2.471h4.352a6.128,6.128,0,0,0,4.913-2.468L59.4,36.867l3.968,2.628-3.208,4.184a.937.937,0,0,0-.193.57v2.813a.938.938,0,0,0,1.875,0V44.568l3.522-4.593.117-.157a7.738,7.738,0,0,0,1.485-4.572V28.76A3.609,3.609,0,0,0,66.508,27h4.929a.938.938,0,0,0,.938-.937V21.24a.938.938,0,0,0-.1-.419ZM45.844,7.219a5.344,5.344,0,1,1,10.687,0V8.626H45.844Zm-7.981,30.57a5.88,5.88,0,0,1-.575-2.543V28.76a1.757,1.757,0,0,1,3.514,0v2.607a7.836,7.836,0,0,0,1,3.813Zm16.72-2.179a3.395,3.395,0,0,1-6.789,0v-.883H49.1a5.056,5.056,0,0,0,1.3-.168,6.633,6.633,0,0,0,1.253-.528,2.19,2.19,0,0,0,1.593.7h1.333Zm-1.333-2.758a.3.3,0,0,1-.23-.111L54.1,31.153a3.615,3.615,0,0,1,1.112,1.7Zm-1.978-.876a3,3,0,0,1-2.166.876h-2a5.374,5.374,0,0,1,.51-1.036,4.181,4.181,0,0,1,3.765-1.924,2.275,2.275,0,0,1,1.153.24Zm4.476,6.253a5.171,5.171,0,0,0,.71-2.619v-.883h.013a.937.937,0,0,0,.919-1.123,9.953,9.953,0,0,0-.7-2.068,3.738,3.738,0,0,0-2.414-2.319,2.552,2.552,0,0,0-.383-.408,3.756,3.756,0,0,0-2.517-.793,6,6,0,0,0-5.389,2.859,7.42,7.42,0,0,0-1.025,2.809.937.937,0,0,0,.932,1.042h.025v.883a5.171,5.171,0,0,0,.71,2.618,4.15,4.15,0,0,1-1.025-.973l-1.182-1.588-.578-.776h0a5.941,5.941,0,0,1-1.167-3.524V28.76A3.609,3.609,0,0,0,42.221,27H60.154A3.609,3.609,0,0,0,59.7,28.76v2.607a5.941,5.941,0,0,1-1.167,3.523l-.105.142,0,0L56.77,37.259a4.14,4.14,0,0,1-1.023.971Zm9.341-9.47v6.486a5.872,5.872,0,0,1-.656,2.706l-3.95-2.616a7.835,7.835,0,0,0,1.092-3.969V28.76a1.757,1.757,0,1,1,3.514,0Z" transform="translate(-30 0)" fill="#222"/>
        <path id="Path_889" data-name="Path 889" d="M136.36,151.274a.938.938,0,0,0,.938-.937v-6.289h1.778a.937.937,0,1,0,0-1.875h-5.432a.937.937,0,1,0,0,1.875h1.778v6.289A.938.938,0,0,0,136.36,151.274Z" transform="translate(-123.078 -128.843)" fill="#e97f17"/>
        <path id="Path_890" data-name="Path 890" d="M217.844,142.172h-.006a.938.938,0,0,0-.876.6L214.2,150a.938.938,0,0,0,1.751.67l.489-1.277h2.72l.467,1.267a.938.938,0,1,0,1.759-.649l-2.666-7.227A.938.938,0,0,0,217.844,142.172Zm-.689,5.347.668-1.744.644,1.744Z" transform="translate(-196.872 -128.843)" fill="#e97f17"/>
        <path id="Path_891" data-name="Path 891" d="M308.288,142.36a.938.938,0,0,0-1.313.186l-1.966,2.616-1.966-2.616a.937.937,0,1,0-1.5,1.126l2.292,3.05-2.292,3.05a.937.937,0,1,0,1.5,1.127l1.966-2.616,1.966,2.616a.937.937,0,1,0,1.5-1.127l-2.292-3.05,2.292-3.05A.937.937,0,0,0,308.288,142.36Z" transform="translate(-275.916 -128.843)" fill="#e97f17"/>
        <path id="Path_892" data-name="Path 892" d="M417.26,133.024a.937.937,0,1,0,1.115-.544A.945.945,0,0,0,417.26,133.024Z" transform="translate(-380.89 -120.03)" fill="#e97f17"/>
      </g>
    </g>
  </g>
</svg>
