<svg xmlns="http://www.w3.org/2000/svg" width="32" height="32" viewBox="0 0 32 32">
  <g id="direct_tax_dual_tone-32px" transform="translate(15854 7238)">
    <rect id="Rectangle_1047" data-name="Rectangle 1047" width="32" height="32" transform="translate(-15854 -7238)" fill="none"/>
    <g id="tax" transform="translate(-15852 -7238)">
      <g id="Group_857" data-name="Group 857" transform="translate(0 0)">
        <path id="Path_888" data-name="Path 888" d="M58.184,13.881,56.793,11.1a.625.625,0,1,0-1.118.559L57,14.308v2.444H31.25V14.308L34.9,7H53.737a.625.625,0,1,0,0-1.25h-4.8V4.812a4.812,4.812,0,1,0-9.625,0v.938h-4.8a.625.625,0,0,0-.559.346l-3.888,7.785A.626.626,0,0,0,30,14.16v3.217a.625.625,0,0,0,.625.625h3.286a2.406,2.406,0,0,0-.3,1.171V23.5a5.167,5.167,0,0,0,.912,2.938c.056.081.108.152.157.217l2.346,3.06v1.663a.625.625,0,0,0,1.25,0V29.5a.625.625,0,0,0-.129-.38l-2.212-2.885,2.646-1.753.819,1.1a4.086,4.086,0,0,0,3.276,1.647h2.9a4.085,4.085,0,0,0,3.275-1.646l.748-1.005,2.645,1.752-2.139,2.789a.625.625,0,0,0-.129.38v1.875a.625.625,0,0,0,1.25,0V29.712l2.348-3.062.078-.1a5.159,5.159,0,0,0,.99-3.048V19.173a2.406,2.406,0,0,0-.3-1.171h3.286a.625.625,0,0,0,.625-.625V14.16a.625.625,0,0,0-.066-.279ZM40.562,4.812a3.562,3.562,0,1,1,7.125,0v.938H40.562Zm-5.321,20.38a3.92,3.92,0,0,1-.384-1.7V19.173a1.171,1.171,0,0,1,2.342,0v1.738a5.224,5.224,0,0,0,.667,2.542ZM46.388,23.74a2.263,2.263,0,0,1-4.526,0v-.589h.874a3.37,3.37,0,0,0,.866-.112,4.422,4.422,0,0,0,.835-.352,1.46,1.46,0,0,0,1.062.464h.889ZM45.5,21.9a.2.2,0,0,1-.154-.074l.723-1.059A2.41,2.41,0,0,1,46.81,21.9Zm-1.319-.584a2,2,0,0,1-1.444.584H41.4a3.583,3.583,0,0,1,.34-.691,2.787,2.787,0,0,1,2.51-1.283,1.517,1.517,0,0,1,.769.16Zm2.984,4.169a3.447,3.447,0,0,0,.474-1.746v-.589h.009a.625.625,0,0,0,.613-.748,6.635,6.635,0,0,0-.466-1.379,2.492,2.492,0,0,0-1.61-1.546,1.7,1.7,0,0,0-.255-.272,2.5,2.5,0,0,0-1.678-.528,4,4,0,0,0-3.593,1.906,4.946,4.946,0,0,0-.683,1.872.625.625,0,0,0,.621.695h.017v.589a3.447,3.447,0,0,0,.473,1.746,2.767,2.767,0,0,1-.683-.649l-.788-1.059-.385-.517h0a3.961,3.961,0,0,1-.778-2.349V19.173a2.406,2.406,0,0,0-.3-1.171H50.1a2.406,2.406,0,0,0-.3,1.171v1.738a3.96,3.96,0,0,1-.778,2.349l-.07.094,0,0-1.1,1.482a2.76,2.76,0,0,1-.682.647Zm6.227-6.313V23.5a3.915,3.915,0,0,1-.437,1.8l-2.633-1.744a5.223,5.223,0,0,0,.728-2.646V19.173a1.171,1.171,0,1,1,2.342,0Z" transform="translate(-30 0)" fill="#222"/>
        <path id="Path_889" data-name="Path 889" d="M135.143,148.24a.625.625,0,0,0,.625-.625v-4.193h1.186a.625.625,0,1,0,0-1.25h-3.621a.625.625,0,1,0,0,1.25h1.186v4.193A.625.625,0,0,0,135.143,148.24Z" transform="translate(-126.288 -133.286)" fill="#e97f17"/>
        <path id="Path_890" data-name="Path 890" d="M216.607,142.172h0a.625.625,0,0,0-.584.4l-1.844,4.818a.625.625,0,0,0,1.168.447l.326-.852h1.813l.312.844a.625.625,0,1,0,1.173-.433l-1.777-4.818A.625.625,0,0,0,216.607,142.172Zm-.459,3.564.445-1.163.429,1.163Z" transform="translate(-202.626 -133.286)" fill="#e97f17"/>
        <path id="Path_891" data-name="Path 891" d="M305.978,142.3a.625.625,0,0,0-.875.124l-1.311,1.744-1.311-1.744a.625.625,0,1,0-1,.751l1.528,2.033-1.528,2.033a.625.625,0,1,0,1,.751l1.311-1.744,1.311,1.744a.625.625,0,1,0,1-.751l-1.528-2.033,1.528-2.033A.625.625,0,0,0,305.978,142.3Z" transform="translate(-284.396 -133.286)" fill="#e97f17"/>
        <path id="Path_892" data-name="Path 892" d="M417.236,132.832a.625.625,0,1,0,.744-.363A.63.63,0,0,0,417.236,132.832Z" transform="translate(-392.989 -124.169)" fill="#e97f17"/>
      </g>
    </g>
  </g>
</svg>
