<svg xmlns="http://www.w3.org/2000/svg" width="32" height="32" viewBox="0 0 32 32">
  <g id="fema_dual_tone-32px" transform="translate(15986 7237)">
    <rect id="Rectangle_1043" data-name="Rectangle 1043" width="32" height="32" transform="translate(-15986 -7237)" fill="none"/>
    <g id="live-news" transform="translate(-15986 -7237)">
      <g id="Group_839" data-name="Group 839" transform="translate(0 0)">
        <path id="Path_864" data-name="Path 864" d="M32.236,18.1a.625.625,0,0,0-.723.508,21.023,21.023,0,0,1-.528,2.261H3.179A18.525,18.525,0,0,1,2.4,16a18.578,18.578,0,0,1,.776-4.873h27.8a21.028,21.028,0,0,1,.521,2.221.625.625,0,1,0,1.231-.218,20.773,20.773,0,0,0-.7-2.83l-.005-.014,0-.007a15.957,15.957,0,0,0-5.246-7,.633.633,0,0,0-.077-.058q-.225-.169-.456-.331A16.006,16.006,0,0,0,2.136,10.279l0,.007-.005.014A19.968,19.968,0,0,0,1.154,16a19.968,19.968,0,0,0,.974,5.7l.005.014,0,.007a15.957,15.957,0,0,0,5.244,7,.623.623,0,0,0,.074.056q.227.171.46.335a16.005,16.005,0,0,0,24.114-7.393l0-.007.006-.014a20.815,20.815,0,0,0,.708-2.873A.625.625,0,0,0,32.236,18.1ZM21.5,22.122a27.688,27.688,0,0,1-.742,3.387,24.806,24.806,0,0,0-3.68-.259,24.8,24.8,0,0,0-3.68.259,27.687,27.687,0,0,1-.742-3.387Zm-8.135,6.764a8.865,8.865,0,0,0,1.042,1.623A14.623,14.623,0,0,1,8.878,28.26a9.475,9.475,0,0,1,1.351-.649,14.4,14.4,0,0,1,2.316-.676A15.579,15.579,0,0,0,13.369,28.886Zm8.249-1.95a12.26,12.26,0,0,1,3.665,1.326,14.623,14.623,0,0,1-5.53,2.247,8.871,8.871,0,0,0,1.042-1.623A15.6,15.6,0,0,0,21.618,26.936Zm-1.936,1.381c-.8,1.568-1.726,2.432-2.6,2.432s-1.8-.864-2.6-2.432a14.048,14.048,0,0,1-.688-1.6,24.944,24.944,0,0,1,6.575,0,14.04,14.04,0,0,1-.687,1.6ZM12.66,9.877a27.381,27.381,0,0,1,.785-3.531,26.64,26.64,0,0,0,3.637.236,26.64,26.64,0,0,0,3.637-.236A27.383,27.383,0,0,1,21.5,9.877Zm8.135-6.764a8.865,8.865,0,0,0-1.042-1.623,14.623,14.623,0,0,1,5.5,2.226,13.05,13.05,0,0,1-3.678,1.219A15.385,15.385,0,0,0,20.795,3.114Zm-8.2,1.823A13.05,13.05,0,0,1,8.912,3.718a14.622,14.622,0,0,1,5.5-2.226,8.871,8.871,0,0,0-1.042,1.623A15.384,15.384,0,0,0,12.591,4.937Zm1.891-1.254c.8-1.568,1.726-2.432,2.6-2.432s1.8.864,2.6,2.432a13.817,13.817,0,0,1,.633,1.454,25.5,25.5,0,0,1-3.233.2,25.5,25.5,0,0,1-3.233-.2,13.825,13.825,0,0,1,.633-1.454ZM30.505,9.877H22.769a29.225,29.225,0,0,0-.808-3.74,12.779,12.779,0,0,0,4.39-1.613A14.7,14.7,0,0,1,30.505,9.877ZM7.813,4.525A12.779,12.779,0,0,0,12.2,6.138a29.225,29.225,0,0,0-.808,3.74H3.659A14.7,14.7,0,0,1,7.813,4.525Zm-4.155,17.6h7.736a29.46,29.46,0,0,0,.772,3.612A12.258,12.258,0,0,0,7.8,27.464a14.7,14.7,0,0,1-4.141-5.342Zm22.706,5.342A12.256,12.256,0,0,0,22,25.734a29.459,29.459,0,0,0,.772-3.612h7.736A14.7,14.7,0,0,1,26.364,27.464Z" transform="translate(-1.154 0)" fill="#222"/>
        <path id="Path_869" data-name="Path 869" d="M492.1,246.512a.625.625,0,1,0-.36.693A.63.63,0,0,0,492.1,246.512Z" transform="translate(-460.258 -230.634)" fill="#e97f17"/>
        <path id="Path_931" data-name="Path 931" d="M135.143,148.24a.625.625,0,0,0,.625-.625v-4.193h1.186a.625.625,0,1,0,0-1.25h-3.621a.625.625,0,1,0,0,1.25h1.186v4.193A.625.625,0,0,0,135.143,148.24Z" transform="translate(-124.613 -129.206)" fill="#e97f17"/>
        <path id="Path_932" data-name="Path 932" d="M216.607,142.172h0a.625.625,0,0,0-.584.4l-1.844,4.818a.625.625,0,1,0,1.167.447l.326-.852h1.813l.312.844a.625.625,0,1,0,1.173-.433l-1.777-4.818A.625.625,0,0,0,216.607,142.172Zm-.459,3.564.445-1.163.429,1.163Z" transform="translate(-200.952 -129.206)" fill="#e97f17"/>
        <path id="Path_933" data-name="Path 933" d="M305.978,142.3a.625.625,0,0,0-.875.124l-1.311,1.744-1.311-1.744a.625.625,0,0,0-1,.751l1.528,2.033-1.528,2.033a.625.625,0,1,0,1,.751l1.311-1.744,1.311,1.744a.625.625,0,1,0,1-.751l-1.528-2.033,1.528-2.033A.625.625,0,0,0,305.978,142.3Z" transform="translate(-282.722 -129.206)" fill="#e97f17"/>
      </g>
    </g>
  </g>
</svg>
