<svg xmlns="http://www.w3.org/2000/svg" width="48" height="48" viewBox="0 0 48 48">
  <g id="fema_grey-48px" transform="translate(15986 7193)">
    <rect id="Rectangle_1044" data-name="Rectangle 1044" width="48" height="48" transform="translate(-15986 -7193)" fill="none"/>
    <g id="live-news" transform="translate(-15986 -7193)">
      <g id="Group_839" data-name="Group 839" transform="translate(0 0)">
        <path id="Path_864" data-name="Path 864" d="M47.777,27.156a.938.938,0,0,0-1.085.762,31.534,31.534,0,0,1-.793,3.391H4.192A27.787,27.787,0,0,1,3.029,24a27.867,27.867,0,0,1,1.164-7.309H45.9a31.543,31.543,0,0,1,.782,3.332.938.938,0,1,0,1.846-.327,31.159,31.159,0,0,0-1.051-4.246l-.008-.021,0-.011A23.935,23.935,0,0,0,39.6,4.913a.949.949,0,0,0-.115-.087q-.337-.254-.683-.5A24.008,24.008,0,0,0,2.627,15.418l0,.011-.008.021A29.952,29.952,0,0,0,1.154,24a29.952,29.952,0,0,0,1.461,8.55l.008.021,0,.011a23.935,23.935,0,0,0,7.866,10.5.934.934,0,0,0,.111.084q.34.256.691.5a24.008,24.008,0,0,0,36.171-11.09l0-.011.008-.021a31.222,31.222,0,0,0,1.063-4.309A.937.937,0,0,0,47.777,27.156Zm-16.1,6.028a41.531,41.531,0,0,1-1.113,5.08,37.208,37.208,0,0,0-5.52-.389,37.207,37.207,0,0,0-5.52.389,41.531,41.531,0,0,1-1.113-5.08Zm-12.2,10.146a13.3,13.3,0,0,0,1.563,2.434,21.934,21.934,0,0,1-8.3-3.374,14.213,14.213,0,0,1,2.026-.974A21.593,21.593,0,0,1,18.241,40.4,23.369,23.369,0,0,0,19.477,43.329ZM31.85,40.4a18.39,18.39,0,0,1,5.5,1.989,21.935,21.935,0,0,1-8.3,3.371,13.306,13.306,0,0,0,1.563-2.434A23.407,23.407,0,0,0,31.85,40.4Zm-2.9,2.072c-1.2,2.352-2.589,3.648-3.9,3.648s-2.7-1.3-3.9-3.648a21.072,21.072,0,0,1-1.031-2.4,35.6,35.6,0,0,1,4.932-.326,35.416,35.416,0,0,1,4.931.327,21.059,21.059,0,0,1-1.031,2.4ZM18.413,14.816a41.071,41.071,0,0,1,1.177-5.3,39.959,39.959,0,0,0,5.456.354A39.959,39.959,0,0,0,30.5,9.519a41.075,41.075,0,0,1,1.177,5.3Zm12.2-10.146a13.3,13.3,0,0,0-1.563-2.434A21.934,21.934,0,0,1,37.3,5.576a19.575,19.575,0,0,1-5.518,1.829A23.077,23.077,0,0,0,30.615,4.671ZM18.31,7.405a19.574,19.574,0,0,1-5.518-1.829,21.933,21.933,0,0,1,8.248-3.34,13.306,13.306,0,0,0-1.563,2.434A23.077,23.077,0,0,0,18.31,7.405Zm2.836-1.88c1.2-2.352,2.589-3.648,3.9-3.648s2.7,1.3,3.9,3.648a20.726,20.726,0,0,1,.949,2.18A38.257,38.257,0,0,1,25.046,8a38.256,38.256,0,0,1-4.85-.293,20.737,20.737,0,0,1,.949-2.18Zm24.035,9.291h-11.6a43.837,43.837,0,0,0-1.212-5.609,19.169,19.169,0,0,0,6.585-2.419A22.055,22.055,0,0,1,45.181,14.816ZM11.143,6.788a19.169,19.169,0,0,0,6.585,2.419,43.837,43.837,0,0,0-1.212,5.609H4.911a22.055,22.055,0,0,1,6.232-8.029Zm-6.232,26.4h11.6A44.19,44.19,0,0,0,17.673,38.6a18.387,18.387,0,0,0-6.55,2.595,22.055,22.055,0,0,1-6.212-8.012ZM38.969,41.2a18.384,18.384,0,0,0-6.55-2.595,44.189,44.189,0,0,0,1.157-5.418h11.6A22.056,22.056,0,0,1,38.969,41.2Z" transform="translate(-1.154 0)" fill="#a1a1a1"/>
        <path id="Path_869" data-name="Path 869" d="M492.72,246.764a.937.937,0,1,0-.539,1.039A.946.946,0,0,0,492.72,246.764Z" transform="translate(-444.954 -222.946)" fill="#a1a1a1"/>
        <path id="Path_931" data-name="Path 931" d="M136.36,151.273a.938.938,0,0,0,.938-.937v-6.289h1.778a.937.937,0,1,0,0-1.875h-5.432a.937.937,0,1,0,0,1.875h1.778v6.289A.938.938,0,0,0,136.36,151.273Z" transform="translate(-120.566 -122.723)" fill="#a1a1a1"/>
        <path id="Path_932" data-name="Path 932" d="M217.844,142.172h-.006a.938.938,0,0,0-.876.6L214.2,150a.938.938,0,1,0,1.751.67l.489-1.277h2.72l.467,1.267a.938.938,0,1,0,1.759-.649l-2.666-7.227A.938.938,0,0,0,217.844,142.172Zm-.689,5.347.667-1.744.644,1.744Z" transform="translate(-194.36 -122.723)" fill="#a1a1a1"/>
        <path id="Path_933" data-name="Path 933" d="M308.288,142.36a.938.938,0,0,0-1.313.186l-1.966,2.616-1.966-2.616a.937.937,0,1,0-1.5,1.126l2.292,3.05-2.292,3.05a.937.937,0,1,0,1.5,1.126l1.966-2.616,1.966,2.616a.937.937,0,1,0,1.5-1.126l-2.292-3.05,2.292-3.05A.938.938,0,0,0,308.288,142.36Z" transform="translate(-273.405 -122.723)" fill="#a1a1a1"/>
      </g>
    </g>
  </g>
</svg>
