<svg xmlns="http://www.w3.org/2000/svg" width="48" height="48" viewBox="0 0 48 48">
  <g id="indirect_tax_grey-48px" transform="translate(15896 7193)">
    <rect id="Rectangle_1046" data-name="Rectangle 1046" width="48" height="48" transform="translate(-15896 -7193)" fill="none"/>
    <g id="interest-rate" transform="translate(-15892 -7193)">
      <path id="Path_849" data-name="Path 849" d="M39.235,146.093H50.049a.937.937,0,0,0,.938-.937V144.6a11.476,11.476,0,0,0,5.65,1.495h9.137a11.452,11.452,0,0,0,11.439-11.439v-1.762a11.365,11.365,0,0,0-3.33-8.069L66.939,117l4.525-7.332a.937.937,0,0,0-.8-1.43H65.437a.937.937,0,1,0,0,1.875h3.549l-3.734,6.05H57.158l-3.547-6.05h3.579a.937.937,0,1,0,0-1.875H51.931a.937.937,0,0,0-.8,1.43L55.471,117l-6.944,7.82a11.431,11.431,0,0,0-1.393,1.7H36.892a.937.937,0,0,0-.937.937v4.424a.937.937,0,0,0,.938.938H38.2v2.549H36.892a.938.938,0,0,0-.937.938v4.424a.937.937,0,0,0,.938.938H38.3v3.486a.937.937,0,0,0,.938.938Zm9.876-1.875H40.173V141.67h8.939Zm-.468-16.579a9.788,9.788,0,0,1,1.268-1.551l7.145-8.047h8.3c.048.051,7.14,8.046,7.182,8.087a9.5,9.5,0,0,1,2.8,6.763v1.762a9.575,9.575,0,0,1-9.564,9.564H56.636a9.448,9.448,0,0,1-5.649-1.846v-1.641a.937.937,0,0,0-.937-.937H48.643v-2.548h1.3a.947.947,0,0,0,.938-.938v-4.424a.947.947,0,0,0-.938-.938h-1.3v-3.308Zm-10.814.759h8.939v2.549H37.829Zm2.243,4.424h8.939v2.549H40.072Zm-2.243,4.424h8.939v2.549H37.829Z" transform="translate(-35.954 -98.093)" fill="#a1a1a1"/>
      <path id="Path_850" data-name="Path 850" d="M251.007,310.509a.947.947,0,0,0,1.321-.114l8.909-10.591A.937.937,0,0,0,259.8,298.6l-8.909,10.591A.938.938,0,0,0,251.007,310.509Z" transform="translate(-230.544 -270.301)" fill="#a1a1a1"/>
      <path id="Path_851" data-name="Path 851" d="M238.746,298.841a2.921,2.921,0,1,0-2.918-2.921A2.923,2.923,0,0,0,238.746,298.841Zm0-3.967a1.046,1.046,0,1,1-1.043,1.046A1.046,1.046,0,0,1,238.746,294.874Z" transform="translate(-217.09 -265.53)" fill="#a1a1a1"/>
      <path id="Path_852" data-name="Path 852" d="M316.507,379.53a2.918,2.918,0,1,0,2.918-2.921A2.923,2.923,0,0,0,316.507,379.53Zm3.962,0a1.043,1.043,0,1,1-1.043-1.046A1.046,1.046,0,0,1,320.469,379.53Z" transform="translate(-290.205 -341.302)" fill="#a1a1a1"/>
      <path id="Path_853" data-name="Path 853" d="M113.415,17.219a.937.937,0,0,0,.938-.937V3.239L116,4.9a.947.947,0,0,0,1.326.005.938.938,0,0,0,.005-1.326L114.2.419A.936.936,0,0,0,113.415,0h-.025a.937.937,0,0,0-.665.277l-3.28,3.305A.937.937,0,0,0,110.775,4.9l1.7-1.715V16.282A.937.937,0,0,0,113.415,17.219Z" transform="translate(-102.308 0)" fill="#a1a1a1"/>
      <path id="Path_854" data-name="Path 854" d="M42.158,82.713a.937.937,0,0,0-.937.938v12.92l-1.651-1.664a.937.937,0,0,0-1.331,1.321l3.139,3.163a.969.969,0,0,0,1.472.142l3.28-3.305A.938.938,0,0,0,44.8,94.907l-1.7,1.715V83.65A.937.937,0,0,0,42.158,82.713Z" transform="translate(-37.778 -74.959)" fill="#a1a1a1"/>
      <path id="Path_855" data-name="Path 855" d="M296.4,109.753a.937.937,0,1,0,1.523-1.09A.938.938,0,0,0,296.4,109.753Z" transform="translate(-271.839 -98.148)" fill="#a1a1a1"/>
    </g>
  </g>
</svg>
