<svg xmlns="http://www.w3.org/2000/svg" width="32" height="32" viewBox="0 0 32 32">
  <g id="indirect_tax_dual_tone-32px" transform="translate(15922 7237)">
    <rect id="Rectangle_1045" data-name="Rectangle 1045" width="32" height="32" transform="translate(-15922 -7237)" fill="none"/>
    <g id="interest-rate" transform="translate(-15920 -7237)">
      <path id="Path_849" data-name="Path 849" d="M38.142,133.476h7.209a.625.625,0,0,0,.625-.625v-.371a7.651,7.651,0,0,0,3.766,1h6.091a7.635,7.635,0,0,0,7.626-7.626v-1.175a7.577,7.577,0,0,0-2.22-5.379l-4.629-5.213,3.017-4.888a.625.625,0,0,0-.532-.953H55.61a.625.625,0,1,0,0,1.25h2.366l-2.489,4.034h-5.4l-2.364-4.034h2.386a.625.625,0,1,0,0-1.25H46.605a.625.625,0,0,0-.532.953l2.892,4.888L44.336,119.3a7.62,7.62,0,0,0-.928,1.134H36.579a.625.625,0,0,0-.625.625V124a.625.625,0,0,0,.625.625h.87v1.7h-.87a.625.625,0,0,0-.625.625V129.9a.625.625,0,0,0,.625.625h.938v2.324a.625.625,0,0,0,.625.625Zm6.584-1.25H38.767v-1.7h5.959Zm-.312-11.053a6.525,6.525,0,0,1,.845-1.034l4.763-5.364h5.531c.032.034,4.76,5.364,4.788,5.391a6.334,6.334,0,0,1,1.868,4.509v1.175a6.383,6.383,0,0,1-6.376,6.376H49.742A6.3,6.3,0,0,1,45.976,131V129.9a.625.625,0,0,0-.625-.625h-.937v-1.7h.87a.632.632,0,0,0,.625-.625V124a.632.632,0,0,0-.625-.625h-.87v-2.205Zm-7.21.506h5.959v1.7H37.2Zm1.5,2.949h5.959v1.7H38.7Zm-1.5,2.949h5.959v1.7H37.2Z" transform="translate(-35.954 -101.476)" fill="#222"/>
      <path id="Path_850" data-name="Path 850" d="M250.9,306.427a.631.631,0,0,0,.881-.076l5.939-7.06a.625.625,0,0,0-.957-.8l-5.939,7.06A.625.625,0,0,0,250.9,306.427Z" transform="translate(-237.253 -279.622)" fill="#e97f17"/>
      <path id="Path_851" data-name="Path 851" d="M237.774,296.893a1.947,1.947,0,1,0-1.946-1.947A1.949,1.949,0,0,0,237.774,296.893Zm0-2.645a.7.7,0,1,1-.7.7A.7.7,0,0,1,237.774,294.249Z" transform="translate(-223.336 -274.687)" fill="#e97f17"/>
      <path id="Path_852" data-name="Path 852" d="M316.507,378.556a1.946,1.946,0,1,0,1.946-1.947A1.949,1.949,0,0,0,316.507,378.556Zm2.641,0a.7.7,0,1,1-.7-.7A.7.7,0,0,1,319.148,378.556Z" transform="translate(-298.972 -353.071)" fill="#e97f17"/>
      <path id="Path_853" data-name="Path 853" d="M112,11.479a.625.625,0,0,0,.625-.625v-8.7l1.1,1.109a.631.631,0,0,0,.884,0,.625.625,0,0,0,0-.884L112.521.279A.624.624,0,0,0,112,0h-.017a.625.625,0,0,0-.444.185l-2.187,2.2a.625.625,0,0,0,.887.88l1.135-1.144v8.729A.625.625,0,0,0,112,11.479Z" transform="translate(-104.596 0)" fill="#e97f17"/>
      <path id="Path_854" data-name="Path 854" d="M40.761,82.713a.625.625,0,0,0-.625.625v8.614l-1.1-1.109a.625.625,0,0,0-.887.881l2.093,2.109a.646.646,0,0,0,.981.095l2.187-2.2a.625.625,0,1,0-.887-.881l-1.135,1.144V83.338A.625.625,0,0,0,40.761,82.713Z" transform="translate(-37.84 -77.543)" fill="#e97f17"/>
      <path id="Path_855" data-name="Path 855" d="M296.35,109.269a.625.625,0,1,0,1.015-.727A.626.626,0,0,0,296.35,109.269Z" transform="translate(-279.973 -101.532)" fill="#e97f17"/>
    </g>
  </g>
</svg>
