<svg xmlns="http://www.w3.org/2000/svg" width="32" height="32" viewBox="0 0 32 32">
  <g id="Group_507" data-name="Group 507" transform="translate(-874 -1398)">
    <g id="Group_508" data-name="Group 508" transform="translate(875.203 1399.203)">
      <g id="Group_507-2" data-name="Group 507">
        <path id="Path_554" data-name="Path 554" d="M92.63,273.629h.4c1.169,0,2.338,0,3.507,0,.414,0,.568.159.568.575q0,12.009,0,24.019a2.656,2.656,0,0,1-2.634,2.641q-11.943,0-23.887,0a3.449,3.449,0,0,1-3.433-3.443q-.007-12.973,0-25.946c0-.427.141-.571.56-.571H92.065c.422,0,.561.139.564.571C92.633,272.177,92.63,272.881,92.63,273.629Zm-24.6-1.83v.3q0,12.578,0,25.157a2.607,2.607,0,0,0,2.72,2.726q10.68,0,21.36,0c.087,0,.175-.012.3-.022a3.152,3.152,0,0,1-.682-2.181q.014-12.784.006-25.568V271.8Zm24.6,2.755v.426q0,11.471,0,22.942c0,.116,0,.232,0,.347a1.8,1.8,0,1,0,3.586-.177q0-11.613,0-23.226c0-.1-.009-.2-.014-.313Z" transform="translate(-67.143 -270.902)" fill="#a2a2a2"/>
        <path id="Path_557" data-name="Path 557" d="M108.747,376.739h5.087c.448,0,.589.132.59.58q.005,2.813,0,5.626c0,.446-.14.582-.595.582q-5.071,0-10.143,0c-.47,0-.6-.136-.6-.6q0-2.8,0-5.594c0-.461.134-.591.6-.591Zm-4.765,5.867H113.5v-4.965h-9.522Z" transform="translate(-100.811 -370.037)" fill="#a2a2a2"/>
        <path id="Path_558" data-name="Path 558" d="M113.609,573.6h9.665c.084,0,.169,0,.253,0,.333.014.523.188.517.468s-.181.42-.512.439c-.084,0-.168,0-.253,0H103.886a2.435,2.435,0,0,1-.408-.022.4.4,0,0,1-.361-.412.407.407,0,0,1,.327-.442,1.458,1.458,0,0,1,.375-.03Q108.713,573.595,113.609,573.6Z" transform="translate(-100.838 -554.43)" fill="#a2a2a2"/>
        <path id="Path_559" data-name="Path 559" d="M113.584,502.878h-9.759a1.461,1.461,0,0,1-.375-.025.411.411,0,0,1-.334-.438.4.4,0,0,1,.354-.418,1.848,1.848,0,0,1,.345-.025h19.519c.5,0,.716.14.708.466s-.212.443-.7.443Z" transform="translate(-100.837 -487.339)" fill="#a2a2a2"/>
        <path id="Path_560" data-name="Path 560" d="M113.561,537.806h9.76c.5,0,.716.138.71.463s-.217.449-.7.449H103.814c-.5,0-.717-.141-.711-.468s.208-.444.7-.444Z" transform="translate(-100.826 -520.907)" fill="#a2a2a2"/>
        <path id="Path_561" data-name="Path 561" d="M113.622,645.307h9.759a1.475,1.475,0,0,1,.315.01.414.414,0,0,1,.362.446.4.4,0,0,1-.381.424,2.166,2.166,0,0,1-.284.008H103.812a2.5,2.5,0,0,1-.284-.007.4.4,0,0,1-.394-.414.42.42,0,0,1,.382-.461,1.642,1.642,0,0,1,.315-.007Z" transform="translate(-100.854 -621.597)" fill="#a2a2a2"/>
        <path id="Path_562" data-name="Path 562" d="M113.577,609.417h9.759a1.783,1.783,0,0,1,.315.006.423.423,0,0,1,.4.45.4.4,0,0,1-.408.432c-.094.009-.189.008-.284.008H103.807a2.6,2.6,0,0,1-.284-.01.4.4,0,0,1-.4-.41.425.425,0,0,1,.379-.466,1.444,1.444,0,0,1,.315-.01Z" transform="translate(-100.846 -587.981)" fill="#a2a2a2"/>
        <path id="Path_563" data-name="Path 563" d="M113.587,682.116H103.8a1.627,1.627,0,0,1-.284-.006.441.441,0,0,1-.008-.871,1.288,1.288,0,0,1,.252-.006h19.676a1.51,1.51,0,0,1,.252.005.441.441,0,0,1,.008.871,1.556,1.556,0,0,1-.284.007Z" transform="translate(-100.857 -655.25)" fill="#a2a2a2"/>
        <path id="Path_564" data-name="Path 564" d="M321.516,394.71q1.546,0,3.093,0c.373,0,.557.153.551.45s-.183.431-.538.432q-3.124,0-6.248,0c-.334,0-.541-.169-.545-.434s.209-.447.564-.447Q319.954,394.708,321.516,394.71Z" transform="translate(-301.955 -386.87)" fill="#a2a2a2"/>
        <path id="Path_565" data-name="Path 565" d="M321.515,467.178c-1.062,0-2.125,0-3.187,0a.462.462,0,0,1-.5-.452.455.455,0,0,1,.48-.439c.094-.006.189,0,.284,0h4.481c.5,0,1.01,0,1.515,0,.384,0,.567.146.573.434s-.2.461-.582.462Q323.046,467.18,321.515,467.178Z" transform="translate(-301.954 -453.91)" fill="#a2a2a2"/>
        <path id="Path_566" data-name="Path 566" d="M321.874,431.428c-1.041,0-2.083.012-3.124-.012a.723.723,0,0,1-.475-.27.47.47,0,0,1,.049-.423.51.51,0,0,1,.372-.175q3.187-.016,6.375-.005a.417.417,0,0,1,.477.428.435.435,0,0,1-.487.455C324,431.43,322.936,431.427,321.874,431.428Z" transform="translate(-302.343 -420.432)" fill="#a2a2a2"/>
        <path id="Path_567" data-name="Path 567" d="M180.106,319.216c.074-.271.168-.539.219-.814.058-.315.217-.4.539-.278-.18.59-.353,1.181-.547,1.767-.02.06-.165.119-.243.108a.348.348,0,0,1-.246-.161c-.137-.337-.246-.686-.4-1.122-.145.414-.268.739-.372,1.07a.275.275,0,0,1-.309.23c-.189,0-.222-.1-.263-.243-.162-.552-.331-1.1-.5-1.663.293-.086.477-.056.537.278.053.293.156.578.259.948.133-.4.227-.735.358-1.051a.381.381,0,0,1,.283-.2.376.376,0,0,1,.285.191c.13.3.22.627.326.942Z" transform="translate(-170.967 -315.084)" fill="#a2a2a2"/>
        <path id="Path_568" data-name="Path 568" d="M118.75,318.933v1.078h-.4v-1.878a.421.421,0,0,1,.56.175c.216.319.458.62.741,1v-1.187h.416V320a.45.45,0,0,1-.587-.212c-.2-.306-.433-.587-.651-.878Z" transform="translate(-115.105 -315.103)" fill="#a2a2a2"/>
        <path id="Path_569" data-name="Path 569" d="M394.105,319.344l.418.608a.458.458,0,0,1-.634-.214c-.11-.179-.187-.46-.543-.341v.584h-.426c0-.592-.006-1.169.009-1.746,0-.058.123-.153.2-.162a4.275,4.275,0,0,1,.568-.008c.43,0,.673.146.781.457S394.491,319.058,394.105,319.344Zm-.752-.294c.25-.073.469-.126.677-.209a.349.349,0,0,0,0-.241c-.21-.074-.43-.12-.677-.181Z" transform="translate(-372.292 -315.073)" fill="#a2a2a2"/>
        <path id="Path_570" data-name="Path 570" d="M366.655,320.036v.368H365.2v-1.892h1.451v.352h-1.028l-.023.367h.935l.025.379h-.934v.426Z" transform="translate(-346.33 -315.498)" fill="#a2a2a2"/>
        <path id="Path_571" data-name="Path 571" d="M152.171,320.335v-1.894h1.436v.363H152.6v.364h.912v.39h-.918v.415h1.015v.361Z" transform="translate(-146.787 -315.431)" fill="#a2a2a2"/>
        <path id="Path_572" data-name="Path 572" d="M281.481,319.568v.415h1.013v.362h-1.429v-1.892h1.427v.374h-1v.352h.918l.017.39Z" transform="translate(-267.519 -315.441)" fill="#a2a2a2"/>
        <path id="Path_573" data-name="Path 573" d="M227.038,317.975l-.171.251a4.635,4.635,0,0,0-.619-.132c-.07-.006-.15.1-.225.161.056.066.1.163.17.192.163.068.342.1.511.155a.49.49,0,0,1,.392.536.554.554,0,0,1-.471.523,1.2,1.2,0,0,1-1.117-.286l.195-.24a3.4,3.4,0,0,0,.612.189c.108.013.231-.091.347-.143a1.2,1.2,0,0,0-.259-.251,3.7,3.7,0,0,0-.449-.137.472.472,0,0,1-.364-.458.526.526,0,0,1,.347-.546A1.078,1.078,0,0,1,227.038,317.975Z" transform="translate(-215.48 -314.746)" fill="#a2a2a2"/>
        <path id="Path_574" data-name="Path 574" d="M308.638,318.116v.372l-.572.04v1.508h-.422v-1.527c-.152,0-.266,0-.38,0-.148.007-.271-.03-.224-.2a.3.3,0,0,1,.207-.183C307.707,318.108,308.167,318.116,308.638,318.116Z" transform="translate(-291.841 -315.125)" fill="#a2a2a2"/>
        <path id="Path_575" data-name="Path 575" d="M336.877,318.133v.373l-.565.039v1.5h-.425v-1.5l-.543-.033c-.11-.343-.088-.377.241-.379C336,318.131,336.424,318.133,336.877,318.133Z" transform="translate(-318.307 -315.141)" fill="#a2a2a2"/>
        <path id="Path_576" data-name="Path 576" d="M255.186,318.456h.4v1.523h.939v.374h-1.339Z" transform="translate(-243.28 -315.445)" fill="#a2a2a2"/>
      </g>
    </g>
    <rect id="Rectangle_897" data-name="Rectangle 897" width="32" height="32" transform="translate(874 1398)" fill="none"/>
  </g>
</svg>
