<svg id="safe_orange-48px" xmlns="http://www.w3.org/2000/svg" width="48" height="48" viewBox="0 0 48 48">
  <g id="Layer_1" data-name="Layer 1">
    <rect id="Rectangle_1036" data-name="Rectangle 1036" width="48" height="48" fill="none"/>
    <g id="Group_806" data-name="Group 806">
      <path id="Path_821" data-name="Path 821" d="M47.62,29.58a.9.9,0,0,0-.82-.15,7,7,0,0,1-1.43.25A23.16,23.16,0,0,0,10.18,4a.94.94,0,0,0-.3,1.29,1,1,0,0,0,1.3.3h.05a21.27,21.27,0,0,1,32.22,24,3.56,3.56,0,0,1-2.9-2.13.94.94,0,0,0-1.16-.64,1,1,0,0,0-.64.64c-.6,2-3.84,2.72-6.23,2a1,1,0,0,0-1.17.64.77.77,0,0,0,0,.26v8a7.26,7.26,0,0,0,.79,3.3,5.71,5.71,0,0,0,.35.64A21.29,21.29,0,0,1,1.88,23.11a21.06,21.06,0,0,1,3.65-11.9,1,1,0,0,0-.3-1.3A.94.94,0,0,0,4,10.15,23.15,23.15,0,0,0,33.65,43.72a19.8,19.8,0,0,0,5.59,3.77.93.93,0,0,0,.83,0C44,45.56,48,42.94,48,38.17V30.33a.91.91,0,0,0-.38-.75Zm-1.5,8.59c0,2.93-1.88,5.1-6.46,7.43a15.89,15.89,0,0,1-5-3.55,1.06,1.06,0,0,0-.17-.2c-.08-.09-.15-.19-.22-.28a5.73,5.73,0,0,1-1.08-3.4V31.49a8.31,8.31,0,0,0,5.09-.86,4.87,4.87,0,0,0,1.38-1.07A4.87,4.87,0,0,0,41,30.63a5.77,5.77,0,0,0,1.22.53,8.68,8.68,0,0,0,3.87.33Z" fill="#e97f17"/>
      <path id="Path_822" data-name="Path 822" d="M43,34.36a.94.94,0,0,0-1.32.11l-2.91,3.47-1.15-1a.94.94,0,1,0-1.25,1.4h0L38.23,40a.89.89,0,0,0,.6.22h.08a.93.93,0,0,0,.64-.33l3.52-4.19A1,1,0,0,0,43,34.36Z" fill="#e97f17"/>
      <path id="Path_823" data-name="Path 823" d="M7.45,8.37a.94.94,0,1,0-.67-1.6h0a.94.94,0,0,0,.67,1.6Z" fill="#e97f17"/>
    </g>
    <g id="Group_806-2" data-name="Group 806">
      <path id="Path_821-2" data-name="Path 821" d="M31.33,38.42a6.61,6.61,0,0,0,.16,1.4,7.24,7.24,0,0,1-.16-1.4Zm8.37-18h0L34.56,12.2a.94.94,0,0,0-.8-.43H27.17a4.12,4.12,0,0,0-8,0h-6.6a.91.91,0,0,0-.8.43L6.63,20.41h0a.91.91,0,0,0-.13.48,6.08,6.08,0,0,0,12.16,0,.89.89,0,0,0-.14-.47h0l-4.24-6.79h4.89a4.11,4.11,0,0,0,3.07,3.06V30.92H15a3.37,3.37,0,0,0-3.36,3.37v2.42a.94.94,0,0,0,.93.94H31.32V35.78H13.54V34.29A1.49,1.49,0,0,1,15,32.8H31.32V30.92H24.1V16.68a4.11,4.11,0,0,0,3.07-3.06h4.89L27.82,20.4h0a.91.91,0,0,0-.13.48,6.08,6.08,0,0,0,12.15,0A.89.89,0,0,0,39.7,20.42ZM12.57,25.1a4.2,4.2,0,0,1-4.1-3.26h8.2a4.22,4.22,0,0,1-4.1,3.26ZM16,20H9.12l3.45-5.52Zm7.15-5h0a2.54,2.54,0,1,0,.01-.08Zm10.58-.47L37.2,20H30.3Zm0,10.65a4.22,4.22,0,0,1-4.1-3.26h8.2a4.2,4.2,0,0,1-4.08,3.18Z" fill="#e97f17"/>
    </g>
  </g>
</svg>
