<svg id="safe_white-32px" xmlns="http://www.w3.org/2000/svg" width="32" height="32" viewBox="0 0 32 32">
  <g id="Layer_1" data-name="Layer 1">
    <rect id="Rectangle_1036" data-name="Rectangle 1036" width="32" height="32" fill="none"/>
    <g id="Group_806" data-name="Group 806" transform="translate(0.047 0.025)">
      <path id="Path_821" data-name="Path 821" d="M31.77,19.732a.6.6,0,0,0-.547-.1,4.667,4.667,0,0,1-.953.167A15.44,15.44,0,0,0,6.81,2.679a.627.627,0,0,0-.2.86.667.667,0,0,0,.867.2H7.51a14.18,14.18,0,0,1,21.48,16,2.373,2.373,0,0,1-1.933-1.42.627.627,0,0,0-.773-.427.667.667,0,0,0-.427.427c-.4,1.333-2.56,1.813-4.153,1.333a.667.667,0,0,0-.78.427.513.513,0,0,0,0,.173v5.333a4.84,4.84,0,0,0,.527,2.2,3.807,3.807,0,0,0,.233.427A14.193,14.193,0,0,1,1.277,15.419,14.04,14.04,0,0,1,3.71,7.486a.667.667,0,0,0-.2-.867.627.627,0,0,0-.82.16,15.433,15.433,0,0,0,19.767,22.38,13.2,13.2,0,0,0,3.727,2.513.62.62,0,0,0,.553,0c2.62-1.287,5.287-3.033,5.287-6.213V20.232a.607.607,0,0,0-.253-.5Zm-1,5.727c0,1.953-1.253,3.4-4.307,4.953a10.593,10.593,0,0,1-3.333-2.367.707.707,0,0,0-.113-.133c-.053-.06-.1-.127-.147-.187a3.82,3.82,0,0,1-.72-2.267V21.006a5.54,5.54,0,0,0,3.393-.573,3.247,3.247,0,0,0,.92-.713,3.247,3.247,0,0,0,.893.713,3.847,3.847,0,0,0,.813.353,5.787,5.787,0,0,0,2.58.22Z" transform="translate(-0.071 -0.037)" fill="#fff"/>
      <path id="Path_822" data-name="Path 822" d="M40.671,34.287a.627.627,0,0,0-.88.073l-1.94,2.313-.767-.667a.627.627,0,1,0-.833.933h0l1.24,1.107a.593.593,0,0,0,.4.147h.053a.62.62,0,0,0,.427-.22l2.347-2.793A.667.667,0,0,0,40.671,34.287Z" transform="translate(-12.052 -11.405)" fill="#fff"/>
      <path id="Path_823" data-name="Path 823" d="M7.136,7.743A.627.627,0,1,0,6.69,6.677h0a.627.627,0,0,0,.447,1.067Z" transform="translate(-2.217 -2.188)" fill="#fff"/>
    </g>
    <g id="Group_806-2" data-name="Group 806" transform="translate(4.333 5.758)">
      <path id="Path_821-2" data-name="Path 821" d="M23.053,28.492a4.407,4.407,0,0,0,.107.933,4.827,4.827,0,0,1-.107-.933Zm5.58-12h0l-3.427-5.48a.627.627,0,0,0-.533-.287H20.28a2.747,2.747,0,0,0-5.333,0h-4.4a.607.607,0,0,0-.533.287L6.587,16.486h0a.607.607,0,0,0-.087.32,4.053,4.053,0,0,0,8.107,0,.593.593,0,0,0-.093-.313h0l-2.827-4.527h3.26a2.74,2.74,0,0,0,2.047,2.04v9.487H12.167a2.247,2.247,0,0,0-2.24,2.247v1.613a.627.627,0,0,0,.62.627h12.5V26.732H11.193v-.993a.993.993,0,0,1,.974-.993h10.88V23.492H18.233V14a2.74,2.74,0,0,0,2.047-2.04h3.26l-2.827,4.52h0a.607.607,0,0,0-.087.32,4.053,4.053,0,0,0,8.1,0A.593.593,0,0,0,28.633,16.492Zm-18.087,3.12a2.8,2.8,0,0,1-2.733-2.173H13.28A2.813,2.813,0,0,1,10.547,19.612Zm2.287-3.4H8.247l2.3-3.68ZM17.6,12.879h0a1.693,1.693,0,1,0,.007-.053Zm7.053-.313,2.313,3.647h-4.6Zm0,7.1a2.813,2.813,0,0,1-2.733-2.173h5.467a2.8,2.8,0,0,1-2.72,2.12Z" transform="translate(-6.5 -8.637)" fill="#fff"/>
    </g>
  </g>
</svg>
