<svg xmlns="http://www.w3.org/2000/svg" width="48" height="48" viewBox="0 0 48 48">
  <g id="tax_law_white-48px" transform="translate(16050 7193)">
    <rect id="Rectangle_1041" data-name="Rectangle 1041" width="48" height="48" transform="translate(-16050 -7193)" fill="none"/>
    <g id="gavel" transform="translate(-16050 -7193)">
      <path id="Path_838" data-name="Path 838" d="M96.953,39A3.911,3.911,0,0,0,95.8,36.216L77.091,17.507l3.016-3.015a3.188,3.188,0,0,0,3.746-5.072L75.367.934A3.188,3.188,0,0,0,70.295,4.68l-11.6,11.6a3.187,3.187,0,0,0-3.745,5.071l8.485,8.485a3.187,3.187,0,0,0,5.071-3.745l3.016-3.016,3.292,3.292h0L90.231,41.785A3.937,3.937,0,0,0,96.953,39ZM72.185,2.26a1.312,1.312,0,0,1,1.856,0l8.485,8.485A1.312,1.312,0,1,1,80.67,12.6L72.185,4.116a1.311,1.311,0,0,1,0-1.856ZM71.522,6.1l7.159,7.159L75.1,16.844h0l-4.243,4.243h0L67.28,24.666,60.12,17.507ZM66.617,28.511a1.314,1.314,0,0,1-1.856,0l-8.485-8.485a1.312,1.312,0,0,1,1.856-1.856l8.485,8.485h0A1.314,1.314,0,0,1,66.617,28.511Zm9.148-9.678,2.629,2.629-2.917,2.917-2.629-2.629ZM94.474,40.459a2.062,2.062,0,0,1-2.916,0L76.8,25.7l2.917-2.917L94.474,37.542a2.062,2.062,0,0,1,0,2.917Zm0,0" transform="translate(-48.953 0)" fill="#fff"/>
      <path id="Path_839" data-name="Path 839" d="M32.875,353.25H31.5v-1.844A3.41,3.41,0,0,0,28.094,348H7.531a3.41,3.41,0,0,0-3.406,3.406v1.844H2.75A2.753,2.753,0,0,0,0,356v6.438a.937.937,0,0,0,.937.938h33.75a.937.937,0,0,0,.938-.937V356A2.753,2.753,0,0,0,32.875,353.25Zm.875,8.25H1.875V356a.876.876,0,0,1,.875-.875H13.594a.938.938,0,0,0,0-1.875H6v-1.844a1.533,1.533,0,0,1,1.531-1.531H28.094a1.533,1.533,0,0,1,1.531,1.531v1.844H22.032a.938.938,0,1,0,0,1.875H32.875a.876.876,0,0,1,.875.875Zm0,0" transform="translate(0 -315.375)" fill="#fff"/>
      <path id="Path_840" data-name="Path 840" d="M180.938,404a.938.938,0,1,0,.663.275A.945.945,0,0,0,180.938,404Zm0,0" transform="translate(-163.125 -366.125)" fill="#fff"/>
    </g>
  </g>
</svg>
