<svg xmlns="http://www.w3.org/2000/svg" width="32" height="32" viewBox="0 0 32 32">
  <g id="tax_law_orange-32px" transform="translate(16050 7237)">
    <rect id="Rectangle_1042" data-name="Rectangle 1042" width="32" height="32" transform="translate(-16050 -7237)" fill="none"/>
    <g id="gavel" transform="translate(-16050 -7237)">
      <path id="Path_838" data-name="Path 838" d="M82.641,26a2.608,2.608,0,0,0-.769-1.856L69.4,11.671l2.01-2.01a2.125,2.125,0,0,0,2.5-3.381L68.25.623a2.126,2.126,0,0,0-3.381,2.5l-7.734,7.734a2.125,2.125,0,0,0-2.5,3.381L60.3,19.891a2.125,2.125,0,0,0,3.381-2.5l2.011-2.011,2.195,2.195h0L78.16,27.857A2.625,2.625,0,0,0,82.641,26ZM66.129,1.507a.875.875,0,0,1,1.237,0l5.657,5.657A.875.875,0,1,1,71.786,8.4L66.129,2.744a.874.874,0,0,1,0-1.237ZM65.687,4.07,70.46,8.843l-2.386,2.386h0l-2.828,2.828h0l-2.386,2.386-4.773-4.773Zm-3.27,14.938a.876.876,0,0,1-1.238,0l-5.657-5.657a.875.875,0,0,1,1.237-1.237l5.657,5.657h0A.876.876,0,0,1,62.417,19.007Zm6.1-6.452,1.753,1.753-1.945,1.944L66.571,14.5ZM80.988,26.973a1.374,1.374,0,0,1-1.944,0l-9.836-9.836,1.945-1.945,9.836,9.836a1.374,1.374,0,0,1,0,1.944Zm0,0" transform="translate(-50.641 0)" fill="#e97f17"/>
      <path id="Path_839" data-name="Path 839" d="M21.917,351.5H21v-1.229A2.273,2.273,0,0,0,18.729,348H5.021a2.273,2.273,0,0,0-2.271,2.271V351.5H1.833A1.835,1.835,0,0,0,0,353.333v4.292a.625.625,0,0,0,.625.625h22.5a.625.625,0,0,0,.625-.625v-4.292A1.835,1.835,0,0,0,21.917,351.5ZM22.5,357H1.25v-3.667a.584.584,0,0,1,.583-.583H9.063a.625.625,0,0,0,0-1.25H4v-1.229a1.022,1.022,0,0,1,1.021-1.021H18.729a1.022,1.022,0,0,1,1.021,1.021V351.5H14.688a.625.625,0,1,0,0,1.25h7.229a.584.584,0,0,1,.583.583Zm0,0" transform="translate(0 -326.25)" fill="#e97f17"/>
      <path id="Path_840" data-name="Path 840" d="M180.625,404a.625.625,0,1,0,.442.183A.63.63,0,0,0,180.625,404Zm0,0" transform="translate(-168.75 -378.75)" fill="#e97f17"/>
    </g>
  </g>
</svg>
