<svg id="call_black_24dp" xmlns="http://www.w3.org/2000/svg" width="24" height="24" viewBox="0 0 24 24">
  <path id="Path_501" data-name="Path 501" d="M0,0H24V24H0Z" fill="none"/>
  <path id="call-outgoing" d="M18.111,15.265s-1.957-1.506-1.982-1.531a.9.9,0,0,0-1.267,0c-.022.021-1.671,1.336-1.671,1.336a.818.818,0,0,1-.8.124A12.266,12.266,0,0,1,5.175,7.989a.818.818,0,0,1,.119-.814S6.607,5.526,6.629,5.5a.9.9,0,0,0,0-1.267C6.6,4.212,5.1,2.255,5.1,2.255a.9.9,0,0,0-1.235.031l-.94.818c-4.615,5.546,9.509,18.888,14.369,14.3l.746-.859A.916.916,0,0,0,18.111,15.265Z" transform="translate(1.827 1.816)" fill="#e97f17" stroke="#e97f17" stroke-width="1"/>
</svg>
