<svg xmlns="http://www.w3.org/2000/svg" width="24" height="24" viewBox="0 0 24 24">
  <g id="Group_274" data-name="Group 274" transform="translate(-489 -8011)">
    <rect id="Rectangle_614" data-name="Rectangle 614" width="24" height="24" transform="translate(489 8011)" fill="none"/>
    <g id="linkedin" transform="translate(491 8007.805)">
      <g id="Group_275" data-name="Group 275" transform="translate(0 5.195)">
        <g id="Group_274-2" data-name="Group 274" transform="translate(0 0)">
          <path id="Path_505" data-name="Path 505" d="M2.686,5.2h0A2.674,2.674,0,0,0,.79,5.976,2.638,2.638,0,0,0,0,7.861,2.665,2.665,0,0,0,.806,9.779a2.611,2.611,0,0,0,1.857.754h.058A2.67,2.67,0,0,0,2.686,5.2Z" transform="translate(0 -5.195)" fill="#e97f17"/>
          <path id="Path_506" data-name="Path 506" d="M12.2,158.941H9.508a.988.988,0,0,0-.972,1v11.665a1.012,1.012,0,0,0,1,1H12.2a1,1,0,0,0,1-.977V159.941A1.013,1.013,0,0,0,12.2,158.941Z" transform="translate(-8.203 -152.935)" fill="#e97f17"/>
          <path id="Path_507" data-name="Path 507" d="M179.378,150.408h-.7a4.494,4.494,0,0,0-3.341,1.462v-.462a.722.722,0,0,0-.667-.667h-3.333a.683.683,0,0,0-.667.626V163.8a.656.656,0,0,0,.667.6H175a.655.655,0,0,0,.667-.6V156.62a1.875,1.875,0,0,1,3.213-1.39,1.833,1.833,0,0,1,.453,1.362v7.15a.722.722,0,0,0,.667.667h3.333a.722.722,0,0,0,.667-.667v-8.6A4.628,4.628,0,0,0,179.378,150.408Z" transform="translate(-164.001 -144.736)" fill="#e97f17"/>
        </g>
      </g>
    </g>
  </g>
</svg>
