<svg id="email_black_24dp" xmlns="http://www.w3.org/2000/svg" width="24" height="24" viewBox="0 0 24 24">
  <path id="Path_503" data-name="Path 503" d="M0,0H24V24H0Z" fill="none"/>
  <path id="Union_2" data-name="Union 2" d="M1.508,15.592A1.509,1.509,0,0,1,0,14.082V1.508A1.509,1.509,0,0,1,1.508,0h17.1a1.509,1.509,0,0,1,1.509,1.508V14.082a1.51,1.51,0,0,1-1.509,1.509Zm-.15-1.509a.151.151,0,0,0,.15.151h17.1a.151.151,0,0,0,.151-.151V5.262L10.72,11.376a1.509,1.509,0,0,1-1.827,0L1.358,5.645ZM9.715,10.3a.15.15,0,0,0,.182,0l8.861-6.74V1.508a.151.151,0,0,0-.151-.15H1.508a.151.151,0,0,0-.15.15v2.43Z" transform="translate(1.942 4.204)" fill="#e97f17"/>
</svg>
