<svg xmlns="http://www.w3.org/2000/svg" width="72" height="72" viewBox="0 0 72 72">
  <g id="multi_dis" transform="translate(16250 7500)">
    <rect id="Rectangle_1032" data-name="Rectangle 1032" width="72" height="72" transform="translate(-16250 -7500)" fill="none"/>
    <g id="community" transform="translate(-16248 -7499.09)">
      <g id="Group_807" data-name="Group 807" transform="translate(0 24.033)">
        <path id="Path_824" data-name="Path 824" d="M67.053,167.016c-1.5-.784-3.758-.538-5.175,1.855l-.012.021-5.237,9.2a3.6,3.6,0,0,0-4.506,1.009c-.375.487-1.613,2.153-2.924,3.918-.719.967-1.437,1.934-1.992,2.678a1.372,1.372,0,0,0,.264,1.908,1.337,1.337,0,0,0,1.887-.267c.556-.745,1.275-1.713,2-2.682,1.246-1.677,2.535-3.412,2.9-3.88a.925.925,0,0,1,1.289-.169c.291.228.275.788-.046,1.663a57.893,57.893,0,0,1-3.9,8.538,1.371,1.371,0,0,0,.485,1.863,1.339,1.339,0,0,0,1.843-.49,60.776,60.776,0,0,0,4.1-8.963,5.4,5.4,0,0,0,.369-2.754L64.2,170.261c.469-.787,1.089-1.1,1.619-.826a1.028,1.028,0,0,1,.346,1.433c-.393.878-1.239,3.051-2.31,5.8-1.417,3.639-3.181,8.168-4.671,11.692-1.816,4.293-2.515,5.33-5.756,8.535L48.259,202a1.373,1.373,0,0,0-.366,1.3l1.8,7.386.007.027a.239.239,0,0,1-.066.231H39.1c-1,0-1.215-.288-1.439-.9-2.643-7.238.083-11.392,2.754-14.2a1.373,1.373,0,0,0-.038-1.926,1.337,1.337,0,0,0-1.905.039,16.374,16.374,0,0,0-3.97,6.449,14.29,14.29,0,0,0-1.162-2.7c-1.832-3.3-4.809-5.712-7.2-7.653a22.889,22.889,0,0,1-3.445-3.155c-.36-.467-1.648-2.2-2.893-3.877-1.311-1.765-2.549-3.432-2.924-3.918a3.6,3.6,0,0,0-4.506-1.009l-5.237-9.2-.012-.021c-1.418-2.393-3.677-2.639-5.176-1.855a3.738,3.738,0,0,0-1.571,4.958l.006.013c.26.579.782,1.9,1.207,2.984a1.343,1.343,0,0,0,1.749.764,1.367,1.367,0,0,0,.756-1.769c-.655-1.668-1.03-2.6-1.255-3.1a1.028,1.028,0,0,1,.346-1.433c.53-.277,1.15.039,1.62.826l5.807,10.205a5.4,5.4,0,0,0,.369,2.754,60.754,60.754,0,0,0,4.1,8.963,1.339,1.339,0,0,0,1.843.49,1.371,1.371,0,0,0,.485-1.863,57.92,57.92,0,0,1-3.9-8.538c-.321-.875-.337-1.434-.046-1.663a.925.925,0,0,1,1.289.169c.36.468,1.649,2.2,2.9,3.88,1.31,1.763,2.547,3.429,2.922,3.915a24.423,24.423,0,0,0,3.884,3.606c4.849,3.934,10.346,8.394,6.886,17.869-.224.612-.438.9-1.439.9H19.368a.239.239,0,0,1-.066-.231l.007-.027,1.8-7.386a1.372,1.372,0,0,0-.366-1.3L15.576,196.9c-3.241-3.2-3.94-4.242-5.756-8.535-.373-.882-.792-1.9-1.246-3.016a1.342,1.342,0,0,0-1.758-.744,1.368,1.368,0,0,0-.736,1.777c.466,1.148.878,2.147,1.262,3.054,1.958,4.63,2.848,5.95,6.35,9.412l4.615,4.564-1.613,6.619a3.006,3.006,0,0,0,.511,2.553,2.686,2.686,0,0,0,2.144,1.092H29.9a3.815,3.815,0,0,0,3.967-2.681q.374-1.024.635-2.011.261.992.632,2.011a3.815,3.815,0,0,0,3.967,2.681h10.55a2.686,2.686,0,0,0,2.144-1.092,3.006,3.006,0,0,0,.511-2.553l-1.613-6.619,4.615-4.564c3.5-3.462,4.391-4.782,6.35-9.412,1.506-3.56,3.277-8.109,4.7-11.765,1.018-2.613,1.9-4.871,2.26-5.681l.006-.013A3.737,3.737,0,0,0,67.053,167.016Z" transform="translate(0 -166.616)" fill="#222"/>
        <path id="Path_825" data-name="Path 825" d="M30.336,257.489a1.362,1.362,0,0,0-1.362-1.362h0a1.362,1.362,0,1,0,1.363,1.362Z" transform="translate(-23.85 -243.933)" fill="#e97f17"/>
        <path id="Path_826" data-name="Path 826" d="M317.986,334.644a1.362,1.362,0,1,0,1.363,1.362,1.362,1.362,0,0,0-1.363-1.362Z" transform="translate(-273.981 -311.754)" fill="#e97f17"/>
      </g>
      <g id="Group_889" data-name="Group 889" transform="translate(11.022 12.363)">
        <path id="Path_921" data-name="Path 921" d="M280.41,81.4a2,2,0,0,0,1.914-1.442,1.546,1.546,0,0,1,2.339-1.349,2,2,0,0,0,2.2-.938l1.2-2.083a2,2,0,0,0-.291-2.38,1.547,1.547,0,0,1,0-2.7,2,2,0,0,0,.292-2.379l-1.2-2.084a2,2,0,0,0-2.206-.938,1.546,1.546,0,0,1-2.338-1.351,2,2,0,0,0-1.914-1.441H278a2,2,0,0,0-1.915,1.442,1.546,1.546,0,0,1-2.339,1.349,2,2,0,0,0-2.2.937l-1.2,2.085a2,2,0,0,0,.292,2.378,1.546,1.546,0,0,1,0,2.7,2,2,0,0,0-.292,2.379l1.2,2.083a2,2,0,0,0,2.206.938,1.546,1.546,0,0,1,2.337,1.351A2,2,0,0,0,278,81.4h2.406Zm-6.568-4.957-.528.132-1.138-1.97a3.494,3.494,0,0,0,0-5.491l1.138-1.97a3.494,3.494,0,0,0,4.755-2.746h2.275a3.494,3.494,0,0,0,4.756,2.746l1.137,1.97a3.5,3.5,0,0,0,0,5.491l-1.137,1.97a3.494,3.494,0,0,0-4.756,2.746h-2.275a4.121,4.121,0,0,0-1.238-2.2A3.408,3.408,0,0,0,273.841,76.445Z" transform="translate(-270.077 -62.319)" fill="#e97f17"/>
        <path id="Path_922" data-name="Path 922" d="M329.259,121.709a3.758,3.758,0,1,0-3.758,3.758A3.763,3.763,0,0,0,329.259,121.709Zm-5.437,0a1.679,1.679,0,1,1,1.679,1.679A1.681,1.681,0,0,1,323.822,121.709Z" transform="translate(-316.368 -112.167)" fill="#e97f17"/>
      </g>
      <g id="Group_890" data-name="Group 890" transform="translate(39.87 12.365)">
        <path id="Path_923" data-name="Path 923" d="M280.41,81.4a2,2,0,0,0,1.914-1.442,1.546,1.546,0,0,1,2.339-1.349,2,2,0,0,0,2.2-.938l1.2-2.083a2,2,0,0,0-.291-2.38,1.547,1.547,0,0,1,0-2.7,2,2,0,0,0,.292-2.379l-1.2-2.084a2,2,0,0,0-2.206-.938,1.546,1.546,0,0,1-2.338-1.351,2,2,0,0,0-1.914-1.441H278a2,2,0,0,0-1.915,1.442,1.546,1.546,0,0,1-2.339,1.349,2,2,0,0,0-2.2.937l-1.2,2.085a2,2,0,0,0,.292,2.378,1.546,1.546,0,0,1,0,2.7,2,2,0,0,0-.292,2.379l1.2,2.083a2,2,0,0,0,2.206.938,1.546,1.546,0,0,1,2.337,1.351A2,2,0,0,0,278,81.4h2.406Zm-6.568-4.957-.528.132-1.138-1.97a3.494,3.494,0,0,0,0-5.491l1.138-1.97a3.494,3.494,0,0,0,4.755-2.746h2.275a3.494,3.494,0,0,0,4.756,2.746l1.137,1.97a3.5,3.5,0,0,0,0,5.491l-1.137,1.97a3.494,3.494,0,0,0-4.756,2.746h-2.275a4.121,4.121,0,0,0-1.238-2.2A3.408,3.408,0,0,0,273.841,76.445Z" transform="translate(-270.077 -62.319)" fill="#e97f17"/>
        <path id="Path_924" data-name="Path 924" d="M329.259,121.709a3.758,3.758,0,1,0-3.758,3.758A3.763,3.763,0,0,0,329.259,121.709Zm-5.437,0a1.679,1.679,0,1,1,1.679,1.679A1.681,1.681,0,0,1,323.822,121.709Z" transform="translate(-316.373 -112.167)" fill="#e97f17"/>
      </g>
      <g id="Group_891" data-name="Group 891" transform="translate(25.386 -0.91)">
        <path id="Path_925" data-name="Path 925" d="M280.41,81.4a2,2,0,0,0,1.914-1.442,1.546,1.546,0,0,1,2.339-1.349,2,2,0,0,0,2.2-.938l1.2-2.083a2,2,0,0,0-.291-2.38,1.547,1.547,0,0,1,0-2.7,2,2,0,0,0,.292-2.379l-1.2-2.084a2,2,0,0,0-2.206-.938,1.546,1.546,0,0,1-2.338-1.351,2,2,0,0,0-1.914-1.441H278a2,2,0,0,0-1.915,1.442,1.546,1.546,0,0,1-2.339,1.349,2,2,0,0,0-2.2.937l-1.2,2.085a2,2,0,0,0,.292,2.378,1.546,1.546,0,0,1,0,2.7,2,2,0,0,0-.292,2.379l1.2,2.083a2,2,0,0,0,2.206.938,1.546,1.546,0,0,1,2.337,1.351A2,2,0,0,0,278,81.4h2.406Zm-6.568-4.957-.528.132-1.138-1.97a3.494,3.494,0,0,0,0-5.491l1.138-1.97a3.494,3.494,0,0,0,4.755-2.746h2.275a3.494,3.494,0,0,0,4.756,2.746l1.137,1.97a3.5,3.5,0,0,0,0,5.491l-1.137,1.97a3.494,3.494,0,0,0-4.756,2.746h-2.275a4.121,4.121,0,0,0-1.238-2.2A3.408,3.408,0,0,0,273.841,76.445Z" transform="translate(-270.077 -62.319)" fill="#e97f17"/>
        <path id="Path_926" data-name="Path 926" d="M329.259,121.709a3.758,3.758,0,1,0-3.758,3.758A3.763,3.763,0,0,0,329.259,121.709Zm-5.437,0a1.679,1.679,0,1,1,1.679,1.679A1.681,1.681,0,0,1,323.822,121.709Z" transform="translate(-316.368 -112.167)" fill="#e97f17"/>
      </g>
    </g>
  </g>
</svg>
