<svg id="multi_disciplinary_services" xmlns="http://www.w3.org/2000/svg" width="72" height="72" viewBox="0 0 72 72">
  <g id="Group_840" data-name="Group 840" transform="translate(0 0)">
    <path id="Path_870" data-name="Path 870" d="M21.534,24.033V21.576a10.848,10.848,0,0,0-4.768-8.93,6.715,6.715,0,0,0,.757-3.1V6.867c-.341-8.952-13.174-8.945-13.511,0V9.542a6.714,6.714,0,0,0,.757,3.1A10.848,10.848,0,0,0,0,21.576v2.457A1.407,1.407,0,0,0,1.407,25.44h18.72a1.407,1.407,0,0,0,1.407-1.407ZM6.826,6.867a3.942,3.942,0,0,1,7.883,0V9.542a3.942,3.942,0,0,1-7.883,0ZM18.72,22.625H2.814v-1.05a8.018,8.018,0,0,1,3.755-6.745,6.8,6.8,0,0,0,8.4,0,8.018,8.018,0,0,1,3.755,6.745v1.05Z" transform="translate(0 -0.156)" fill="#222"/>
    <path id="Path_871" data-name="Path 871" d="M124.394,12.646a6.718,6.718,0,0,0,.756-3.1V6.868c-.34-8.952-13.165-8.945-13.5,0V9.542a6.718,6.718,0,0,0,.756,3.1,10.85,10.85,0,0,0-4.765,8.93v2.457a1.407,1.407,0,0,0,1.406,1.407h7.947V41.285L105.854,47.72l1.406,2.437L119.1,43.316a1.407,1.407,0,0,0,.7-1.219V25.44h7.947a1.407,1.407,0,0,0,1.406-1.407V21.576a10.85,10.85,0,0,0-4.764-8.93ZM114.46,6.868a3.939,3.939,0,1,1,7.877,0V9.542a3.939,3.939,0,0,1-7.877,0Zm11.886,15.758H110.452v-1.05a8.019,8.019,0,0,1,3.752-6.745,6.79,6.79,0,0,0,8.39,0,8.019,8.019,0,0,1,3.752,6.745Z" transform="translate(-57.158 -0.156)" fill="#222"/>
    <path id="Path_872" data-name="Path 872" d="M223.539,364.067a5.316,5.316,0,1,0,5.316,5.316A5.322,5.322,0,0,0,223.539,364.067Zm0,7.817a2.5,2.5,0,1,1,2.5-2.5A2.5,2.5,0,0,1,223.539,371.884Z" transform="translate(-187.539 -312.861)" fill="#e97f17"/>
    <path id="Path_873" data-name="Path 873" d="M66.519,206.305a1.407,1.407,0,0,0,2.814,0h0A1.407,1.407,0,0,0,66.519,206.305Z" transform="translate(-57.159 -176.096)" fill="#e97f17"/>
    <path id="Path_918" data-name="Path 918" d="M105.854,47.72l-.859-1.489a1.405,1.405,0,0,0-1.782-.585L100.575,46.8A12.23,12.23,0,0,0,98,45.313l-.318-2.861a1.407,1.407,0,0,0-1.4-1.252H90.037a1.406,1.406,0,0,0-1.4,1.252l-.318,2.861A12.238,12.238,0,0,0,85.748,46.8l-2.638-1.156a1.4,1.4,0,0,0-1.782.585l-.859,1.489-1.406,2.437L78.2,51.647a1.408,1.408,0,0,0,.384,1.837l2.32,1.708a12.442,12.442,0,0,0,0,2.973l-2.32,1.708a1.408,1.408,0,0,0-.384,1.837l3.125,5.416a1.405,1.405,0,0,0,1.782.585l2.637-1.156a12.222,12.222,0,0,0,2.573,1.489l.318,2.861a1.407,1.407,0,0,0,1.4,1.252h6.249a1.406,1.406,0,0,0,1.4-1.252L98,68.043a12.236,12.236,0,0,0,2.573-1.489l2.638,1.156a1.406,1.406,0,0,0,1.782-.585l3.125-5.416a1.408,1.408,0,0,0-.384-1.837l-2.32-1.708a12.451,12.451,0,0,0,0-2.973l2.32-1.708a1.408,1.408,0,0,0,.384-1.837l-.859-1.489Zm-3.34,7.114a9.638,9.638,0,0,1,0,3.687,1.407,1.407,0,0,0,.547,1.4l1.994,1.468-1.866,3.235-2.269-.995a1.4,1.4,0,0,0-1.49.229,9.473,9.473,0,0,1-3.186,1.844,1.407,1.407,0,0,0-.943,1.176l-.273,2.461H91.3l-.273-2.46a1.407,1.407,0,0,0-.943-1.176,9.469,9.469,0,0,1-3.186-1.844,1.4,1.4,0,0,0-1.49-.229l-2.269.995-1.866-3.235,1.994-1.468a1.408,1.408,0,0,0,.547-1.4,9.625,9.625,0,0,1,0-3.686,1.408,1.408,0,0,0-.547-1.4l-1.994-1.468,1.866-3.235,2.269.995a1.4,1.4,0,0,0,1.49-.229,9.475,9.475,0,0,1,3.186-1.844,1.407,1.407,0,0,0,.943-1.176l.273-2.461h3.732l.273,2.461a1.407,1.407,0,0,0,.943,1.176,9.471,9.471,0,0,1,3.185,1.844,1.405,1.405,0,0,0,1.49.229l2.269-.995,1.866,3.235-1.994,1.468A1.408,1.408,0,0,0,102.514,54.835Z" transform="translate(-57.158 -0.156)" fill="#e97f17"/>
    <path id="Path_919" data-name="Path 919" d="M80.469,47.72,69.33,41.285V36.7a1.406,1.406,0,0,0-2.812,0v5.4a1.407,1.407,0,0,0,.7,1.219l11.842,6.842Z" transform="translate(-57.158 -0.156)" fill="#222"/>
    <path id="Path_920" data-name="Path 920" d="M94.568,41.2V25.44h7.947a1.407,1.407,0,0,0,1.406-1.407V21.576a10.85,10.85,0,0,0-4.765-8.93,6.718,6.718,0,0,0,.756-3.1V6.868c-.34-8.952-13.165-8.945-13.5,0V9.542a6.718,6.718,0,0,0,.756,3.1,10.85,10.85,0,0,0-4.765,8.93v2.457a1.407,1.407,0,0,0,1.406,1.407h7.947V41.2ZM89.223,6.868a3.939,3.939,0,1,1,7.877,0V9.542a3.939,3.939,0,0,1-7.877,0ZM85.214,21.576a8.019,8.019,0,0,1,3.752-6.745,6.79,6.79,0,0,0,8.39,0,8.019,8.019,0,0,1,3.752,6.745v1.05H85.214Z" transform="translate(-57.158 -0.156)" fill="#222"/>
  </g>
</svg>
