<svg xmlns="http://www.w3.org/2000/svg" width="72" height="72" viewBox="0 0 72 72">
  <g id="sectoral_exposure" transform="translate(16259 7345)">
    <rect id="Rectangle_1031" data-name="Rectangle 1031" width="72" height="72" transform="translate(-16259 -7345)" fill="none"/>
    <g id="skills" transform="translate(-16259 -7341)">
      <g id="Group_842" data-name="Group 842" transform="translate(15.481 19.406)">
        <g id="Group_841" data-name="Group 841">
          <path id="Path_878" data-name="Path 878" d="M138.141,187.474a1.41,1.41,0,0,0-.607-.042l-.071,0a9.785,9.785,0,0,0,2.962-7.017V166.406A1.406,1.406,0,0,0,139.018,165H128.6a7.817,7.817,0,0,0-7.808,7.808v7.6a9.785,9.785,0,0,0,2.962,7.017l-.071,0a1.412,1.412,0,0,0-.607.042,14.293,14.293,0,0,0-12.987,14.215v6.905A1.406,1.406,0,0,0,111.5,210h38.225a1.406,1.406,0,0,0,1.406-1.406v-6.9A14.293,14.293,0,0,0,138.141,187.474Zm-14.535-12.7v-1.97h0a5,5,0,0,1,5-5h9.01v3.763a3.452,3.452,0,0,1-3.449,3.448H123.605v-.246Zm0,5.634v-2.575h10.558a6.224,6.224,0,0,0,3.449-1.039v3.614a7,7,0,1,1-14.006,0Zm10.738,9.816-3.735,3.735-3.735-3.735Zm13.972,16.96H112.9V203.14h11.476a1.406,1.406,0,1,0,0-2.812H112.986a11.48,11.48,0,0,1,10-10.014l6.632,6.632a1.406,1.406,0,0,0,1.989,0l6.632-6.632a11.476,11.476,0,0,1,10.08,11.375Z" transform="translate(-110.09 -165)" fill="#222"/>
        </g>
      </g>
      <g id="Group_844" data-name="Group 844" transform="translate(34.594 54.734)">
        <g id="Group_843" data-name="Group 843">
          <path id="Path_879" data-name="Path 879" d="M248.4,416.632a1.405,1.405,0,1,0,.412.994A1.416,1.416,0,0,0,248.4,416.632Z" transform="translate(-246 -416.22)" fill="#e97f17"/>
        </g>
      </g>
      <g id="Group_846" data-name="Group 846" transform="translate(30.674 0)">
        <g id="Group_845" data-name="Group 845">
          <path id="Path_880" data-name="Path 880" d="M223.471,27a5.343,5.343,0,0,0-1.406,10.5v3.434a1.406,1.406,0,0,0,2.813,0V37.5A5.343,5.343,0,0,0,223.471,27Zm0,7.875A2.531,2.531,0,1,1,226,32.344,2.534,2.534,0,0,1,223.471,34.875Z" transform="translate(-218.127 -27)" fill="#e97f17"/>
        </g>
      </g>
      <g id="Group_848" data-name="Group 848" transform="translate(52.991 9.404)">
        <g id="Group_847" data-name="Group 847">
          <path id="Path_881" data-name="Path 881" d="M388.083,95.436a5.343,5.343,0,0,0-8.418,6.429l-2.429,2.429a1.406,1.406,0,0,0,1.989,1.989l2.427-2.427a5.344,5.344,0,0,0,6.43-8.419ZM386.094,101a2.531,2.531,0,1,1,.742-1.79A2.534,2.534,0,0,1,386.094,101Z" transform="translate(-376.824 -93.871)" fill="#e97f17"/>
        </g>
      </g>
      <g id="Group_850" data-name="Group 850" transform="translate(56.661 33.867)">
        <g id="Group_849" data-name="Group 849">
          <path id="Path_882" data-name="Path 882" d="M412.917,267.833a5.352,5.352,0,0,0-5.155,3.938h-3.434a1.406,1.406,0,1,0,0,2.812h3.434a5.343,5.343,0,1,0,5.155-6.75Zm0,7.875a2.531,2.531,0,1,1,2.531-2.531A2.534,2.534,0,0,1,412.917,275.708Z" transform="translate(-402.922 -267.833)" fill="#e97f17"/>
        </g>
      </g>
      <g id="Group_852" data-name="Group 852" transform="translate(51.328 37.804)">
        <g id="Group_851" data-name="Group 851">
          <path id="Path_883" data-name="Path 883" d="M367.4,296.242a1.405,1.405,0,1,0,.412.994A1.416,1.416,0,0,0,367.4,296.242Z" transform="translate(-365 -295.83)" fill="#222"/>
        </g>
      </g>
      <g id="Group_854" data-name="Group 854" transform="translate(0 33.831)">
        <g id="Group_853" data-name="Group 853">
          <path id="Path_884" data-name="Path 884" d="M13.933,271.516H10.5a5.344,5.344,0,1,0,0,2.813h3.434a1.406,1.406,0,0,0,0-2.812Zm-8.589,3.938a2.531,2.531,0,1,1,2.531-2.531A2.534,2.534,0,0,1,5.344,275.454Z" transform="translate(0 -267.579)" fill="#e97f17"/>
        </g>
      </g>
      <g id="Group_856" data-name="Group 856" transform="translate(6.103 9.268)">
        <g id="Group_855" data-name="Group 855">
          <path id="Path_885" data-name="Path 885" d="M55.808,103.33,53.38,100.9a5.342,5.342,0,1,0-1.989,1.989l2.427,2.427a1.406,1.406,0,1,0,1.989-1.989Zm-5.277-3.29h0a2.531,2.531,0,1,1,.742-1.79A2.534,2.534,0,0,1,50.53,100.041Z" transform="translate(-43.399 -92.907)" fill="#e97f17"/>
        </g>
      </g>
    </g>
  </g>
</svg>
