<svg id="target" xmlns="http://www.w3.org/2000/svg" width="72" height="72" viewBox="0 0 72 72">
  <path id="Path_886" data-name="Path 886" d="M70.594,34.594H67.749A31.763,31.763,0,0,0,37.406,4.251V1.406a1.406,1.406,0,0,0-2.812,0V4.251A31.762,31.762,0,0,0,4.251,34.594H1.406a1.406,1.406,0,0,0,0,2.813H4.251A31.761,31.761,0,0,0,34.594,67.749v2.845a1.406,1.406,0,0,0,2.813,0V67.75a31.431,31.431,0,0,0,17.3-6.049,1.406,1.406,0,0,0-1.66-2.271,28.636,28.636,0,0,1-15.64,5.5V62.156a1.406,1.406,0,0,0-2.812,0v2.779A28.955,28.955,0,0,1,7.065,37.406H9.844a1.406,1.406,0,0,0,0-2.812H7.065A28.954,28.954,0,0,1,34.594,7.065V9.844a1.406,1.406,0,1,0,2.813,0V7.065A28.952,28.952,0,0,1,64.935,34.594H62.156a1.406,1.406,0,1,0,0,2.811h2.775A28.869,28.869,0,0,1,61.1,50.5a1.406,1.406,0,0,0,2.433,1.411,31.69,31.69,0,0,0,4.221-14.5h2.844a1.406,1.406,0,1,0,0-2.812Z" transform="translate(0 0)" fill="#222"/>
  <circle id="Ellipse_127" data-name="Ellipse 127" cx="1.916" cy="1.916" r="1.916" transform="translate(56.255 53.655)" fill="#e97f17"/>
  <g id="Group_886" data-name="Group 886" transform="translate(18.82 29.812)">
    <g id="Group_860" data-name="Group 860">
      <path id="Path_905" data-name="Path 905" d="M149.241,211.587a1.406,1.406,0,0,0-1.8.849l-2.059,5.741-2.059-5.741a1.406,1.406,0,0,0-2.647,0l-2.059,5.741-2.059-5.741a1.406,1.406,0,1,0-2.647.95l3.383,9.43a1.406,1.406,0,0,0,2.647,0L142,217.075l2.059,5.741a1.406,1.406,0,0,0,2.647,0l3.383-9.43A1.406,1.406,0,0,0,149.241,211.587Z" transform="translate(-133.827 -211.504)" fill="#e97f17"/>
    </g>
  </g>
  <g id="Group_887" data-name="Group 887" transform="translate(37.508 29.812)">
    <g id="Group_862" data-name="Group 862">
      <path id="Path_906" data-name="Path 906" d="M268.125,211.507a1.406,1.406,0,0,0-1.406,1.406v9.563a1.406,1.406,0,0,0,2.813,0v-9.562A1.406,1.406,0,0,0,268.125,211.507Z" transform="translate(-266.719 -211.507)" fill="#e97f17"/>
    </g>
  </g>
  <g id="Group_888" data-name="Group 888" transform="translate(43.11 29.812)">
    <g id="Group_864" data-name="Group 864">
      <path id="Path_907" data-name="Path 907" d="M315.225,211.507a1.406,1.406,0,0,0-1.406,1.406V218.3l-4.73-6.233a1.406,1.406,0,0,0-2.526.85v9.563a1.406,1.406,0,0,0,2.813,0v-5.383l4.73,6.233a1.406,1.406,0,0,0,2.526-.85v-9.562A1.406,1.406,0,0,0,315.225,211.507Z" transform="translate(-306.562 -211.507)" fill="#e97f17"/>
    </g>
  </g>
</svg>
