<svg xmlns="http://www.w3.org/2000/svg" width="64" height="64" viewBox="0 0 64 64">
  <g id="articleship_icon" transform="translate(14526 13446)">
    <rect id="Rectangle_1022" data-name="Rectangle 1022" width="64" height="64" transform="translate(-14526 -13446)" fill="none"/>
    <g id="transcription" transform="translate(-14526 -13446)">
      <path id="Path_774" data-name="Path 774" d="M111.25,47.5H125a1.25,1.25,0,1,0,0-2.5H111.25a1.25,1.25,0,0,0,0,2.5Z" transform="translate(-96.25 -39.375)" fill="#e97f17"/>
      <path id="Path_775" data-name="Path 775" d="M51.25,152.5H67.875a1.25,1.25,0,0,0,0-2.5H51.25a1.25,1.25,0,0,0,0,2.5Z" transform="translate(-43.75 -131.25)" fill="#e97f17"/>
      <path id="Path_776" data-name="Path 776" d="M235.75,150h-6.5a1.25,1.25,0,0,0,0,2.5h6.5a1.25,1.25,0,0,0,0-2.5Z" transform="translate(-199.5 -131.25)" fill="#e97f17"/>
      <path id="Path_777" data-name="Path 777" d="M200.75,110h-11.5a1.25,1.25,0,0,0,0,2.5h11.5a1.25,1.25,0,0,0,0-2.5Z" transform="translate(-164.5 -96.25)" fill="#e97f17"/>
      <path id="Path_778" data-name="Path 778" d="M51.25,112.5H62.875a1.25,1.25,0,1,0,0-2.5H51.25a1.25,1.25,0,0,0,0,2.5Z" transform="translate(-43.75 -96.25)" fill="#e97f17"/>
      <path id="Path_779" data-name="Path 779" d="M65.625,230H51.25a1.25,1.25,0,0,0,0,2.5H65.625a1.25,1.25,0,0,0,0-2.5Z" transform="translate(-43.75 -201.25)" fill="#e97f17"/>
      <path id="Path_780" data-name="Path 780" d="M51.25,192.5H62.875a1.25,1.25,0,1,0,0-2.5H51.25a1.25,1.25,0,0,0,0,2.5Z" transform="translate(-43.75 -166.25)" fill="#e97f17"/>
      <path id="Path_781" data-name="Path 781" d="M200.75,190h-11.5a1.25,1.25,0,0,0,0,2.5h11.5a1.25,1.25,0,0,0,0-2.5Z" transform="translate(-164.5 -166.25)" fill="#e97f17"/>
      <path id="Path_782" data-name="Path 782" d="M50,311.25a1.252,1.252,0,0,0,1.25,1.25H62.875a1.25,1.25,0,1,0,0-2.5H51.25A1.252,1.252,0,0,0,50,311.25Z" transform="translate(-43.75 -271.25)" fill="#e97f17"/>
      <path id="Path_794" data-name="Path 794" d="M50,311.25a1.247,1.247,0,0,0,1.239,1.25H62.761a1.25,1.25,0,0,0,0-2.5H51.239A1.247,1.247,0,0,0,50,311.25Z" transform="translate(-33 -276.25)" fill="#e97f17"/>
      <path id="Path_783" data-name="Path 783" d="M51.25,272.5h6.625a1.25,1.25,0,0,0,0-2.5H51.25a1.25,1.25,0,0,0,0,2.5Z" transform="translate(-43.75 -236.25)" fill="#e97f17"/>
      <path id="Path_797" data-name="Path 797" d="M51.25,272.5h6.625a1.25,1.25,0,0,0,0-2.5H51.25a1.25,1.25,0,0,0,0,2.5Z" transform="translate(-25.125 -241.25)" fill="#e97f17"/>
      <path id="Path_784" data-name="Path 784" d="M50,431.25a1.25,1.25,0,0,0,1.25,1.25H65.625a1.25,1.25,0,0,0,0-2.5H51.25A1.25,1.25,0,0,0,50,431.25Z" transform="translate(-43.75 -376.25)" fill="#e97f17"/>
      <path id="Path_785" data-name="Path 785" d="M50,391.25a1.252,1.252,0,0,0,1.25,1.25H62.875a1.25,1.25,0,1,0,0-2.5H51.25A1.252,1.252,0,0,0,50,391.25Z" transform="translate(-43.75 -341.25)" fill="#e97f17"/>
      <path id="Path_795" data-name="Path 795" d="M50,391.25a1.247,1.247,0,0,0,1.239,1.25H62.761a1.25,1.25,0,0,0,0-2.5H51.239A1.247,1.247,0,0,0,50,391.25Z" transform="translate(-33 -346.25)" fill="#e97f17"/>
      <path id="Path_786" data-name="Path 786" d="M51.25,352.5h6.625a1.25,1.25,0,0,0,0-2.5H51.25a1.25,1.25,0,0,0,0,2.5Z" transform="translate(-43.75 -306.25)" fill="#e97f17"/>
      <path id="Path_796" data-name="Path 796" d="M51.25,352.5h6.625a1.25,1.25,0,0,0,0-2.5H51.25a1.25,1.25,0,0,0,0,2.5Z" transform="translate(-28.125 -311.25)" fill="#e97f17"/>
      <path id="Path_798" data-name="Path 798" d="M51.25,352.5h6.625a1.25,1.25,0,0,0,0-2.5H51.25a1.25,1.25,0,0,0,0,2.5Z" transform="translate(-28.125 -301.25)" fill="#e97f17"/>
      <path id="Path_799" data-name="Path 799" d="M51.25,352.5h6.625a1.25,1.25,0,0,0,0-2.5H51.25a1.25,1.25,0,0,0,0,2.5Z" transform="translate(-26 -296.25)" fill="#e97f17"/>
      <path id="Path_787" data-name="Path 787" d="M62.615,39.514A17.661,17.661,0,0,0,43.75,28.943V10a1.25,1.25,0,0,0-.334-.848c-.009-.011-.019-.023-.032-.036L34.634.366A.423.423,0,0,0,34.6.335,1.25,1.25,0,0,0,33.75,0H1.25A1.25,1.25,0,0,0,0,1.25v61.5A1.25,1.25,0,0,0,1.25,64H42.5a1.244,1.244,0,0,0,.776-.271,17.723,17.723,0,0,0,10.632-1.415,1.25,1.25,0,1,0-1.07-2.26,15.113,15.113,0,1,1,7.209-7.2,1.25,1.25,0,0,0,2.259,1.073A18.109,18.109,0,0,0,64,46.375a17.526,17.526,0,0,0-1.385-6.861ZM35,4.268,39.482,8.75H35Zm6.25,25.239a17.525,17.525,0,0,0-4.729,2.253,13.518,13.518,0,0,0-2.442,1.99,13.455,13.455,0,0,0-2.132,2.5,11.245,11.245,0,0,0-1.466,2.5,11.431,11.431,0,0,0-.974,2.5,18.719,18.719,0,0,0-.563,2.5,20.124,20.124,0,0,0-.193,2.484,11.878,11.878,0,0,0,.159,2.516,13.607,13.607,0,0,0,.524,2.5,11.329,11.329,0,0,0,.7,1.985,17.7,17.7,0,0,0,6.386,7.755q.394.266.8.51H2.5V2.5h30V10a1.25,1.25,0,0,0,1.25,1.25h7.5Z"/>
      <circle id="Ellipse_124" data-name="Ellipse 124" cx="1.25" cy="1.25" r="1.25" transform="translate(56.696 56.711)" fill="#e97f17"/>
      <path id="Path_793" data-name="Path 793" d="M217.25,188.5a1.25,1.25,0,1,0,0-2.5h-10a1.25,1.25,0,1,0,0,2.5h2.5a3.756,3.756,0,0,1,3.535,2.5H207.25a1.249,1.249,0,1,0,0,2.5h6.035a3.755,3.755,0,0,1-3.535,2.5h-2.5a1.25,1.25,0,0,0-.559,2.368l10,5a1.25,1.25,0,0,0,1.118-2.236l-5.977-2.988a6.273,6.273,0,0,0,4.042-4.643h1.376a1.25,1.25,0,1,0,0-2.5h-1.376a6.223,6.223,0,0,0-1.128-2.5Z" transform="translate(-165.665 -147.5)" fill="#e97f17"/>
    </g>
  </g>
</svg>
