<svg xmlns="http://www.w3.org/2000/svg" width="48" height="48" viewBox="0 0 48 48">
  <g id="mail_resume_icon" transform="translate(12859 12875)">
    <rect id="Rectangle_1025" data-name="Rectangle 1025" width="48" height="48" transform="translate(-12859 -12875)" fill="none"/>
    <g id="confirmation" transform="translate(-12859 -12871)">
      <path id="Path_704" data-name="Path 704" d="M6,341.965H.937a.938.938,0,0,0,0,1.875H6a.938.938,0,0,0,0-1.875Zm0,0" transform="translate(0 -309.906)" fill="#e97f17"/>
      <path id="Path_805" data-name="Path 805" d="M6,341.965H.937a.938.938,0,0,0,0,1.875H6a.938.938,0,0,0,0-1.875Zm0,0" transform="translate(3.469 -314.031)" fill="#e97f17"/>
      <path id="Path_705" data-name="Path 705" d="M292.938,1.875a.938.938,0,0,0,.938-.937.938.938,0,1,0-1.6.663A.945.945,0,0,0,292.938,1.875Zm0,0" transform="translate(-264.625 0)" fill="#e97f17"/>
      <path id="Path_800" data-name="Path 800" d="M184.1,224.871H169.6a.938.938,0,1,0,0,1.875h14.5a.938.938,0,1,0,0-1.875Zm0,0" transform="translate(-146.661 -203.415)" fill="#e97f17"/>
      <path id="Path_802" data-name="Path 802" d="M129.6,224.871a.938.938,0,1,0,.663.275A.945.945,0,0,0,129.6,224.871Zm0,0" transform="translate(-110.411 -203.415)" fill="#e97f17"/>
      <path id="Path_804" data-name="Path 804" d="M158.538,52.732a.9.9,0,0,0,.134.116,7.29,7.29,0,0,0,9.538,0,.931.931,0,0,0,.134-.116,7.312,7.312,0,1,0-9.806,0Zm1.79-.966a3.443,3.443,0,0,1,6.225,0,5.42,5.42,0,0,1-6.225,0Zm2.051-4.908v-.5a1.062,1.062,0,1,1,2.124,0v.5a1.062,1.062,0,0,1-2.124,0Zm1.062-4.984a5.434,5.434,0,0,1,4.485,8.507,5.339,5.339,0,0,0-2.057-1.872,2.922,2.922,0,0,0,.509-1.651v-.5a2.937,2.937,0,1,0-5.874,0v.5a2.92,2.92,0,0,0,.51,1.651,5.343,5.343,0,0,0-2.058,1.872,5.434,5.434,0,0,1,4.485-8.507Zm0,0" transform="translate(-135.304 -35.875)" fill="#e97f17"/>
      <path id="Path_703" data-name="Path 703" d="M131.031,14.925,125.866,10.7V2.87A2.874,2.874,0,0,0,123,0h-7.558a.937.937,0,1,0,0,1.875H123a1,1,0,0,1,1,1V19.51l-12.3,9.354-12.3-9.354V11.151h0V2.87a1,1,0,0,1,1-1h7.558a.937.937,0,0,0,0-1.875H100.38a2.874,2.874,0,0,0-2.871,2.87V10.7l-5.165,4.222a.937.937,0,0,0-.344.726V37.629a2.874,2.874,0,0,0,2.87,2.87h33.634a2.874,2.874,0,0,0,2.87-2.87V15.651a.937.937,0,0,0-.344-.726ZM129.5,37.2,118.408,26.11,129.5,17.677Zm-3.634-24.079,3.144,2.57-3.144,2.39ZM111.688,30.98a.937.937,0,0,0,.568-.191l4.646-3.532L128.27,38.625H95.106l11.369-11.369,4.646,3.532a.935.935,0,0,0,.567.191Zm-17.812-13.3,11.092,8.433L93.875,37.2Zm3.634.407-3.144-2.39,3.144-2.57Zm0,0" transform="translate(-83.375 0)"/>
    </g>
  </g>
</svg>
