<svg xmlns="http://www.w3.org/2000/svg" width="64" height="64" viewBox="0 0 64 64">
  <g id="dynamic_timing_icon" transform="translate(-1740 -4261)">
    <rect id="Rectangle_1029" data-name="Rectangle 1029" width="64" height="64" transform="translate(1740 4261)" fill="none"/>
    <g id="time-management" transform="translate(1740 4261)">
      <path id="Path_769" data-name="Path 769" d="M142.25,126a16.25,16.25,0,1,0,16.25,16.25A16.268,16.268,0,0,0,142.25,126Zm0,30A13.75,13.75,0,1,1,156,142.25,13.766,13.766,0,0,1,142.25,156Zm0,0" transform="translate(-110.25 -110.25)"/>
      <path id="Path_770" data-name="Path 770" d="M177.25,166a11.25,11.25,0,1,0,11.25,11.25A11.263,11.263,0,0,0,177.25,166Zm0,20a8.75,8.75,0,1,1,8.75-8.75A8.76,8.76,0,0,1,177.25,186Zm0,0" transform="translate(-145.25 -145.25)" fill="#e97f17"/>
      <path id="Path_771" data-name="Path 771" d="M252.25,211H248.5v-3.75a1.25,1.25,0,0,0-2.5,0v5a1.25,1.25,0,0,0,1.25,1.25h5a1.25,1.25,0,0,0,0-2.5Zm0,0" transform="translate(-215.25 -180.25)" fill="#e97f17"/>
      <path id="Path_772" data-name="Path 772" d="M418.5,356.25a1.25,1.25,0,1,1-1.25-1.25A1.25,1.25,0,0,1,418.5,356.25Zm0,0" transform="translate(-364 -310.625)" fill="#e97f17"/>
      <path id="Path_773" data-name="Path 773" d="M62.956,26.383l-5.4-.9a26.09,26.09,0,0,0-2.879-6.935l3.188-4.462a1.251,1.251,0,0,0-.133-1.611l-6.2-6.2a1.25,1.25,0,0,0-1.61-.133L45.454,9.326a26.1,26.1,0,0,0-6.935-2.879l-.9-5.4A1.25,1.25,0,0,0,36.385,0h-8.77a1.25,1.25,0,0,0-1.233,1.044l-.9,5.4a26.084,26.084,0,0,0-6.935,2.879L14.084,6.138a1.249,1.249,0,0,0-1.61.133l-6.2,6.2a1.25,1.25,0,0,0-.133,1.61l3.188,4.462a26.118,26.118,0,0,0-2.879,6.935l-5.4.9A1.25,1.25,0,0,0,0,27.616v8.77a1.25,1.25,0,0,0,1.044,1.233l5.4.9a26.078,26.078,0,0,0,2.879,6.935L6.138,49.916a1.25,1.25,0,0,0,.133,1.61l6.2,6.2a1.25,1.25,0,0,0,1.61.133l4.462-3.188a26.069,26.069,0,0,0,6.935,2.879l.9,5.4A1.25,1.25,0,0,0,27.615,64h8.77a1.25,1.25,0,0,0,1.233-1.044l.9-5.4a26.1,26.1,0,0,0,6.935-2.879l4.462,3.188a1.25,1.25,0,0,0,1.61-.133l6.2-6.2a1.25,1.25,0,0,0,.133-1.61l-.319-.447a1.25,1.25,0,0,0-2.247.955l-4.789,4.789-4.277-3.056a1.25,1.25,0,0,0-1.4-.036,23.625,23.625,0,0,1-7.677,3.187,1.251,1.251,0,0,0-.964,1.015L35.326,61.5H28.674l-.863-5.177a1.25,1.25,0,0,0-.964-1.015,23.623,23.623,0,0,1-7.676-3.187,1.251,1.251,0,0,0-1.4.036l-4.277,3.056L8.788,50.508l3.056-4.277a1.251,1.251,0,0,0,.036-1.4,23.636,23.636,0,0,1-3.187-7.676,1.251,1.251,0,0,0-1.015-.964L2.5,35.326V28.674l5.177-.863a1.251,1.251,0,0,0,1.015-.964,23.629,23.629,0,0,1,3.187-7.676,1.251,1.251,0,0,0-.036-1.4L8.788,13.493l4.705-4.705,4.277,3.056a1.251,1.251,0,0,0,1.4.036,23.623,23.623,0,0,1,7.676-3.187,1.25,1.25,0,0,0,.964-1.015L28.674,2.5h6.652l.863,5.177a1.251,1.251,0,0,0,.964,1.015,23.636,23.636,0,0,1,7.677,3.187,1.248,1.248,0,0,0,1.4-.036l4.277-3.056,4.705,4.705L52.157,17.77a1.251,1.251,0,0,0-.035,1.4,23.615,23.615,0,0,1,3.187,7.676,1.251,1.251,0,0,0,1.015.963l5.177.863v6.652l-5.177.863a1.251,1.251,0,0,0-1.015.964,23.921,23.921,0,0,1-.854,2.951,1.25,1.25,0,1,0,2.351.85c.287-.793.537-1.609.748-2.435l5.4-.9A1.25,1.25,0,0,0,64,36.386v-8.77a1.249,1.249,0,0,0-1.044-1.233Zm0,0" transform="translate(0 0)"/>
    </g>
  </g>
</svg>
