<svg xmlns="http://www.w3.org/2000/svg" width="64" height="64" viewBox="0 0 64 64">
  <g id="equality_icon" transform="translate(-140 -4229)">
    <g id="equal" transform="translate(140 4231)">
      <g id="Group_753" data-name="Group 753" transform="translate(0 0)">
        <path id="Path_708" data-name="Path 708" d="M62.752,46.7V42.213a9.148,9.148,0,0,0-8.434-9.108,6.937,6.937,0,0,0,1.653-4.5V26.944a6.969,6.969,0,1,0-13.939,0v1.662a6.937,6.937,0,0,0,1.653,4.5,9.148,9.148,0,0,0-8.434,9.108v3.528h-6.5V42.213a9.148,9.148,0,0,0-8.433-9.108,6.937,6.937,0,0,0,1.653-4.5V26.944a6.969,6.969,0,0,0-13.939,0v1.662a6.937,6.937,0,0,0,1.653,4.5,9.148,9.148,0,0,0-8.433,9.108V46.7h61.5ZM44.533,26.944a4.469,4.469,0,1,1,8.939,0v1.662a4.469,4.469,0,0,1-8.939,0ZM37.752,42.213a6.645,6.645,0,0,1,6.638-6.638h9.224a6.645,6.645,0,0,1,6.638,6.638v3.512H56.758V43.086a1.25,1.25,0,1,0-2.5,0v2.639H43.737V43.086a1.25,1.25,0,0,0-2.5,0v2.639H37.752V42.213ZM10.529,26.944a4.469,4.469,0,0,1,8.939,0v1.662a4.469,4.469,0,0,1-8.939,0ZM3.748,42.213a6.645,6.645,0,0,1,6.638-6.638H19.61a6.645,6.645,0,0,1,6.638,6.638v3.512H22.763V43.086a1.25,1.25,0,0,0-2.5,0v2.639H9.742V43.086a1.25,1.25,0,0,0-2.5,0v2.639H3.748Z" transform="translate(0 -19.975)" fill="#e97f17"/>
        <circle id="Ellipse_119" data-name="Ellipse 119" cx="1.25" cy="1.25" r="1.25" transform="translate(47.747 30.766)"/>
      </g>
    </g>
    <rect id="Rectangle_1028" data-name="Rectangle 1028" width="64" height="64" transform="translate(140 4229)" fill="none"/>
    <g id="equal-2" data-name="equal" transform="translate(140 4231)">
      <g id="Group_753-2" data-name="Group 753" transform="translate(0 0)">
        <path id="Path_708-2" data-name="Path 708" d="M62.77,45.741H28.9s-26.286-1.271-27.557,0A4.8,4.8,0,0,0,0,49.491a3.754,3.754,0,0,0,3.75,3.75H29.811L15.729,77.1a1.25,1.25,0,0,0,1.077,1.885H47.194A1.25,1.25,0,0,0,48.271,77.1L34.189,53.241h9.183a1.25,1.25,0,1,0,0-2.5H3.75a1.25,1.25,0,1,1,0-2.5h56.5a1.25,1.25,0,1,1,0,2.5H54.623a1.25,1.25,0,0,0,0,2.5H60.25A3.754,3.754,0,0,0,64,49.491c0-1.107-.326-3.147-1.23-3.75ZM19,76.481,32,54.45,45,76.481Z" transform="translate(0 -19.975)"/>
        <circle id="Ellipse_119-2" data-name="Ellipse 119" cx="1.25" cy="1.25" r="1.25" transform="translate(47.747 30.766)" fill="#e97f17"/>
      </g>
    </g>
  </g>
</svg>
