<svg xmlns="http://www.w3.org/2000/svg" width="48" height="48.001" viewBox="0 0 48 48.001">
  <g id="form_icon" transform="translate(12891 12865)">
    <rect id="Rectangle_1024" data-name="Rectangle 1024" width="48" height="48" transform="translate(-12891 -12865)" fill="none"/>
    <g id="registration" transform="translate(-12891 -12865)">
      <path id="Path_736" data-name="Path 736" d="M46.37,12.668a3.566,3.566,0,0,0-4.928,1.071l-.769,1.2-4.483,6.974V.938A.938.938,0,0,0,35.253,0H.945A.938.938,0,0,0,.007.938v33.9a.938.938,0,1,0,1.875,0V1.875H34.316V24.826l-5.667,8.815a.947.947,0,0,0-.132.329L27.8,37.678a2.35,2.35,0,0,0-1.242-.088,4.422,4.422,0,0,0-1.838.851c-.02-.315-.05-.632-.087-.973a2.951,2.951,0,0,0-1.181-2.18c-1.372-.942-3.033.166-3.579.53a13.948,13.948,0,0,0-4.389,4.836.938.938,0,1,0,1.639.911,12.066,12.066,0,0,1,3.791-4.187c1.069-.713,1.4-.6,1.478-.544a1.233,1.233,0,0,1,.379.838,14.234,14.234,0,0,1,.015,3.348.938.938,0,0,0,1.779.494,3.822,3.822,0,0,1,2.339-2.08c.193-.036.3,0,.321.1a9.082,9.082,0,0,1-.055,1.391.947.947,0,0,0,1.522.9l5.626-4.014v8.309H1.882V43.085a.938.938,0,0,0-1.875,0v3.979A.938.938,0,0,0,.945,48H35.253a.938.938,0,0,0,.938-.938V35.1L46.673,18.792l.769-1.2a3.57,3.57,0,0,0-1.071-4.928Zm-3.35,2.085a1.691,1.691,0,0,1,2.844,1.829l-.262.408-2.845-1.829ZM29.456,38.981l.583-3.007.056-.289,1.047.673,1.047.673-.938.669Zm5.01-4.667v0l-.887,1.379-2.844-1.828,5.308-8.258,0,0,5.7-8.867,2.845,1.829Z" transform="translate(-0.007 0)"/>
      <path id="Path_737" data-name="Path 737" d="M77.847,46.93H67.415a.938.938,0,0,0-.938.938V59.71a.938.938,0,0,0,.938.938H77.847a.938.938,0,0,0,.938-.938V47.868A.938.938,0,0,0,77.847,46.93Zm-.938,1.875v6.71a5.807,5.807,0,0,0-1.638-.893,3.164,3.164,0,1,0-5.282,0,5.8,5.8,0,0,0-1.637.892V48.805Zm-4.278,5.366h-.008a1.289,1.289,0,1,1,.015,0Zm-4.191,4.6a2.967,2.967,0,0,1,.843-1.587,5.159,5.159,0,0,1,3.316-1.14h.066a5.208,5.208,0,0,1,3.308,1.137,2.966,2.966,0,0,1,.848,1.59Z" transform="translate(-60.245 -42.53)" fill="#e97f17"/>
      <path id="Path_738" data-name="Path 738" d="M235.824,68.7H242.7a.938.938,0,1,0,0-1.875h-6.879a.938.938,0,1,0,0,1.875Z" transform="translate(-212.865 -60.555)" fill="#e97f17"/>
      <path id="Path_739" data-name="Path 739" d="M235.824,112.645H242.7a.938.938,0,1,0,0-1.875h-6.879a.938.938,0,1,0,0,1.875Z" transform="translate(-212.865 -100.385)" fill="#e97f17"/>
      <path id="Path_740" data-name="Path 740" d="M235.824,156.594H242.7a.938.938,0,1,0,0-1.875h-6.879a.938.938,0,1,0,0,1.875Z" transform="translate(-212.865 -140.214)" fill="#e97f17"/>
      <path id="Path_741" data-name="Path 741" d="M68.367,221.235v4.613a.938.938,0,0,0,.938.938H91.8a.938.938,0,0,0,.938-.938v-4.613a.938.938,0,0,0-.938-.938H69.3A.938.938,0,0,0,68.367,221.235Zm1.875.938H90.858v2.738H70.242Z" transform="translate(-61.958 -199.644)" fill="#e97f17"/>
      <path id="Path_742" data-name="Path 742" d="M86.7,319.745a.938.938,0,0,0-.938-.938H72.835a.938.938,0,1,0,0,1.875H85.766A.938.938,0,0,0,86.7,319.745Z" transform="translate(-65.157 -288.918)" fill="#e97f17"/>
      <path id="Path_743" data-name="Path 743" d="M72.835,360.726a.938.938,0,1,0,0,1.875h6.089a.938.938,0,1,0,0-1.875Z" transform="translate(-65.157 -326.907)" fill="#e97f17"/>
      <path id="Path_744" data-name="Path 744" d="M.211,407.458a.947.947,0,0,0,1.3.259.947.947,0,0,0,.259-1.3.946.946,0,0,0-1.3-.259.948.948,0,0,0-.259,1.3Z" transform="translate(-0.053 -367.94)" fill="#e97f17"/>
    </g>
  </g>
</svg>
