<svg id="left-quote" xmlns="http://www.w3.org/2000/svg" width="36.291" height="32" viewBox="0 0 36.291 32">
  <path id="Path_204" data-name="Path 204" d="M1.043,32.974a1.745,1.745,0,0,0-.878,2.342L1.6,38.332a1.75,1.75,0,0,0,2.284.849,20.169,20.169,0,0,0,6.324-4.1,15.3,15.3,0,0,0,4.245-6.7,36.769,36.769,0,0,0,1.171-10.305V9.085a1.762,1.762,0,0,0-1.757-1.757H2.36A1.762,1.762,0,0,0,.6,9.085V20.59A1.762,1.762,0,0,0,2.36,22.347h5.5a12.344,12.344,0,0,1-2.049,7.114A11.128,11.128,0,0,1,1.043,32.974Z" transform="translate(20.669 -7.328)" fill="#222"/>
  <path id="Path_205" data-name="Path 205" d="M71.742,33.075a1.745,1.745,0,0,0-.878,2.342L72.3,38.4a1.75,1.75,0,0,0,2.284.849,21.207,21.207,0,0,0,6.294-4.069,15.625,15.625,0,0,0,4.275-6.734,36.276,36.276,0,0,0,1.141-10.276V9.185a1.762,1.762,0,0,0-1.757-1.757H73.031a1.762,1.762,0,0,0-1.757,1.757V20.691a1.762,1.762,0,0,0,1.757,1.757h5.533a12.346,12.346,0,0,1-2.049,7.114A11.126,11.126,0,0,1,71.742,33.075Z" transform="translate(-70.7 -7.429)" fill="#222"/>
</svg>
