<svg xmlns="http://www.w3.org/2000/svg" width="192" height="148" viewBox="0 0 192 148">
  <g id="left-quote" opacity="0.12">
    <path id="Path_204" data-name="Path 204" d="M82.127,125.941c5.112,1.76,7.256,6.77,4.947,10.832l-8.081,13.946c-2.309,3.925-7.916,5.687-12.863,3.925-14.018-4.874-26.056-11.238-35.621-18.956C18.8,126.618,10.884,116.192,6.6,104.682,2.309,93.036,0,77.2,0,57.021V15.452c0-4.468,4.453-8.124,9.895-8.124H74.706c5.442,0,9.895,3.656,9.895,8.124V68.665c0,4.47-4.453,8.124-9.895,8.124h-31c.33,13.677,4.288,24.643,11.544,32.9C61.183,116.326,70.088,121.742,82.127,125.941Z" transform="translate(0 -7.328)" fill="#fff"/>
    <path id="Path_205" data-name="Path 205" d="M152.816,126.15c5.122,1.762,7.268,6.776,4.957,10.842l-8.1,13.822c-2.313,3.93-7.931,5.692-12.887,3.93a125.015,125.015,0,0,1-35.523-18.838c-11.733-9.216-19.827-19.651-24.124-31.171Q70.7,87.662,70.7,57.166V15.56c0-4.472,4.461-8.132,9.913-8.132h64.933c5.452,0,9.913,3.659,9.913,8.132V68.822c0,4.474-4.461,8.132-9.913,8.132H114.319c.33,13.689,4.3,24.666,11.566,32.934C131.833,116.527,140.755,121.948,152.816,126.15Z" transform="translate(33.3 -7.428)" fill="#fff"/>
  </g>
</svg>
