<svg xmlns="http://www.w3.org/2000/svg" width="36.291" height="32" viewBox="0 0 36.291 32">
  <g id="left-quote" transform="translate(0 -7.328)">
    <path id="Path_204" data-name="Path 204" d="M14.579,13.682a1.745,1.745,0,0,0,.878-2.342L14.023,8.325a1.75,1.75,0,0,0-2.284-.849,20.169,20.169,0,0,0-6.324,4.1,15.3,15.3,0,0,0-4.245,6.7A36.768,36.768,0,0,0,0,28.584v8.988a1.762,1.762,0,0,0,1.757,1.757H13.262a1.762,1.762,0,0,0,1.757-1.757V26.066a1.762,1.762,0,0,0-1.757-1.757h-5.5a12.344,12.344,0,0,1,2.049-7.114A11.128,11.128,0,0,1,14.579,13.682Z" transform="translate(0 0)" fill="#222"/>
    <path id="Path_205" data-name="Path 205" d="M85.25,13.753a1.745,1.745,0,0,0,.878-2.342L84.694,8.425a1.75,1.75,0,0,0-2.284-.849,21.207,21.207,0,0,0-6.294,4.069,15.624,15.624,0,0,0-4.275,6.733A36.275,36.275,0,0,0,70.7,28.655v8.988A1.762,1.762,0,0,0,72.457,39.4H83.962a1.762,1.762,0,0,0,1.757-1.757V26.137a1.762,1.762,0,0,0-1.757-1.757H78.429a12.346,12.346,0,0,1,2.049-7.114A11.126,11.126,0,0,1,85.25,13.753Z" transform="translate(-50.002 -0.071)" fill="#222"/>
  </g>
</svg>
