<svg xmlns="http://www.w3.org/2000/svg" width="48" height="48" viewBox="0 0 48 48">
  <g id="apply_position_icon" transform="translate(12857 12797)">
    <rect id="Rectangle_1026" data-name="Rectangle 1026" width="48" height="48" transform="translate(-12857 -12797)" fill="none"/>
    <g id="job-search" transform="translate(-12857 -12795)">
      <path id="Path_722" data-name="Path 722" d="M47.039,21.961A3.26,3.26,0,0,0,44.719,21H28.246a.938.938,0,0,0,0,1.875H44.719a1.41,1.41,0,0,1,1.406,1.406V48.187H39.469v-22.5a.937.937,0,0,0-.937-.937H9.469a.937.937,0,0,0-.937.937v22.5H1.875V24.281a1.411,1.411,0,0,1,1.406-1.406H19.807a.938.938,0,0,0,0-1.875H3.281A3.281,3.281,0,0,0,0,24.281V52.406a3.285,3.285,0,0,0,3.281,3.281H18.844v3.281H16.031A3.285,3.285,0,0,0,12.75,62.25v1.875a.938.938,0,0,0,.938.938H34.312a.938.938,0,0,0,.938-.937V62.25a3.285,3.285,0,0,0-3.281-3.281H29.156V55.687H44.719A3.285,3.285,0,0,0,48,52.406V24.281A3.26,3.26,0,0,0,47.039,21.961ZM10.406,26.625H37.594V48.187H10.406ZM27.281,58.969H25.875a.938.938,0,0,0,0,1.875h6.094a1.408,1.408,0,0,1,1.406,1.406v.938H14.625V62.25a1.408,1.408,0,0,1,1.406-1.406h6.094a.938.938,0,0,0,0-1.875H20.719V55.687h6.563Zm18.844-6.562a1.408,1.408,0,0,1-1.406,1.406H3.281a1.408,1.408,0,0,1-1.406-1.406V50.062h44.25Z" transform="translate(0 -21)"/>
      <ellipse id="Ellipse_120" data-name="Ellipse 120" cx="0.937" cy="0.937" rx="0.937" ry="0.937" transform="translate(23.09)" fill="#e97f17"/>
      <path id="Path_723" data-name="Path 723" d="M149.752,110.846a2.57,2.57,0,0,0,2.555-2.539V101.97a.959.959,0,0,0-.875-.968.938.938,0,0,0-1,.935v6.369a.665.665,0,0,1-.371.584.993.993,0,0,1-.849-.133.937.937,0,0,0-.879,1.656A3.244,3.244,0,0,0,149.752,110.846Z" transform="translate(-133.979 -93.5)" fill="#e97f17"/>
      <path id="Path_724" data-name="Path 724" d="M305.7,105.352a2.958,2.958,0,0,0,.429-1.544,2.711,2.711,0,0,0-2.6-2.808h-2.092a.937.937,0,0,0-.937.938v7.969a.938.938,0,0,0,.938.938h2.516a3,3,0,0,0,2.922-3.052A3.082,3.082,0,0,0,305.7,105.352Zm-3.321-2.477h1.155a.965.965,0,0,1,0,1.867l-1.155,0Zm1.578,6.09c-.291,0-.99,0-1.578,0v-2.34h1.578a1.177,1.177,0,0,1,0,2.34Z" transform="translate(-272.328 -93.5)" fill="#e97f17"/>
      <path id="Path_725" data-name="Path 725" d="M221.594,107.8v-3.75a3.047,3.047,0,0,0-6.094,0v3.75a3.047,3.047,0,0,0,6.094,0Zm-4.219,0v-3.75a1.172,1.172,0,0,1,2.344,0v3.75a1.172,1.172,0,0,1-2.344,0Z" transform="translate(-195.297 -93.5)" fill="#e97f17"/>
      <ellipse id="Ellipse_121" data-name="Ellipse 121" cx="0.937" cy="0.937" rx="0.937" ry="0.937" transform="translate(29.391 22.969)" fill="#e97f17"/>
      <path id="Path_726" data-name="Path 726" d="M242.25,266h-2.812a.938.938,0,0,0,0,1.875h2.813a.938.938,0,0,0,0-1.875Z" transform="translate(-216.141 -243.031)" fill="#e97f17"/>
      <path id="Path_727" data-name="Path 727" d="M249.75,226H239.438a.938.938,0,0,0,0,1.875H249.75a.938.938,0,0,0,0-1.875Z" transform="translate(-216.141 -206.781)" fill="#e97f17"/>
      <path id="Path_728" data-name="Path 728" d="M149.594,226h-5.156a.937.937,0,0,0-.937.938v3.75a.937.937,0,0,0,.938.938h5.156a.937.937,0,0,0,.938-.937v-3.75A.937.937,0,0,0,149.594,226Zm-.937,3.75h-3.281v-1.875h3.281Z" transform="translate(-130.047 -206.781)" fill="#e97f17"/>
    </g>
  </g>
</svg>
