<svg xmlns="http://www.w3.org/2000/svg" xmlns:xlink="http://www.w3.org/1999/xlink" width="620" height="724" viewBox="0 0 620 724">
  <defs>
    <clipPath id="clip-path">
      <rect id="Rectangle_1009" data-name="Rectangle 1009" width="620" height="724" rx="31" transform="translate(8619 -7342)" fill="#254796"/>
    </clipPath>
  </defs>
  <g id="quotation_watermark" transform="translate(-8619 7342)" clip-path="url(#clip-path)">
    <g id="left-quote" transform="translate(9011 -6719)" opacity="0.12">
      <path id="Path_204" data-name="Path 204" d="M5.873,36.716C.761,34.955-1.383,29.946.926,25.883L9.006,11.937C11.315,8.012,16.922,6.25,21.87,8.012,35.887,12.886,47.926,19.25,57.491,26.968,69.2,36.039,77.116,46.465,81.4,57.974,85.691,69.62,88,85.461,88,105.636V147.2c0,4.468-4.453,8.124-9.895,8.124H13.294c-5.442,0-9.895-3.656-9.895-8.124V93.991c0-4.47,4.453-8.124,9.895-8.124h31c-.33-13.677-4.288-24.643-11.544-32.9C26.817,46.331,17.912,40.915,5.873,36.716Z" transform="translate(95 -7.328)" fill="#fff"/>
      <path id="Path_205" data-name="Path 205" d="M76.583,36.707c-5.122-1.762-7.268-6.776-4.957-10.842l8.1-13.822c2.313-3.93,7.931-5.692,12.888-3.93A125.015,125.015,0,0,1,128.133,26.95c11.733,9.216,19.827,19.651,24.124,31.171Q158.7,75.2,158.7,105.691V147.3c0,4.472-4.461,8.132-9.913,8.132H83.853c-5.452,0-9.913-3.659-9.913-8.132V94.035c0-4.474,4.461-8.132,9.913-8.132h31.227c-.33-13.689-4.3-24.666-11.566-32.934C97.567,46.33,88.645,40.909,76.583,36.707Z" transform="translate(-79.7 -7.429)" fill="#fff"/>
    </g>
    <g id="left-quote-2" data-name="left-quote" transform="translate(8679 -7389)" opacity="0.12">
      <path id="Path_204-2" data-name="Path 204" d="M82.127,125.941c5.112,1.76,7.256,6.77,4.947,10.832l-8.081,13.946c-2.309,3.925-7.916,5.687-12.863,3.925-14.018-4.874-26.056-11.238-35.621-18.956C18.8,126.618,10.884,116.192,6.6,104.682,2.309,93.036,0,77.2,0,57.021V15.452c0-4.468,4.453-8.124,9.895-8.124H74.706c5.442,0,9.895,3.656,9.895,8.124V68.665c0,4.47-4.453,8.124-9.895,8.124h-31c.33,13.677,4.288,24.643,11.544,32.9C61.183,116.326,70.088,121.742,82.127,125.941Z" transform="translate(0 -7.328)" fill="#fff"/>
      <path id="Path_205-2" data-name="Path 205" d="M152.816,126.15c5.122,1.762,7.268,6.776,4.957,10.842l-8.1,13.822c-2.313,3.93-7.931,5.692-12.887,3.93a125.015,125.015,0,0,1-35.523-18.838c-11.733-9.216-19.827-19.651-24.124-31.171Q70.7,87.662,70.7,57.166V15.56c0-4.472,4.461-8.132,9.913-8.132h64.933c5.452,0,9.913,3.659,9.913,8.132V68.822c0,4.474-4.461,8.132-9.913,8.132H114.319c.33,13.689,4.3,24.666,11.566,32.934C131.833,116.527,140.755,121.948,152.816,126.15Z" transform="translate(33.3 -7.428)" fill="#fff"/>
    </g>
  </g>
</svg>
