<svg xmlns="http://www.w3.org/2000/svg" width="64" height="64" viewBox="0 0 64 64">
  <g id="qualification_icon" transform="translate(14536 13565)">
    <rect id="Rectangle_1021" data-name="Rectangle 1021" width="64" height="64" transform="translate(-14536 -13565)" fill="none"/>
    <g id="archive" transform="translate(-14529 -13565)">
      <path id="Path_690" data-name="Path 690" d="M49.368,30.944A4.781,4.781,0,0,1,48.24,27.45a6.509,6.509,0,0,0-.919-3.693c-1.289-1.771-3.776-1.948-4.969-2.816-1.114-.811-2.017-2.943-3.9-3.741V6.631A6.638,6.638,0,0,0,31.819,0H6.63A6.638,6.638,0,0,0,0,6.631V47.177A6.638,6.638,0,0,0,6.63,53.808h17.3v7.669a2.518,2.518,0,0,0,4.191,1.881l3.76-3.344a.868.868,0,0,1,1.153,0l3.76,3.345a2.518,2.518,0,0,0,4.191-1.882V49.672a4.929,4.929,0,0,1,3.083-2.294c3.256-1.208,4.019-2.254,4.168-5.716a4.782,4.782,0,0,1,1.127-3.495,6.574,6.574,0,0,0,1.461-3.611,6.579,6.579,0,0,0-1.461-3.611ZM6.63,51.308A4.135,4.135,0,0,1,2.5,47.177V6.631A4.135,4.135,0,0,1,6.63,2.5H31.819A4.135,4.135,0,0,1,35.95,6.631V16.977c-1.521.25-2.7.884-3.929.721-1.5-.2-3.384-1.217-5.237-.615a6.537,6.537,0,0,0-2.952,2.485,4.791,4.791,0,0,1-2.982,2.166c-3.139,1.165-4.015,2.151-4.168,5.717a4.778,4.778,0,0,1-1.127,3.494,6.53,6.53,0,0,0-1.461,3.611c0,2.227,1.926,3.862,2.361,5.2.671,2.067-.744,5.381,3.24,7.162,2.714,1.214,2.472.514,4.24,2.753v1.636ZM38.489,61.477v.01c-.006.005-.018.011-.018.012a.045.045,0,0,1-.012-.009L34.7,58.146a3.369,3.369,0,0,0-4.476,0c-.015.013-3.757,3.338-3.768,3.351l-.021-.006c0-4.6,0,7.672,0-9.6,2.19.953,4.385-.514,6.028-.514,1.531,0,3.645,1.311,5.677.647.125-.041.29-.106.351-.133Zm8.8-24.7a7.061,7.061,0,0,0-1.547,4.778c-.1,2.432-.247,2.629-2.54,3.479a9.413,9.413,0,0,0-2.322,1.115c-1.437,1.046-2.324,3-3.411,3.464-1.024.431-2.845-.6-4.671-.719-2.375-.149-4.36,1.415-5.637.559-.981-.66-1.786-2.333-3.121-3.3A17.16,17.16,0,0,0,20.7,44.632c-1.345-.6-1.438-1.093-1.523-3.078a6.831,6.831,0,0,0-1.2-4.257c-1.622-2.515-1.922-2.605-.345-4.961a7.045,7.045,0,0,0,1.548-4.779c.1-2.4.222-2.62,2.54-3.479,2.568-.953,2.776-1.366,4.406-3.377,1.257-1.552,1.636-1.527,3.743-.941a7.392,7.392,0,0,0,5.186,0c2.311-.642,2.543-.588,4.073,1.355A7.072,7.072,0,0,0,43.2,24.078c2.293.851,2.436,1.048,2.54,3.48a7.064,7.064,0,0,0,1.547,4.778c1.383,2.065,1.383,2.374,0,4.44Zm0,0"/>
      <path id="Path_691" data-name="Path 691" d="M196.476,202.844a1.25,1.25,0,0,0-1.249,1.25,7.828,7.828,0,1,1-4-6.832,1.25,1.25,0,0,0,1.224-2.18,10.329,10.329,0,1,0,5.28,9.012,1.25,1.25,0,0,0-1.25-1.25Zm0,0" transform="translate(-154.937 -169.538)" fill="#e97f17"/>
      <path id="Path_692" data-name="Path 692" d="M313.129,231.421h0a1.25,1.25,0,1,0-1.253-1.25A1.249,1.249,0,0,0,313.132,231.421Zm0,0" transform="translate(-272.895 -200.307)"/>
      <path id="Path_693" data-name="Path 693" d="M61.387,76.164H82.3a1.25,1.25,0,0,0,0-2.5H61.387a1.25,1.25,0,0,0,0,2.5Zm0,0" transform="translate(-52.62 -64.456)" fill="#e97f17"/>
      <path id="Path_694" data-name="Path 694" d="M61.387,144.828H72.326a1.25,1.25,0,0,0,0-2.5H61.387a1.25,1.25,0,1,0,0,2.5Zm0,0" transform="translate(-52.62 -124.537)" fill="#e97f17"/>
      <path id="Path_695" data-name="Path 695" d="M61.387,213.492h4.44a1.25,1.25,0,1,0,0-2.5h-4.44a1.25,1.25,0,1,0,0,2.5Zm0,0" transform="translate(-52.62 -184.618)" fill="#e97f17"/>
      <path id="Path_696" data-name="Path 696" d="M66.576,339.32h-5.19a1.25,1.25,0,1,0,0,2.5h5.19a1.25,1.25,0,1,0,0-2.5Zm0,0" transform="translate(-52.62 -296.905)" fill="#e97f17"/>
      <path id="Path_697" data-name="Path 697" d="M61.387,282.156h2.19a1.25,1.25,0,1,0,0-2.5h-2.19a1.25,1.25,0,1,0,0,2.5Zm0,0" transform="translate(-52.62 -244.699)" fill="#e97f17"/>
    </g>
  </g>
</svg>
