<svg xmlns="http://www.w3.org/2000/svg" width="64" height="64" viewBox="0 0 64 64">
  <g id="teamwork_icon" transform="translate(-153 -3792)">
    <rect id="Rectangle_1027" data-name="Rectangle 1027" width="64" height="64" transform="translate(153 3792)" fill="none"/>
    <g id="hands" transform="translate(152.999 3792.001)">
      <g id="Group_765" data-name="Group 765" transform="translate(0.156 32.826)">
        <g id="Group_764" data-name="Group 764">
          <path id="Path_714" data-name="Path 714" d="M32.445,273.329a3.225,3.225,0,0,0-.709-.536,3.213,3.213,0,0,0-1.383-4.256,3.215,3.215,0,0,0-4.207-4.208,3.214,3.214,0,0,0-5.113-.768l-5.3,5.3a3.255,3.255,0,0,0-5.9-1.171L6.88,272.1a10.835,10.835,0,0,0-1.842,6.071l0,2.479-3.432,3.432a1.25,1.25,0,1,0,1.768,1.768l3.8-3.8a1.25,1.25,0,0,0,.366-.886l0-3a8.343,8.343,0,0,1,1.419-4.675l2.96-4.414a.757.757,0,0,1,1.063-.2.759.759,0,0,1,.213,1.013l-2.4,3.957a1.25,1.25,0,0,0,1.953,1.532L22.8,265.328a.712.712,0,0,1,1.053.956l-4.931,4.931a1.25,1.25,0,0,0,0,1.768l0,0,0,0a1.25,1.25,0,0,0,1.768,0l4.883-4.883,1.307-1.316a.714.714,0,0,1,1.01,1.01l-1.316,1.307L21.7,273.988a1.25,1.25,0,0,0,0,1.768l0,0,0,0a1.25,1.25,0,0,0,1.768,0L28.4,270.83a.712.712,0,0,1,.957,1.053L27.9,273.329l-3.432,3.432a1.25,1.25,0,0,0,0,1.768l0,0,0,0a1.25,1.25,0,0,0,1.768,0l3.482-3.482a.707.707,0,0,1,.954.046.714.714,0,0,1,0,1.01L24.3,282.486h0l-2.559,2.559a8.317,8.317,0,0,1-5.921,2.452h-.012l-1.938,0h0a1.251,1.251,0,0,0-.884.366l-3.8,3.8a1.25,1.25,0,1,0,1.768,1.768L14.384,290l1.419,0h.016a10.8,10.8,0,0,0,7.688-3.185l4.643-4.643h0l4.3-4.3A3.219,3.219,0,0,0,32.445,273.329Z" transform="translate(-1.243 -262.62)" fill="#e97f17"/>
        </g>
      </g>
      <g id="Group_767" data-name="Group 767" transform="translate(0.001 7.729)">
        <g id="Group_766" data-name="Group 766" transform="translate(0)">
          <path id="Path_715" data-name="Path 715" d="M9.363,75.375l-.613-.614A8.316,8.316,0,0,1,6.3,68.829l0-1.938a1.25,1.25,0,0,0-.366-.886l-3.8-3.8A1.25,1.25,0,0,0,.367,63.975L3.8,67.407l0,1.419a10.8,10.8,0,0,0,3.185,7.7l.613.614a1.25,1.25,0,0,0,1.768-1.768Z" transform="translate(-0.001 -61.841)"/>
        </g>
      </g>
      <g id="Group_769" data-name="Group 769" transform="translate(10.604 24.272)">
        <g id="Group_768" data-name="Group 768">
          <path id="Path_716" data-name="Path 716" d="M86.96,194.55a1.251,1.251,0,1,0,.366.884A1.259,1.259,0,0,0,86.96,194.55Z" transform="translate(-84.826 -194.184)"/>
        </g>
      </g>
      <g id="Group_771" data-name="Group 771" transform="translate(7.576 0.155)">
        <g id="Group_770" data-name="Group 770">
          <path id="Path_717" data-name="Path 717" d="M83.257,21.035l-5.3-5.3a3.255,3.255,0,0,0,1.171-5.9l-4.414-2.96A10.834,10.834,0,0,0,68.66,5.039h-.016l-2.479,0L62.733,1.61a1.25,1.25,0,0,0-1.768,1.768l3.8,3.8a1.25,1.25,0,0,0,.884.366h0l3,0h.012a8.343,8.343,0,0,1,4.663,1.419l4.414,2.96a.757.757,0,0,1,.2,1.063.76.76,0,0,1-1.013.213l-3.957-2.4a1.25,1.25,0,0,0-1.532,1.953L81.489,22.8a.714.714,0,0,1-.5,1.219.706.706,0,0,1-.45-.164L75.6,18.924a1.25,1.25,0,0,0-1.768,0l0,0,0,0a1.25,1.25,0,0,0,0,1.768l4.883,4.883,1.316,1.307a.714.714,0,1,1-1.01,1.01L77.712,26.58,72.829,21.7a1.25,1.25,0,0,0-1.768,0l0,0,0,0a1.25,1.25,0,0,0,0,1.768L75.988,28.4a.712.712,0,0,1-1.053.956L73.488,27.9l-3.432-3.432a1.25,1.25,0,0,0-1.768,0l0,0,0,0a1.25,1.25,0,0,0,0,1.768l3.482,3.482a.707.707,0,0,1-.045.955.714.714,0,0,1-1.009,0l-1.534-1.534a1.25,1.25,0,0,0-1.768,1.768l1.534,1.534a3.216,3.216,0,0,0,5.08-.708,3.22,3.22,0,0,0,4.257-1.382,3.214,3.214,0,0,0,4.206-4.208,3.214,3.214,0,0,0,.771-5.114Z" transform="translate(-60.599 -1.244)"/>
        </g>
      </g>
      <g id="Group_773" data-name="Group 773" transform="translate(31.703 -0.001)">
        <g id="Group_772" data-name="Group 772" transform="translate(0 0)">
          <path id="Path_718" data-name="Path 718" d="M285.4,7.94a1.25,1.25,0,0,0-1.768,0l-3.8,3.8a1.249,1.249,0,0,0-.366.886l0,3a8.343,8.343,0,0,1-1.419,4.675l-2.96,4.414a.757.757,0,0,1-1.276-.814l2.4-3.957a1.25,1.25,0,0,0-1.953-1.532L264.205,28.464a.712.712,0,0,1-1.053-.956l4.931-4.931a1.25,1.25,0,0,0,0-1.768l0,0,0,0a1.25,1.25,0,0,0-1.768,0l-4.883,4.883L260.121,27a.714.714,0,0,1-1.01-1.01l1.316-1.307L265.31,19.8a1.25,1.25,0,0,0,0-1.768l0,0,0,0a1.25,1.25,0,0,0-1.768,0l-4.931,4.931a.712.712,0,0,1-.957-1.053l1.456-1.446,3.432-3.432a1.25,1.25,0,0,0,0-1.768l0,0,0,0a1.25,1.25,0,0,0-1.768,0l-3.482,3.482a.707.707,0,0,1-.954-.046.714.714,0,0,1,0-1.01l6.379-6.379h0l2.559-2.559a8.317,8.317,0,0,1,5.921-2.452h.012l1.938,0h0a1.251,1.251,0,0,0,.884-.366l3.8-3.8A1.25,1.25,0,1,0,276.055.365L272.624,3.8l-1.419,0h-.016A10.8,10.8,0,0,0,263.5,6.98l-4.643,4.643h0l-4.3,4.3A3.215,3.215,0,0,0,255.271,21a3.213,3.213,0,0,0,1.383,4.256,3.215,3.215,0,0,0,4.207,4.208,3.216,3.216,0,0,0,5.113.768l5.3-5.3a3.255,3.255,0,0,0,5.9,1.171l2.96-4.414a10.835,10.835,0,0,0,1.842-6.071l0-2.479L285.4,9.708A1.25,1.25,0,0,0,285.4,7.94Z" transform="translate(-253.622 0.001)" fill="#e97f17"/>
        </g>
      </g>
      <g id="Group_775" data-name="Group 775" transform="translate(54.42 40.748)">
        <g id="Group_774" data-name="Group 774">
          <path id="Path_719" data-name="Path 719" d="M444.575,339.385l-3.432-3.432,0-1.419a10.8,10.8,0,0,0-3.185-7.7l-.466-.466a1.25,1.25,0,1,0-1.768,1.768l.466.466a8.316,8.316,0,0,1,2.452,5.932l0,1.938a1.249,1.249,0,0,0,.366.886l3.8,3.8a1.25,1.25,0,0,0,1.768-1.768Z" transform="translate(-435.361 -325.998)"/>
        </g>
      </g>
      <g id="Group_777" data-name="Group 777" transform="translate(51.585 37.914)">
        <g id="Group_776" data-name="Group 776">
          <path id="Path_720" data-name="Path 720" d="M414.811,303.686a1.247,1.247,0,1,0,.367.884A1.252,1.252,0,0,0,414.811,303.686Z" transform="translate(-412.677 -303.32)"/>
        </g>
      </g>
      <g id="Group_779" data-name="Group 779" transform="translate(32.828 31.701)">
        <g id="Group_778" data-name="Group 778">
          <path id="Path_721" data-name="Path 721" d="M285.852,283.63l-3.8-3.8a1.25,1.25,0,0,0-.884-.366h0l-3,0h-.012a8.343,8.343,0,0,1-4.663-1.419l-4.414-2.96a.757.757,0,0,1-.2-1.063.76.76,0,0,1,1.013-.213l3.957,2.4a1.25,1.25,0,0,0,1.532-1.953l-10.055-10.055a.714.714,0,0,1,.5-1.219.706.706,0,0,1,.45.164l4.933,4.933a1.25,1.25,0,0,0,1.768,0l0,0,0,0a1.25,1.25,0,0,0,0-1.768l-4.883-4.882-1.316-1.307a.714.714,0,1,1,1.01-1.01l1.307,1.316,4.883,4.883a1.25,1.25,0,0,0,1.768,0l0,0,0,0a1.25,1.25,0,0,0,0-1.768l-4.932-4.932a.712.712,0,0,1,1.053-.956l1.309,1.309c.044.05.089.1.137.147l3.432,3.432a1.25,1.25,0,0,0,1.768,0l0,0,0,0a1.25,1.25,0,0,0,0-1.768l-3.482-3.482a.712.712,0,0,1,1.055-.955l2.207,2.207a1.25,1.25,0,0,0,1.768-1.768l-2.207-2.207a3.216,3.216,0,0,0-5.08.708,3.22,3.22,0,0,0-4.257,1.382,3.214,3.214,0,0,0-4.206,4.208,3.214,3.214,0,0,0-.77,5.114l5.3,5.3a3.255,3.255,0,0,0-1.171,5.9l4.414,2.96a10.833,10.833,0,0,0,6.055,1.842h.016l2.479,0,3.432,3.432a1.25,1.25,0,1,0,1.767-1.768Z" transform="translate(-262.621 -253.622)"/>
        </g>
      </g>
    </g>
  </g>
</svg>
