<svg xmlns="http://www.w3.org/2000/svg" width="192" height="148" viewBox="0 0 192 148">
  <g id="left-quote" transform="translate(9)" opacity="0.06">
    <path id="Path_204" data-name="Path 204" d="M5.873,36.716C.761,34.955-1.383,29.946.926,25.883L9.006,11.937C11.315,8.012,16.922,6.25,21.87,8.012,35.887,12.886,47.926,19.25,57.491,26.968,69.2,36.039,77.116,46.465,81.4,57.974,85.691,69.62,88,85.461,88,105.636V147.2c0,4.468-4.453,8.124-9.895,8.124H13.294c-5.442,0-9.895-3.656-9.895-8.124V93.991c0-4.47,4.453-8.124,9.895-8.124h31c-.33-13.677-4.288-24.643-11.544-32.9C26.817,46.331,17.912,40.915,5.873,36.716Z" transform="translate(95 -7.328)"/>
    <path id="Path_205" data-name="Path 205" d="M76.583,36.707c-5.122-1.762-7.268-6.776-4.957-10.842l8.1-13.822c2.313-3.93,7.931-5.692,12.888-3.93A125.015,125.015,0,0,1,128.133,26.95c11.733,9.216,19.827,19.651,24.124,31.171Q158.7,75.2,158.7,105.691V147.3c0,4.472-4.461,8.132-9.913,8.132H83.853c-5.452,0-9.913-3.659-9.913-8.132V94.035c0-4.474,4.461-8.132,9.913-8.132h31.227c-.33-13.689-4.3-24.666-11.566-32.934C97.567,46.33,88.645,40.909,76.583,36.707Z" transform="translate(-79.7 -7.429)"/>
  </g>
</svg>
