<svg xmlns="http://www.w3.org/2000/svg" width="16.002" height="16.002" viewBox="0 0 16.002 16.002">
  <g id="Group_441" data-name="Group 441" transform="translate(-1470.976 -152.944)">
    <path id="Path_520" data-name="Path 520" d="M.784,0a.784.784,0,0,1,.784.784V20.276a.784.784,0,0,1-1.568,0V.784A.784.784,0,0,1,.784,0Z" transform="translate(1485.868 152.944) rotate(45)" fill="#222"/>
    <path id="Path_521" data-name="Path 521" d="M.786,0a.786.786,0,0,1,.786.786V20.269a.786.786,0,1,1-1.573,0V.786A.787.787,0,0,1,.786,0Z" transform="translate(1470.977 154.056) rotate(-45)" fill="#222"/>
  </g>
</svg>
