<svg xmlns="http://www.w3.org/2000/svg" width="128" height="112.867" viewBox="0 0 128 112.867">
  <g id="left-quote" transform="translate(0 -7.328)" opacity="0.2">
    <path id="Path_204" data-name="Path 204" d="M51.423,29.739a6.155,6.155,0,0,0,3.1-8.261l-5.06-10.636a6.173,6.173,0,0,0-8.054-2.993A71.139,71.139,0,0,0,19.1,22.306,53.952,53.952,0,0,0,4.13,45.951C1.446,54.832,0,66.912,0,82.3V114a6.214,6.214,0,0,0,6.2,6.2H46.776a6.214,6.214,0,0,0,6.2-6.2V73.418a6.213,6.213,0,0,0-6.2-6.2H27.363c.207-10.43,2.685-18.793,7.228-25.093C38.309,37.072,43.885,32.941,51.423,29.739Z" transform="translate(0)" fill="#e97f17"/>
    <path id="Path_205" data-name="Path 205" d="M122.019,29.736a6.155,6.155,0,0,0,3.1-8.261l-5.06-10.531A6.174,6.174,0,0,0,112,7.949,74.8,74.8,0,0,0,89.8,22.3,55.109,55.109,0,0,0,74.726,46.052Q70.7,59.061,70.7,82.3V114a6.214,6.214,0,0,0,6.2,6.2h40.581a6.214,6.214,0,0,0,6.2-6.2V73.415a6.213,6.213,0,0,0-6.2-6.2H97.96c.207-10.43,2.686-18.793,7.228-25.093C108.906,37.068,114.482,32.938,122.019,29.736Z" transform="translate(2.304 0.003)" fill="#e97f17"/>
  </g>
</svg>
