<svg xmlns="http://www.w3.org/2000/svg" width="128" height="112.866" viewBox="0 0 128 112.866">
  <g id="left-quote" opacity="0.2">
    <path id="Path_204" data-name="Path 204" d="M3.677,97.782a6.155,6.155,0,0,0-3.1,8.261l5.06,10.636a6.173,6.173,0,0,0,8.054,2.993A71.139,71.139,0,0,0,36,105.216,53.952,53.952,0,0,0,50.97,81.571c2.685-8.881,4.13-20.961,4.13-36.347v-31.7a6.214,6.214,0,0,0-6.2-6.2H8.324a6.214,6.214,0,0,0-6.2,6.2V54.1a6.213,6.213,0,0,0,6.2,6.2H27.736c-.207,10.43-2.685,18.793-7.228,25.093C16.791,90.45,11.215,94.58,3.677,97.782Z" transform="translate(72.9 -7.327)" fill="#e97f17"/>
    <path id="Path_205" data-name="Path 205" d="M74.377,97.884a6.155,6.155,0,0,0-3.1,8.261l5.06,10.531a6.174,6.174,0,0,0,8.054,2.994,74.8,74.8,0,0,0,22.2-14.353A55.108,55.108,0,0,0,121.67,81.568Q125.7,68.559,125.7,45.324v-31.7a6.214,6.214,0,0,0-6.2-6.2H78.92a6.214,6.214,0,0,0-6.2,6.2V54.2a6.213,6.213,0,0,0,6.2,6.2H98.436c-.207,10.43-2.686,18.793-7.228,25.093C87.491,90.551,81.915,94.682,74.377,97.884Z" transform="translate(-70.7 -7.429)" fill="#e97f17"/>
  </g>
</svg>
