<svg xmlns="http://www.w3.org/2000/svg" width="33" height="32" viewBox="0 0 33 32">
  <g id="Group_502" data-name="Group 502" transform="translate(-1114.5 -1568)">
    <g id="Group_506" data-name="Group 506" transform="translate(1115 1570.438)">
      <path id="Subtraction_1" data-name="Subtraction 1" d="M1.925,27.037h0a2.212,2.212,0,0,1-1.153-.269,1.53,1.53,0,0,1-.439-.392,1.987,1.987,0,0,1-.306-.614c0-.006-.008-.01-.015-.015L0,25.742V22.187l.043-.053a.871.871,0,0,1,.1-.11.484.484,0,0,1,.322-.13.424.424,0,0,1,.257.086.484.484,0,0,1,.168.246,1.158,1.158,0,0,1,.036.338c0,.5,0,1,0,1.488v0c0,.39,0,.794,0,1.191a.9.9,0,0,0,.2.665.911.911,0,0,0,.671.2H30.142l.091,0,.065,0a.784.784,0,0,0,.566-.216.849.849,0,0,0,.218-.623c-.013-1.236-.011-2.494-.008-3.71h0v-.005c0-.479,0-.974,0-1.461q0-2.261,0-4.522,0-.082,0-.164V15.39q0-.072,0-.144a4.932,4.932,0,0,1-.837.762,4.483,4.483,0,0,1-.922.506,4.895,4.895,0,0,1-.994.281,6.177,6.177,0,0,1-1.054.087c-.105,0-.213,0-.322-.007h-.042c-.118,0-.365.01-.4.018H22.545a6.7,6.7,0,0,0,.08-.969h3.891c.011,0,.281.01.426.013h.044c.125,0,.253.006.383.006.18,0,.328-.006.467-.02a3.451,3.451,0,0,0,3.2-2.951,3.54,3.54,0,0,0,.037-.621v-.031c0-1.578,0-3.271,0-5.488a.91.91,0,0,0-.2-.671.906.906,0,0,0-.668-.2h-1.2c-.449,0-.792,0-1.111-.009a.78.78,0,0,1-.421-.151.316.316,0,0,1-.125-.205.5.5,0,0,1,.028-.252.448.448,0,0,1,.164-.224.485.485,0,0,1,.264-.082c.105,0,.221-.006.364-.006h2.073a1.783,1.783,0,0,1,1.071.3,1.83,1.83,0,0,1,.634.924.21.21,0,0,0,.033.054L32,6.343v19.4l-.037.083,0,0c-.028.062-.056.127-.084.191a1.654,1.654,0,0,1-.419.6,1.552,1.552,0,0,1-.641.337,2.923,2.923,0,0,1-.742.071l-9.817,0h0C14.247,27.03,8.035,27.031,1.925,27.037ZM.443,19.929c-.141,0-.269-.087-.443-.3V6.343L.022,6.3a.785.785,0,0,0,.043-.1,1.711,1.711,0,0,1,.614-.858,1.707,1.707,0,0,1,1.015-.3l3.222,0H9.306c0-.177,0-.352,0-.522v0c0-.431,0-.839,0-1.251,0-.038,0-.076,0-.118a3.078,3.078,0,0,1,.034-.566,2.5,2.5,0,0,1,.784-1.415,2.56,2.56,0,0,1,1.5-.638c.059-.005.119-.007.178-.008A1.879,1.879,0,0,0,12.058.5a.363.363,0,0,0,.227-.116A.869.869,0,0,1,13.08,0h3.038L18.84,0h0a1.32,1.32,0,0,1,.5.079A.822.822,0,0,1,19.732.4a.4.4,0,0,0,.3.1,3.109,3.109,0,0,1,.982.153,2.358,2.358,0,0,1,.852.506,2.63,2.63,0,0,1,.6.79,2.318,2.318,0,0,1,.225.964c.008.412.008.831.008,1.236,0,.177,0,.359,0,.541,0,.065,0,.129,0,.205,0,.038,0,.078,0,.121l.108.009c.069.006.128.012.188.012h1.835a.922.922,0,0,1,.133.008.461.461,0,0,1,.413.468.448.448,0,0,1-.124.3.491.491,0,0,1-.311.144c-.039,0-.082.006-.136.006H1.711c-.057,0-.1,0-.147.006a.692.692,0,0,0-.636.653c-.005.076,0,.153,0,.228v.01q0,.021,0,.042c0,.57,0,1.148,0,1.708h0c0,1.311,0,2.666.012,4a3.448,3.448,0,0,0,2.989,3.283c.113.013.227.023.372.032.125.008.272.012.452.012.2,0,.406,0,.589-.009h0l.144,0H9.375a6.7,6.7,0,0,0,.08.969H5.5l-.283-.008L5,16.878c-.185-.005-.327-.009-.448-.01a4.807,4.807,0,0,1-1.8-.335,4.355,4.355,0,0,1-.969-.548,5.071,5.071,0,0,1-.846-.809c0,.059-.006.111-.008.153,0,.085-.008.151-.008.219,0,.982,0,1.983,0,2.867V19.1q0,.026,0,.052v.005c0,.038,0,.085,0,.13,0,.358-.091.522-.326.608A.453.453,0,0,1,.443,19.929ZM12.1,3.134a.5.5,0,0,0-.149.03V5.029h8.1V3.171l-.025,0a1.323,1.323,0,0,0-.169-.019c-.076,0-.1.029-.159.117a.778.778,0,0,1-.325.287,1.012,1.012,0,0,1-.421.087c-.126,0-.263,0-.43,0H13.148a1.331,1.331,0,0,1-.485-.073.728.728,0,0,1-.371-.317A.207.207,0,0,0,12.1,3.134Zm8.066-1.7a1.934,1.934,0,0,0-.333.03V2.2l.094.007h0c.061,0,.114.009.168.01a1.28,1.28,0,0,1,.391.067.734.734,0,0,1,.279.174.726.726,0,0,1,.168.282A1.253,1.253,0,0,1,21,3.132c0,.3,0,.606,0,.9,0,.125,0,.267,0,.407v.582h.769c0-.212,0-.419,0-.649V4.357c0-.491,0-.955,0-1.43A1.5,1.5,0,0,0,21.314,1.9a1.577,1.577,0,0,0-.495-.337A1.632,1.632,0,0,0,20.17,1.436Zm-8.338,0a1.608,1.608,0,0,0-1.151.476,1.493,1.493,0,0,0-.45,1.047c0,.2,0,.407,0,.606h0c0,.111,0,.237,0,.358,0,.249,0,.494,0,.753v0q0,.17,0,.343H11c0-.2,0-.41,0-.608h0c0-.473,0-.919,0-1.375a.816.816,0,0,1,.226-.578.842.842,0,0,1,.575-.238l.133,0h.223V1.465a1.856,1.856,0,0,0-.331-.03Zm1.29-.494V2.7h5.756V.941Z" transform="translate(0 0)" fill="#a2a2a2" stroke="rgba(0,0,0,0)" stroke-width="1"/>
      <g id="Group_505" data-name="Group 505" transform="translate(8.835 8.676)">
        <g id="Group_504" data-name="Group 504" transform="translate(0 0)">
          <path id="Path_548" data-name="Path 548" d="M42,273.486c.037-.256.063-.515.112-.769A7.039,7.039,0,0,1,45.9,267.6a6.88,6.88,0,0,1,3.671-.781,7.109,7.109,0,0,1,3.769,1.325.455.455,0,0,1,.213.492.429.429,0,0,1-.349.341.471.471,0,0,1-.392-.1,6.262,6.262,0,0,0-9.69,3.489,6.257,6.257,0,1,0,12.118,3.121,6.139,6.139,0,0,0-.488-4.365.866.866,0,0,1-.107-.379.422.422,0,0,1,.37-.4.454.454,0,0,1,.474.249,6.3,6.3,0,0,1,.612,1.581c.088.388.136.786.2,1.179.008.045.018.089.027.134v.95c-.011.087-.024.174-.034.261a7.171,7.171,0,0,1-6.051,6.332c-.192.031-.384.056-.576.083H48.661c-.16-.021-.321-.04-.481-.064a7.172,7.172,0,0,1-6.1-6.009c-.03-.191-.056-.384-.083-.575Z" transform="translate(-42 -266.806)" fill="#a2a2a2"/>
          <path id="Path_551" data-name="Path 551" d="M217.522,405.42l.849.9c.282.3.571.589.845.894a.449.449,0,1,1-.678.587L217,406.175c-.273-.287-.544-.576-.819-.86a.457.457,0,0,1-.132-.531.47.47,0,0,1,.487-.28c.392,0,.784.006,1.175,0a1.2,1.2,0,0,0,1.124-1c-.049,0-.1-.006-.146-.006h-2.169a.454.454,0,0,1-.444-.26.429.429,0,0,1,.053-.473.476.476,0,0,1,.409-.17c.644,0,1.287,0,1.931,0h.178a1.151,1.151,0,0,0-.718-.489,2.46,2.46,0,0,0-.458-.034c-.317,0-.634,0-.952,0a.463.463,0,0,1-.508-.442.455.455,0,0,1,.5-.46c.835,0,1.67,0,2.5.006.3,0,.606,0,.91,0a.457.457,0,0,1,.5.453.466.466,0,0,1-.494.445c-.172,0-.344,0-.526,0,.08.166.154.324.235.478a.125.125,0,0,0,.091.042c.084.006.168,0,.252,0a.456.456,0,0,1,.442.45.465.465,0,0,1-.449.448c-.065,0-.13,0-.2,0A2.182,2.182,0,0,1,217.522,405.42Z" transform="translate(-211.137 -397.403)" fill="#a2a2a2"/>
          <path id="Path_552" data-name="Path 552" d="M461.757,348.268a.613.613,0,0,1-.536-.55.459.459,0,0,1,.459-.449.624.624,0,0,1,.536.553A.452.452,0,0,1,461.757,348.268Z" transform="translate(-449.487 -345.017)" fill="#a2a2a2"/>
        </g>
      </g>
    </g>
    <rect id="Rectangle_896" data-name="Rectangle 896" width="32" height="32" transform="translate(1115 1568)" fill="none"/>
  </g>
</svg>
